SplineFontDB: 3.0
FontName: Parastoo
FullName: Parastoo
FamilyName: Parastoo
Weight: Regular
Copyright: Copyright (c) 2003 by Bitstream, Inc. All Rights Reserved.\nDejaVu changes are in public domain\nCopyright (c) 2015 by Saber Rastikerdar. All Rights Reserved.
Version: 0.8.6
ItalicAngle: 0
UnderlinePosition: -100
UnderlineWidth: 100
Ascent: 1536
Descent: 512
InvalidEm: 0
LayerCount: 2
Layer: 0 1 "Back" 1
Layer: 1 1 "Fore" 0
XUID: [1021 502 1027637223 7335572]
UniqueID: 4193122
UseUniqueID: 1
FSType: 0
OS2Version: 1
OS2_WeightWidthSlopeOnly: 0
OS2_UseTypoMetrics: 1
CreationTime: 1431850356
ModificationTime: 1452237057
PfmFamily: 17
TTFWeight: 400
TTFWidth: 5
LineGap: 0
VLineGap: 0
Panose: 2 11 6 3 3 8 4 2 2 4
OS2TypoAscent: 2000
OS2TypoAOffset: 0
OS2TypoDescent: -1000
OS2TypoDOffset: 0
OS2TypoLinegap: 0
OS2WinAscent: 2000
OS2WinAOffset: 0
OS2WinDescent: 1000
OS2WinDOffset: 0
HheadAscent: 2000
HheadAOffset: 0
HheadDescent: -1000
HheadDOffset: 0
OS2SubXSize: 1331
OS2SubYSize: 1433
OS2SubXOff: 0
OS2SubYOff: 286
OS2SupXSize: 1331
OS2SupYSize: 1433
OS2SupXOff: 0
OS2SupYOff: 983
OS2StrikeYSize: 102
OS2StrikeYPos: 530
OS2Vendor: 'PfEd'
OS2CodePages: 600001ff.dfff0000
Lookup: 1 0 0 "'case' Case-Sensitive Forms in Latin lookup 0" { "'case' Case-Sensitive Forms in Latin lookup 0 subtable"  } ['case' ('DFLT' <'dflt' > 'latn' <'CAT ' 'ESP ' 'GAL ' 'dflt' > ) ]
Lookup: 6 1 0 "'ccmp' Glyph Composition/Decomposition lookup 2" { "'ccmp' Glyph Composition/Decomposition lookup 2 subtable"  } ['ccmp' ('arab' <'KUR ' 'SND ' 'URD ' 'dflt' > 'hebr' <'dflt' > 'nko ' <'dflt' > ) ]
Lookup: 6 0 0 "'ccmp' Glyph Composition/Decomposition lookup 3" { "'ccmp' Glyph Composition/Decomposition lookup 3 subtable"  } ['ccmp' ('cyrl' <'MKD ' 'SRB ' 'dflt' > 'grek' <'dflt' > 'latn' <'ISM ' 'KSM ' 'LSM ' 'MOL ' 'NSM ' 'ROM ' 'SKS ' 'SSM ' 'dflt' > ) ]

StartChar: afii57388
Encoding: 1548 1548 2
Width: 706
VWidth: 2246
GlyphClass: 2
Flags: W
LayerCount: 2
Fore
SplineSet
387.876953125 246.180664062 m 1,0,-1
 402.534179688 246.180664062 l 2,1,2
 499.577148438 246.180664062 499.577148438 246.180664062 499.577148438 136.637695312 c 2,3,-1
 499.577148438 102.012695312 l 2,4,5
 499.65234375 2.080078125 499.65234375 2.080078125 396.750976562 2.080078125 c 2,6,-1
 358.96484375 2.080078125 l 2,7,8
 252.057617188 2.0048828125 252.057617188 2.0048828125 252.057617188 114.259765625 c 2,9,-1
 252.057617188 178.0078125 l 1,10,11
 271.5078125 421.21875 271.5078125 421.21875 446.247070312 570.302734375 c 2,12,-1
 448.161132812 571.936523438 l 1,13,-1
 512.009765625 540.043945312 l 1,14,-1
 508.65625 536.330078125 l 2,15,16
 390.333007812 405.059570312 390.333007812 405.059570312 387.876953125 246.180664062 c 1,0,-1
EndSplineSet
EndChar

StartChar: uni0615
Encoding: 1557 1557 3
Width: 0
VWidth: 2277
GlyphClass: 4
Flags: W
AnchorPoint: "Anchor-10" 569.754 1334.68 mark 0
AnchorPoint: "Anchor-9" 569.754 1334.68 mark 0
AnchorPoint: "Anchor-1" 569.754 2058 basemark 0
AnchorPoint: "Anchor-1" 569.754 1334.68 mark 0
LayerCount: 2
Fore
SplineSet
488.75390625 1521.15820312 m 1,0,-1
 574.205078125 1521.15820312 l 2,1,2
 618.995117188 1521.15820312 618.995117188 1521.15820312 648.6328125 1525.32226562 c 128,-1,3
 678.271484375 1529.48535156 678.271484375 1529.48535156 691.501953125 1537.30175781 c 0,4,5
 723.96875 1557.515625 723.96875 1557.515625 740.21484375 1573.9765625 c 0,6,7
 748.258789062 1582.12402344 748.258789062 1582.12402344 752.161132812 1590.42089844 c 128,-1,8
 756.063476562 1598.71875 756.063476562 1598.71875 756.063476562 1607.31640625 c 0,9,10
 756.063476562 1628.43847656 756.063476562 1628.43847656 746.092773438 1644.21582031 c 128,-1,11
 736.12109375 1659.9921875 736.12109375 1659.9921875 715.765625 1671.40136719 c 0,12,13
 708.098632812 1673.78515625 708.098632812 1673.78515625 700.124023438 1671.81445312 c 0,14,15
 691.30078125 1669.62207031 691.30078125 1669.62207031 666.706054688 1658.58789062 c 128,-1,16
 641.93359375 1647.48632812 641.93359375 1647.48632812 626.657226562 1641.45214844 c 0,17,18
 565.95703125 1616.94433594 565.95703125 1616.94433594 503.967773438 1540.03515625 c 2,19,-1
 488.75390625 1521.15820312 l 1,0,-1
599.798828125 1431.96582031 m 2,20,-1
 292.025390625 1431.96582031 l 1,21,-1
 292.025390625 1521.15820312 l 1,22,-1
 382.162109375 1521.15820312 l 1,23,-1
 382.162109375 1965.16601562 l 1,24,-1
 472.467773438 1965.16601562 l 1,25,-1
 472.467773438 1569.80859375 l 1,26,-1
 494.471679688 1614.43066406 l 2,27,28
 513.543945312 1653.1015625 513.543945312 1653.1015625 550.9765625 1683.09179688 c 128,-1,29
 588.408203125 1713.08203125 588.408203125 1713.08203125 643.990234375 1734.4609375 c 0,30,31
 710.016601562 1759.61230469 710.016601562 1759.61230469 783.754882812 1732.22753906 c 0,32,33
 848.594726562 1707.28222656 848.594726562 1707.28222656 848.594726562 1624.0078125 c 0,34,35
 848.594726562 1614.49511719 848.594726562 1614.49511719 847.927734375 1605.40039062 c 128,-1,36
 847.260742188 1596.30566406 847.260742188 1596.30566406 845.926757812 1587.62988281 c 128,-1,37
 844.592773438 1578.95507812 844.592773438 1578.95507812 842.590820312 1570.70117188 c 128,-1,38
 840.587890625 1562.44726562 840.587890625 1562.44726562 837.919921875 1554.62011719 c 128,-1,39
 835.252929688 1546.79296875 835.252929688 1546.79296875 831.9140625 1539.39257812 c 128,-1,40
 828.576171875 1531.9921875 828.576171875 1531.9921875 824.57421875 1525.02441406 c 128,-1,41
 820.571289062 1518.05761719 820.571289062 1518.05761719 815.897460938 1511.52148438 c 128,-1,42
 811.22265625 1504.984375 811.22265625 1504.984375 805.885742188 1498.88867188 c 128,-1,43
 800.547851562 1492.79394531 800.547851562 1492.79394531 794.537109375 1487.1328125 c 128,-1,44
 788.525390625 1481.47265625 788.525390625 1481.47265625 781.852539062 1476.25976562 c 0,45,46
 762.71484375 1461.37597656 762.71484375 1461.37597656 735.997070312 1451.51757812 c 128,-1,47
 709.280273438 1441.65917969 709.280273438 1441.65917969 675.323242188 1436.8125 c 128,-1,48
 641.366210938 1431.96582031 641.366210938 1431.96582031 599.798828125 1431.96582031 c 2,20,-1
EndSplineSet
EndChar

StartChar: uni061B
Encoding: 1563 1563 4
Width: 692
VWidth: 2246
GlyphClass: 2
Flags: W
LayerCount: 2
Fore
SplineSet
364.428710938 711.57421875 m 5,0,-1
 379.0859375 711.57421875 l 6,1,2
 476.12890625 711.57421875 476.12890625 711.57421875 476.12890625 602.03125 c 6,3,-1
 476.12890625 567.40625 l 6,4,5
 476.204101562 467.473632812 476.204101562 467.473632812 373.302734375 467.473632812 c 6,6,-1
 335.516601562 467.473632812 l 6,7,8
 228.609375 467.3984375 228.609375 467.3984375 228.609375 579.653320312 c 6,9,-1
 228.609375 643.401367188 l 5,10,11
 248.059570312 886.612304688 248.059570312 886.612304688 422.798828125 1035.69628906 c 6,12,-1
 424.712890625 1037.33007812 l 5,13,-1
 488.561523438 1005.4375 l 5,14,-1
 485.208007812 1001.72363281 l 6,15,16
 366.884765625 870.453125 366.884765625 870.453125 364.428710938 711.57421875 c 5,0,-1
233.6875 121.872070312 m 128,-1,18
 233.6875 171.912109375 233.6875 171.912109375 268.08984375 207.357421875 c 0,19,20
 304.577148438 242.802734375 304.577148438 242.802734375 354.6171875 242.802734375 c 128,-1,21
 404.657226562 242.802734375 404.657226562 242.802734375 440.102539062 207.357421875 c 128,-1,22
 475.547851562 171.912109375 475.547851562 171.912109375 475.547851562 121.872070312 c 128,-1,23
 475.547851562 71.83203125 475.547851562 71.83203125 440.102539062 35.3447265625 c 0,24,25
 404.657226562 0.9423828125 404.657226562 0.9423828125 354.6171875 0.9423828125 c 128,-1,26
 304.577148438 0.9423828125 304.577148438 0.9423828125 268.08984375 35.3447265625 c 0,27,17
 233.6875 71.83203125 233.6875 71.83203125 233.6875 121.872070312 c 128,-1,18
442.7421875 227.508789062 m 1026,28,29
EndSplineSet
EndChar

StartChar: uni061F
Encoding: 1567 1567 5
Width: 1167
VWidth: 2240
GlyphClass: 2
Flags: W
LayerCount: 2
Fore
SplineSet
535.6875 121.872070312 m 128,-1,1
 535.6875 171.912109375 535.6875 171.912109375 570.08984375 207.357421875 c 0,2,3
 606.577148438 242.802734375 606.577148438 242.802734375 656.6171875 242.802734375 c 128,-1,4
 706.657226562 242.802734375 706.657226562 242.802734375 742.102539062 207.357421875 c 128,-1,5
 777.547851562 171.912109375 777.547851562 171.912109375 777.547851562 121.872070312 c 128,-1,6
 777.547851562 71.83203125 777.547851562 71.83203125 742.102539062 36.3872070312 c 128,-1,7
 706.657226562 0.9423828125 706.657226562 0.9423828125 656.6171875 0.9423828125 c 128,-1,8
 606.577148438 0.9423828125 606.577148438 0.9423828125 570.08984375 35.3447265625 c 0,9,0
 535.6875 71.83203125 535.6875 71.83203125 535.6875 121.872070312 c 128,-1,1
744.7421875 227.508789062 m 1026,10,11
907 1313.76044579 m 0,12,13
 599.236883999 1458.38752859 599.236883999 1458.38752859 438.540471083 1324.63827194 c 0,14,15
 359.989655909 1258.65096246 359.989655909 1258.65096246 359.989941311 1149.6547462 c 128,-1,16
 359.990226712 1040.65852994 359.990226712 1040.65852994 484.014675863 925.099465741 c 1,17,-1
 582.191847854 828.012478865 l 1,18,19
 677.358732715 736.437304291 677.358732715 736.437304291 706.620772607 653.528192957 c 128,-1,20
 735.8828125 570.619081622 735.8828125 570.619081622 735.8828125 486.459960938 c 2,21,-1
 735.8828125 473.99609375 l 1,22,-1
 565.310546875 473.99609375 l 1,23,-1
 565.310459744 484.650142957 l 2,24,25
 564.976507033 564.648619809 564.976507033 564.648619809 553.023982363 604.097459301 c 128,-1,26
 541.071457693 643.546298793 541.071457693 643.546298793 517.326366701 675.931784661 c 128,-1,27
 493.58127571 708.31727053 493.58127571 708.31727053 443.83706934 756.932063749 c 2,28,-1
 347.663075628 850.922483106 l 1,29,30
 177.380737171 1013.4582949 177.380737171 1013.4582949 177.184444423 1170.9562868 c 128,-1,31
 176.988151675 1328.4542787 176.988151675 1328.4542787 292.36909417 1429.2293612 c 128,-1,32
 407.750036665 1530.0044437 407.750036665 1530.0044437 605.875886899 1530.00635304 c 0,33,34
 791.502545295 1530.00814193 791.502545295 1530.00814193 966 1437.35482342 c 0,35,36
 989.590029869 1424.82917051 989.590029869 1424.82917051 981.325199164 1403 c 2,37,-1
 951.793303081 1325 l 2,38,39
 941.414713402 1297.5879438 941.414713402 1297.5879438 907 1313.76044579 c 0,12,13
EndSplineSet
EndChar

StartChar: uni0621
Encoding: 1569 1569 6
Width: 781
VWidth: 2481
GlyphClass: 2
Flags: W
AnchorPoint: "Anchor-7" 392.028 -268.835 basechar 0
AnchorPoint: "Anchor-10" 359.047 1016.6 basechar 0
LayerCount: 2
Fore
SplineSet
91.5634765625 -44.6474609375 m 5,0,-1
 160 125 l 5,1,2
 323 203 323 203 366 210 c 5,3,4
 107 217 107 217 132 412 c 4,5,6
 172 718 172 718 416 716 c 4,7,8
 548 715 548 715 596 544 c 5,9,10
 486 577 486 577 422 576 c 4,11,12
 337 574 337 574 288 534 c 4,13,14
 224 481 224 481 222 430 c 4,15,16
 216 291 216 291 422 282 c 4,17,18
 469 280 469 280 554.470703125 300.120117188 c 4,19,20
 648 323 648 323 658.697265625 328.303710938 c 5,21,-1
 586 164 l 5,22,23
 490 138 490 138 338 68 c 4,24,25
 215 12 215 12 91.5634765625 -44.6474609375 c 5,0,-1
EndSplineSet
EndChar

StartChar: uni0627
Encoding: 1575 1575 12
Width: 448
VWidth: 2457
GlyphClass: 2
Flags: W
AnchorPoint: "Anchor-10" 221.349 1613.87 basechar 0
AnchorPoint: "Anchor-7" 210.506 -241.941 basechar 0
LayerCount: 2
Fore
SplineSet
299 1484 m 5,0,1
 323 1088 323 1088 290.040039062 320.698242188 c 4,2,3
 275.265456237 -10.4383907221 275.265456237 -10.4383907221 216.190429688 -19.203125 c 2,4,-1
 206.890625 -20.6015625 l 1,5,6
 187 978 187 978 186 998 c 0,7,8
 177 1290 177 1290 158.921875 1398.7109375 c 1,9,-1
 299 1484 l 5,0,1
EndSplineSet
Substitution2: "'fina' Terminal Forms in Arabic lookup 9 subtable" uniFE8E
EndChar

StartChar: uni062D
Encoding: 1581 1581 18
Width: 1209
VWidth: 2479
GlyphClass: 2
Flags: W
AnchorPoint: "Anchor-7" 300.847 -772.203 basechar 0
AnchorPoint: "Anchor-10" 499.53 1070.36 basechar 0
LayerCount: 2
Fore
SplineSet
779 376.5 m 0,0,1
 584 335 584 335 480 281 c 0,2,3
 304 191 304 191 243.5 82.7841796875 c 0,4,5
 181 -29 181 -29 181 -131 c 0,6,7
 181 -220 181 -220 231 -288 c 0,8,9
 346 -445 346 -445 676 -459 c 0,10,11
 699 -460 699 -460 722.3828125 -460.251953125 c 0,12,13
 982 -463 982 -463 1085 -400 c 1,14,15
 958 -638 958 -638 672 -638 c 0,16,17
 367 -638 367 -638 223.265625 -501.655273438 c 0,18,19
 89 -374 89 -374 91.5 -169 c 4,20,21
 94 -10 94 -10 148.5 111 c 0,22,23
 300 446 300 446 781 516 c 1,24,25
 670 542 670 542 547 597 c 0,26,27
 503 617 503 617 460 627 c 0,28,29
 425 635 425 635 379 627 c 0,30,31
 283 612 283 612 207.1953125 455.625 c 1,32,-1
 190.874023438 456.548828125 l 2,33,34
 173 458 173 458 172.936523438 495.604492188 c 0,35,36
 173 534 173 534 189.129882812 605.016601562 c 0,37,38
 232 794 232 794 416.883789062 794.315429688 c 0,39,40
 525 794 525 794 714.657226562 693.658203125 c 0,41,42
 909 590 909 590 1117.08984375 566.360351562 c 1,43,-1
 1080 415 l 1,44,45
 876 397 876 397 779 376.5 c 0,0,1
EndSplineSet
Substitution2: "'fina' Terminal Forms in Arabic lookup 9 subtable" uniFEA2
Substitution2: "'medi' Medial Forms in Arabic lookup 11 subtable" uniFEA4
Substitution2: "'init' Initial Forms in Arabic lookup 13 subtable" uniFEA3
EndChar

StartChar: uni062F
Encoding: 1583 1583 20
Width: 869
VWidth: 2477
GlyphClass: 2
Flags: W
AnchorPoint: "Anchor-10" 322.871 1229.14 basechar 0
AnchorPoint: "Anchor-7" 317.732 -260.644 basechar 0
LayerCount: 2
Fore
SplineSet
757.841796875 142.958984375 m 0,0,1
 700 -20 700 -20 395.979714733 -19.4627249406 c 0,2,3
 90.3217542361 -19.0004865803 90.3217542361 -19.0004865803 90.8447265625 203.654296875 c 2,4,-1
 91.2177734375 362.478515625 l 5,5,6
 119 381 119 381 147.01171875 363.171875 c 1,7,-1
 147.044921875 359.782226562 l 2,8,9
 149 183 149 183 354.827148438 172.936523438 c 24,10,11
 507 165 507 165 594.5 185.5 c 0,12,13
 692 208 692 208 677.827148438 321.775390625 c 0,14,15
 653 520 653 520 335.162109375 680.130859375 c 1,16,-1
 412 889 l 1,17,18
 792 634 792 634 778.796875 247.219726562 c 0,19,20
 777 195 777 195 757.841796875 142.958984375 c 0,0,1
EndSplineSet
Substitution2: "'fina' Terminal Forms in Arabic lookup 9 subtable" uniFEAA
EndChar

StartChar: uni0631
Encoding: 1585 1585 22
Width: 773
VWidth: 2482
GlyphClass: 2
Flags: W
AnchorPoint: "Anchor-7" 314.601 -757.959 basechar 0
AnchorPoint: "Anchor-10" 383.943 959.25 basechar 0
LayerCount: 2
Fore
SplineSet
432 347 m 5,0,1
 483 437 483 437 534 528.125976562 c 5,2,3
 615 409 615 409 644 305 c 4,4,5
 701 103 701 103 643.775220483 -117 c 4,6,7
 580 -361 580 -361 419 -494 c 4,8,9
 377 -529 377 -529 332 -528 c 4,10,11
 149 -526 149 -526 29 -478 c 4,12,13
 9 -470 9 -470 26.3740234375 -457.302734375 c 4,14,15
 38 -449 38 -449 63.095703125 -439.788085938 c 4,16,17
 550.744465007 -260.147078794 550.744465007 -260.147078794 587.7265625 70.9326171875 c 4,18,19
 596 145 596 145 432 347 c 5,0,1
EndSplineSet
PairPos2: "'kern' Horizontal Kerning lookup 15-1" uni0632 dx=-80 dy=0 dh=-80 dv=0 dx=0 dy=0 dh=0 dv=0
PairPos2: "'kern' Horizontal Kerning lookup 15-1" uni0631 dx=-80 dy=0 dh=-80 dv=0 dx=0 dy=0 dh=0 dv=0
PairPos2: "'kern' Horizontal Kerning lookup 15-1" uni06CC dx=-100 dy=0 dh=-100 dv=0 dx=0 dy=0 dh=0 dv=0
PairPos2: "'kern' Horizontal Kerning lookup 15-1" uniFEEB dx=-170 dy=0 dh=-170 dv=0 dx=0 dy=0 dh=0 dv=0
PairPos2: "'kern' Horizontal Kerning lookup 15-1" uniFB7C dx=-100 dy=0 dh=-100 dv=0 dx=0 dy=0 dh=0 dv=0
PairPos2: "'kern' Horizontal Kerning lookup 15-1" uniFEDF dx=-170 dy=0 dh=-170 dv=0 dx=0 dy=0 dh=0 dv=0
PairPos2: "'kern' Horizontal Kerning lookup 15-1" uniFB90 dx=-170 dy=0 dh=-170 dv=0 dx=0 dy=0 dh=0 dv=0
PairPos2: "'kern' Horizontal Kerning lookup 15-1" uni06A9 dx=-170 dy=0 dh=-170 dv=0 dx=0 dy=0 dh=0 dv=0
PairPos2: "'kern' Horizontal Kerning lookup 15-1" uni0649 dx=-100 dy=0 dh=-100 dv=0 dx=0 dy=0 dh=0 dv=0
PairPos2: "'kern' Horizontal Kerning lookup 15-1" uni0647 dx=-170 dy=0 dh=-170 dv=0 dx=0 dy=0 dh=0 dv=0
PairPos2: "'kern' Horizontal Kerning lookup 15-1" uniFEE7 dx=-170 dy=0 dh=-170 dv=0 dx=0 dy=0 dh=0 dv=0
PairPos2: "'kern' Horizontal Kerning lookup 15-1" uniFEE3 dx=-170 dy=0 dh=-170 dv=0 dx=0 dy=0 dh=0 dv=0
PairPos2: "'kern' Horizontal Kerning lookup 15-1" uni0645 dx=-170 dy=0 dh=-170 dv=0 dx=0 dy=0 dh=0 dv=0
PairPos2: "'kern' Horizontal Kerning lookup 15-1" uni0644 dx=-100 dy=0 dh=-100 dv=0 dx=0 dy=0 dh=0 dv=0
PairPos2: "'kern' Horizontal Kerning lookup 15-1" uniFEDB dx=-170 dy=0 dh=-170 dv=0 dx=0 dy=0 dh=0 dv=0
PairPos2: "'kern' Horizontal Kerning lookup 15-1" uniFED7 dx=-170 dy=0 dh=-170 dv=0 dx=0 dy=0 dh=0 dv=0
PairPos2: "'kern' Horizontal Kerning lookup 15-1" uni0642 dx=-100 dy=0 dh=-100 dv=0 dx=0 dy=0 dh=0 dv=0
PairPos2: "'kern' Horizontal Kerning lookup 15-1" uniFED3 dx=-170 dy=0 dh=-170 dv=0 dx=0 dy=0 dh=0 dv=0
PairPos2: "'kern' Horizontal Kerning lookup 15-1" uni0641 dx=-170 dy=0 dh=-170 dv=0 dx=0 dy=0 dh=0 dv=0
PairPos2: "'kern' Horizontal Kerning lookup 15-1" uniFECF dx=-170 dy=0 dh=-170 dv=0 dx=0 dy=0 dh=0 dv=0
PairPos2: "'kern' Horizontal Kerning lookup 15-1" uniFECB dx=-170 dy=0 dh=-170 dv=0 dx=0 dy=0 dh=0 dv=0
PairPos2: "'kern' Horizontal Kerning lookup 15-1" uniFEC7 dx=-170 dy=0 dh=-170 dv=0 dx=0 dy=0 dh=0 dv=0
PairPos2: "'kern' Horizontal Kerning lookup 15-1" uni0638 dx=-170 dy=0 dh=-170 dv=0 dx=0 dy=0 dh=0 dv=0
PairPos2: "'kern' Horizontal Kerning lookup 15-1" uniFEC3 dx=-170 dy=0 dh=-170 dv=0 dx=0 dy=0 dh=0 dv=0
PairPos2: "'kern' Horizontal Kerning lookup 15-1" uni0637 dx=-170 dy=0 dh=-170 dv=0 dx=0 dy=0 dh=0 dv=0
PairPos2: "'kern' Horizontal Kerning lookup 15-1" uniFEBF dx=-170 dy=0 dh=-170 dv=0 dx=0 dy=0 dh=0 dv=0
PairPos2: "'kern' Horizontal Kerning lookup 15-1" uni0636 dx=-170 dy=0 dh=-170 dv=0 dx=0 dy=0 dh=0 dv=0
PairPos2: "'kern' Horizontal Kerning lookup 15-1" uniFEBB dx=-170 dy=0 dh=-170 dv=0 dx=0 dy=0 dh=0 dv=0
PairPos2: "'kern' Horizontal Kerning lookup 15-1" uni0635 dx=-170 dy=0 dh=-170 dv=0 dx=0 dy=0 dh=0 dv=0
PairPos2: "'kern' Horizontal Kerning lookup 15-1" uniFEB7 dx=-170 dy=0 dh=-170 dv=0 dx=0 dy=0 dh=0 dv=0
PairPos2: "'kern' Horizontal Kerning lookup 15-1" uni0634 dx=-170 dy=0 dh=-170 dv=0 dx=0 dy=0 dh=0 dv=0
PairPos2: "'kern' Horizontal Kerning lookup 15-1" uniFEB3 dx=-170 dy=0 dh=-170 dv=0 dx=0 dy=0 dh=0 dv=0
PairPos2: "'kern' Horizontal Kerning lookup 15-1" uni0633 dx=-170 dy=0 dh=-170 dv=0 dx=0 dy=0 dh=0 dv=0
PairPos2: "'kern' Horizontal Kerning lookup 15-1" uni0630 dx=-170 dy=0 dh=-170 dv=0 dx=0 dy=0 dh=0 dv=0
PairPos2: "'kern' Horizontal Kerning lookup 15-1" uni062F dx=-170 dy=0 dh=-170 dv=0 dx=0 dy=0 dh=0 dv=0
PairPos2: "'kern' Horizontal Kerning lookup 15-1" uniFEA7 dx=-170 dy=0 dh=-170 dv=0 dx=0 dy=0 dh=0 dv=0
PairPos2: "'kern' Horizontal Kerning lookup 15-1" uniFEA3 dx=-170 dy=0 dh=-170 dv=0 dx=0 dy=0 dh=0 dv=0
PairPos2: "'kern' Horizontal Kerning lookup 15-1" uniFE9F dx=-170 dy=0 dh=-170 dv=0 dx=0 dy=0 dh=0 dv=0
PairPos2: "'kern' Horizontal Kerning lookup 15-1" uniFE9B dx=-170 dy=0 dh=-170 dv=0 dx=0 dy=0 dh=0 dv=0
PairPos2: "'kern' Horizontal Kerning lookup 15-1" uni062B dx=-170 dy=0 dh=-170 dv=0 dx=0 dy=0 dh=0 dv=0
PairPos2: "'kern' Horizontal Kerning lookup 15-1" uniFE97 dx=-170 dy=0 dh=-170 dv=0 dx=0 dy=0 dh=0 dv=0
PairPos2: "'kern' Horizontal Kerning lookup 15-1" uni062A dx=-170 dy=0 dh=-170 dv=0 dx=0 dy=0 dh=0 dv=0
PairPos2: "'kern' Horizontal Kerning lookup 15-1" uni0629 dx=-170 dy=0 dh=-170 dv=0 dx=0 dy=0 dh=0 dv=0
PairPos2: "'kern' Horizontal Kerning lookup 15-1" uniFE91 dx=-104 dy=0 dh=-104 dv=0 dx=0 dy=0 dh=0 dv=0
PairPos2: "'kern' Horizontal Kerning lookup 15-1" uni0628 dx=-170 dy=0 dh=-170 dv=0 dx=0 dy=0 dh=0 dv=0
PairPos2: "'kern' Horizontal Kerning lookup 15-1" uni0627 dx=-190 dy=0 dh=-190 dv=0 dx=0 dy=0 dh=0 dv=0
PairPos2: "'kern' Horizontal Kerning lookup 15-1" uni0622 dx=-190 dy=0 dh=-190 dv=0 dx=0 dy=0 dh=0 dv=0
PairPos2: "'kern' Horizontal Kerning lookup 15-1" uniFB94 dx=-170 dy=0 dh=-170 dv=0 dx=0 dy=0 dh=0 dv=0
PairPos2: "'kern' Horizontal Kerning lookup 15-1" afii57509 dx=-170 dy=0 dh=-170 dv=0 dx=0 dy=0 dh=0 dv=0
PairPos2: "'kern' Horizontal Kerning lookup 15-1" uniFB56 dx=-170 dy=0 dh=-170 dv=0 dx=0 dy=0 dh=0 dv=0
PairPos2: "'kern' Horizontal Kerning lookup 15-1" afii57506 dx=-170 dy=0 dh=-170 dv=0 dx=0 dy=0 dh=0 dv=0
Substitution2: "'fina' Terminal Forms in Arabic lookup 9 subtable" uniFEAE
EndChar

StartChar: uni0633
Encoding: 1587 1587 24
Width: 2143
VWidth: 2483
GlyphClass: 2
Flags: W
AnchorPoint: "Anchor-7" 283.813 -718.563 basechar 0
AnchorPoint: "Anchor-10" 503.067 855.906 basechar 0
LayerCount: 2
Fore
SplineSet
628 -367 m 24,0,1
 1074 -363 1074 -363 1106.25683594 -18.41796875 c 1,2,3
 1072 167 1072 167 998 317 c 1,4,-1
 1129.33300781 464.58203125 l 1,5,6
 1162 298 1162 298 1229.83496094 216.134765625 c 16,7,8
 1276 160 1276 160 1386.29296875 160.494140625 c 0,9,10
 1500.53324791 160.997941618 1500.53324791 160.997941618 1523.10449219 365.319335938 c 2,11,-1
 1525.94335938 391.017578125 l 2,12,13
 1533 454 1533 454 1570.50292969 453.604492188 c 0,14,15
 1617 454 1617 454 1621.48828125 396.780273438 c 1,16,-1
 1622.70605469 371.893554688 l 2,17,18
 1633 169 1633 169 1786.87792969 169.384765625 c 0,19,20
 1915 169 1915 169 1933.390625 258.541992188 c 0,21,22
 1937 276 1937 276 1936.55273438 293.3359375 c 0,23,24
 1934 385 1934 385 1851 458 c 1,25,-1
 1968 674 l 1,26,27
 2030 588 2030 588 2049.22460938 403.625 c 0,28,29
 2052 377 2052 377 2051.65917969 351.439453125 c 0,30,31
 2049 187 2049 187 1955 62 c 0,32,33
 1889 -26 1889 -26 1775.19042969 -26.029296875 c 0,34,35
 1637 -26 1637 -26 1571.85644531 162.501953125 c 1,36,37
 1522 -20 1522 -20 1388.60546875 -20.353515625 c 0,38,39
 1264 -20 1264 -20 1225.01855469 64.6796875 c 1,40,41
 1224 12 1224 12 1214 -54 c 0,42,43
 1139 -548 1139 -548 616 -548 c 25,44,45
 312.739042792 -551.977192881 312.739042792 -551.977192881 184 -392 c 0,46,47
 49 -225 49 -225 103.260742188 92.9365234375 c 0,48,49
 115 162 115 162 149.977539062 254 c 4,50,51
 196 375 196 375 237.548828125 348 c 4,52,53
 259 334 259 334 224 220 c 4,54,55
 153 -11 153 -11 230 -173 c 0,56,57
 322 -369 322 -369 628 -367 c 24,0,1
EndSplineSet
Substitution2: "'fina' Terminal Forms in Arabic lookup 9 subtable" uniFEB2
Substitution2: "'medi' Medial Forms in Arabic lookup 11 subtable" uniFEB4
Substitution2: "'init' Initial Forms in Arabic lookup 13 subtable" uniFEB3
EndChar

StartChar: uni0635
Encoding: 1589 1589 26
Width: 2310
VWidth: 2483
GlyphClass: 2
Flags: W
AnchorPoint: "Anchor-10" 535.211 854.477 basechar 0
AnchorPoint: "Anchor-7" 305.697 -706.48 basechar 0
LayerCount: 2
Fore
SplineSet
1225.01855469 64.6796875 m 1,0,1
 1224 12 1224 12 1214 -54 c 0,2,3
 1139 -548 1139 -548 616 -548 c 25,4,5
 313 -552 313 -552 184 -392 c 0,6,7
 45 -220 45 -220 103.260742188 92.9365234375 c 0,8,9
 118 172 118 172 149 252 c 4,10,11
 195 373 195 373 236.571289062 346 c 4,12,13
 257.066358556 332.609975105 257.066358556 332.609975105 223.022460938 218 c 4,14,15
 155 -11 155 -11 230 -173 c 0,16,17
 322 -369 322 -369 628 -367 c 24,18,19
 1074 -364 1074 -364 1106.25683594 -18.41796875 c 1,20,21
 1064 176 1064 176 994 317.326171875 c 1,22,-1
 1127.33300781 464.58203125 l 1,23,24
 1167 266 1167 266 1222.2265625 221.198242188 c 24,25,26
 1280 174 1280 174 1352 180 c 1,27,28
 1694 679 1694 679 1928 673.5 c 0,29,30
 2105 670 2105 670 2182.69433594 518.161132812 c 0,31,32
 2234 417 2234 417 2218.79882812 273.4453125 c 24,33,34
 2200 104 2200 104 2040.49804688 32.6181640625 c 0,35,36
 1922.2755816 -19.8776300679 1922.2755816 -19.8776300679 1709.3125 -19.884765625 c 2,37,-1
 1447 -19.8935546875 l 2,38,39
 1293 -20 1293 -20 1225.01855469 64.6796875 c 1,0,1
1439.27539062 170.306640625 m 1,40,-1
 1642.42480469 170.306640625 l 2,41,42
 1978.01288947 170.00360041 1978.01288947 170.00360041 2067.5 195 c 128,-1,43
 2157 220 2157 220 2112 353.5 c 128,-1,44
 2067 487 2067 487 1922.26171875 503.06640625 c 0,45,46
 1801 517 1801 517 1622.39355469 367.737304688 c 0,47,48
 1524 286 1524 286 1439.27539062 170.306640625 c 1,40,-1
EndSplineSet
Substitution2: "'fina' Terminal Forms in Arabic lookup 9 subtable" uniFEBA
Substitution2: "'medi' Medial Forms in Arabic lookup 11 subtable" uniFEBC
Substitution2: "'init' Initial Forms in Arabic lookup 13 subtable" uniFEBB
EndChar

StartChar: uni0637
Encoding: 1591 1591 28
Width: 1332
VWidth: 2483
GlyphClass: 2
Flags: W
AnchorPoint: "Anchor-10" 427.655 1574.94 basechar 0
AnchorPoint: "Anchor-7" 507.85 -259.665 basechar 0
LayerCount: 2
Fore
SplineSet
461.275390625 170.306640625 m 1,0,-1
 664.424804688 170.306640625 l 2,1,2
 1001 170 1001 170 1090 195 c 128,-1,3
 1179 220 1179 220 1134 353.5 c 128,-1,4
 1089 487 1089 487 944.26171875 503.06640625 c 0,5,6
 823 517 823 517 644.393554688 367.737304688 c 0,7,8
 546 286 546 286 461.275390625 170.306640625 c 1,0,-1
1062.49804688 32.6181640625 m 0,9,10
 944 -19 944 -19 731.3125 -19 c 2,11,-1
 231 -19 l 17,12,13
 134 55 134 55 91.337890625 169.538085938 c 1,14,-1
 324.740234375 169.5390625 l 1,15,16
 369 224 369 224 413 279 c 5,17,18
 413.459911894 282.21938326 413.459911894 282.21938326 404 812.5 c 4,19,20
 395 1317 395 1317 372 1406 c 5,21,-1
 512.360351562 1495.07519531 l 5,22,-1
 511.658203125 383.359375 l 5,23,24
 773 677 773 677 950 673.5 c 128,-1,25
 1127 670 1127 670 1204.69433594 518.161132812 c 0,26,27
 1256 417 1256 417 1240.79882812 273.4453125 c 24,28,29
 1222 102 1222 102 1062.49804688 32.6181640625 c 0,9,10
EndSplineSet
Substitution2: "'fina' Terminal Forms in Arabic lookup 9 subtable" uniFEC2
Substitution2: "'medi' Medial Forms in Arabic lookup 11 subtable" uniFEC4
Substitution2: "'init' Initial Forms in Arabic lookup 13 subtable" uniFEC3
EndChar

StartChar: uni0639
Encoding: 1593 1593 30
Width: 1181
VWidth: 2479
GlyphClass: 2
Flags: W
AnchorPoint: "Anchor-10" 637.499 1320.97 basechar 0
AnchorPoint: "Anchor-7" 276.088 -799.68 basechar 0
LayerCount: 2
Fore
SplineSet
490 433 m 1,0,1
 331 490 331 490 320.822265625 631.23828125 c 0,2,3
 311 768 311 768 420.827148438 885.844726562 c 0,4,5
 493 964 493 964 584.036132812 992.15234375 c 0,6,7
 642 1010 642 1010 710.827148438 996.844726562 c 0,8,9
 909 957 909 957 944.827148438 736.844726562 c 1,10,11
 864 792 864 792 780.036132812 817.081054688 c 0,12,13
 645 857 645 857 526.036132812 803.353515625 c 0,14,15
 401 747 401 747 406.827148438 662.844726562 c 0,16,17
 411 603 411 603 508 537 c 0,18,19
 560 502 560 502 605.036132812 494.15234375 c 0,20,21
 610.575325521 493.082055983 610.575325521 493.082055983 807.419921875 517.552734375 c 6,22,-1
 1002.82714844 541.844726562 l 1,23,-1
 958 367 l 1,24,25
 646 367 646 367 480 282 c 0,26,27
 304 191 304 191 242 80.5 c 0,28,29
 181 -29 181 -29 181 -124.5 c 128,-1,30
 181 -220 181 -220 231 -288 c 0,31,32
 357 -460 357 -460 732.414954371 -460.317196227 c 0,33,34
 986 -460 986 -460 1090 -396 c 1,35,36
 963 -638 963 -638 673.153320312 -638.310546875 c 0,37,38
 365 -638 365 -638 223.265625 -501.655273438 c 0,39,40
 88 -371 88 -371 88 -168.5 c 0,41,42
 88 0 88 0 143.5 111 c 0,43,44
 252 328 252 328 490 433 c 1,0,1
EndSplineSet
Substitution2: "'fina' Terminal Forms in Arabic lookup 9 subtable" uniFECA
Substitution2: "'medi' Medial Forms in Arabic lookup 11 subtable" uniFECC
Substitution2: "'init' Initial Forms in Arabic lookup 13 subtable" uniFECB
EndChar

StartChar: afii57440
Encoding: 1600 1600 32
Width: 721
VWidth: 2500
GlyphClass: 2
Flags: W
AnchorPoint: "Anchor-10" 350.532 1457.35 basechar 0
AnchorPoint: "Anchor-7" 350.532 -152.768 basechar 0
LayerCount: 2
Fore
SplineSet
-13.783203125 -19 m 1,0,-1
 -13.783203125 169 l 1,1,-1
 735.595703125 169 l 1,2,-1
 735.595703125 -19 l 5,3,-1
 -13.783203125 -19 l 1,0,-1
EndSplineSet
EndChar

StartChar: uni0643
Encoding: 1603 1603 35
Width: 1790
VWidth: 2457
GlyphClass: 2
Flags: W
AnchorPoint: "Anchor-10" 488.766 1369.78 basechar 0
AnchorPoint: "Anchor-7" 554.937 -249.796 basechar 0
LayerCount: 2
Fore
SplineSet
179 434 m 4,0,1
 186.00347618 190.077175473 186.00347618 190.077175473 552.961914062 173.509765625 c 0,2,3
 675 168 675 168 887 170 c 152,-1,4
 1099 172 1099 172 1169.86621094 183.932617188 c 0,5,6
 1524 244 1524 244 1538.71679688 428.803710938 c 24,7,8
 1548 549 1548 549 1529.5 971.5 c 0,9,10
 1517 1253 1517 1253 1499.67089844 1369.84570312 c 1,11,-1
 1659.93457031 1484.19824219 l 1,12,-1
 1659.93457031 471.728515625 l 1,13,14
 1654 345 1654 345 1623 281 c 0,15,16
 1575 181 1575 181 1504 131 c 0,17,18
 1354 25 1354 25 1179.62109375 4.47900390625 c 0,19,20
 1000 -17 1000 -17 777.559570312 -18.8544921875 c 24,21,22
 403 -22 403 -22 282.805664062 41.0048828125 c 0,23,24
 92 140 92 140 96 383 c 8,25,26
 98 505 98 505 124.712890625 587 c 0,27,28
 153 675 153 675 189 661 c 0,29,30
 202 656 202 656 202 639 c 0,31,32
 202 627 202 627 188.323242188 559 c 0,33,34
 177 499 177 499 179 434 c 4,0,1
615.793945312 736.935546875 m 1,35,36
 689 727 689 727 756.052734375 727.401367188 c 0,37,38
 823 727 823 727 878.55078125 749.248046875 c 0,39,40
 975 786 975 786 974.977539062 847.876953125 c 0,41,42
 975 917 975 917 863.2421875 934.5234375 c 0,43,44
 723 956 723 956 726.017578125 1085.21582031 c 0,45,46
 728 1174 728 1174 815.842773438 1218.60058594 c 0,47,48
 931 1277 931 1277 1066.11328125 1285.80566406 c 1,49,-1
 1031.27539062 1207.51171875 l 1,50,51
 886 1196 886 1196 821.060546875 1139.96777344 c 0,52,53
 793 1116 793 1116 793.470703125 1082.04785156 c 0,54,55
 793 1001 793 1001 888.647460938 987.006835938 c 0,56,57
 984 973 984 973 1012.91601562 946.430664062 c 128,-1,58
 1042 920 1042 920 1042.0078125 885.044921875 c 0,59,60
 1042 805 1042 805 1004.35058594 757.015625 c 0,61,62
 924 655 924 655 748 655 c 0,63,64
 680 655 680 655 615.793945312 665.458984375 c 1,65,-1
 615.793945312 736.935546875 l 1,35,36
EndSplineSet
Substitution2: "'fina' Terminal Forms in Arabic lookup 9 subtable" uniFEDA
Substitution2: "'medi' Medial Forms in Arabic lookup 11 subtable" uniFEDC
Substitution2: "'init' Initial Forms in Arabic lookup 13 subtable" uniFEDB
EndChar

StartChar: uni0644
Encoding: 1604 1604 36
Width: 1260
VWidth: 2483
GlyphClass: 2
Flags: W
AnchorPoint: "Anchor-10" 410.464 1032.96 basechar 0
AnchorPoint: "Anchor-7" 264.052 -700.785 basechar 0
LayerCount: 2
Fore
SplineSet
627 -367 m 24,0,1
 985 -358 985 -358 1015.25683594 -18.41796875 c 0,2,3
 1031 159 1031 159 1016 937 c 0,4,5
 1010 1249 1010 1249 988 1406 c 1,6,-1
 1129.50488281 1493.51660156 l 1,7,-1
 1129.50488281 407.482421875 l 2,8,9
 1129 154 1129 154 1129 153 c 0,10,11
 1129 66 1129 66 1120 -14 c 24,12,13
 1060 -542 1060 -542 615 -548 c 0,14,15
 308 -552 308 -552 183 -392 c 0,16,17
 49 -221 49 -221 102.260742188 92.9365234375 c 0,18,19
 114 162 114 162 149 255 c 0,20,21
 195 376 195 376 236.571289062 349 c 0,22,23
 259 334 259 334 223.022460938 221 c 0,24,25
 151 -8 151 -8 229 -173 c 0,26,27
 324 -375 324 -375 627 -367 c 24,0,1
EndSplineSet
Substitution2: "'fina' Terminal Forms in Arabic lookup 9 subtable" uniFEDE
Substitution2: "'medi' Medial Forms in Arabic lookup 11 subtable" uniFEE0
Substitution2: "'init' Initial Forms in Arabic lookup 13 subtable" uniFEDF
EndChar

StartChar: uni0645
Encoding: 1605 1605 37
Width: 996
VWidth: 2502
GlyphClass: 2
Flags: W
AnchorPoint: "Anchor-10" 507.276 1092.79 basechar 0
AnchorPoint: "Anchor-7" 224.744 -724.412 basechar 0
LayerCount: 2
Fore
SplineSet
793 310 m 0,0,1
 846 312 846 312 819 374 c 0,2,3
 777 468 777 468 682 538 c 0,4,5
 560 628 560 628 478 521 c 0,6,7
 432 461 432 461 414 324 c 1,8,9
 588 302 588 302 793 310 c 0,0,1
868 185 m 0,10,11
 823 136 823 136 655.836914062 144.21484375 c 0,12,13
 561 149 561 149 406.112304688 159.987304688 c 0,14,15
 228 172 228 172 202 92 c 0,16,17
 169.917423612 -6.25289018679 169.917423612 -6.25289018679 201.295898438 -137.41015625 c 2,18,-1
 289 -504 l 1,19,-1
 185 -607.329632945 l 2,20,21
 147.193359375 -644.892578125 147.193359375 -644.892578125 141.358393634 -589 c 2,22,-1
 91.1708984375 -108.258789062 l 2,23,24
 76 38 76 38 109 131 c 0,25,26
 166 289 166 289 301.055664062 310.100585938 c 1,27,28
 327 571 327 571 468 689 c 0,29,30
 562 768 562 768 667 726 c 0,31,32
 871 647 871 647 905.576171875 361.1484375 c 0,33,34
 920 243 920 243 868 185 c 0,10,11
EndSplineSet
Substitution2: "'init' Initial Forms in Arabic lookup 13 subtable" uniFEE3
Substitution2: "'medi' Medial Forms in Arabic lookup 11 subtable" uniFEE4
Substitution2: "'fina' Terminal Forms in Arabic lookup 9 subtable" uniFEE2
EndChar

StartChar: uni0647
Encoding: 1607 1607 39
Width: 754
VWidth: 2478
GlyphClass: 2
Flags: W
AnchorPoint: "Anchor-10" 347.765 1026.56 basechar 0
AnchorPoint: "Anchor-7" 341.562 -234.046 basechar 0
LayerCount: 2
Fore
SplineSet
377 554 m 1,0,1
 198.211456148 351.783991781 198.211456148 351.783991781 198.211456148 277.298871892 c 128,-1,2
 198.211456148 202.813752003 198.211456148 202.813752003 296.345703125 170.94921875 c 0,3,4
 348.638606873 153.972691243 348.638606873 153.972691243 398.177981975 153.972691243 c 128,-1,5
 447.717357077 153.972691243 447.717357077 153.972691243 494 173 c 0,6,7
 562.343403119 201.056765491 562.343403119 201.056765491 562.343403119 263.842449893 c 0,8,9
 562.343403119 288.331319376 562.343403119 288.331319376 551.946289062 318.103515625 c 0,10,11
 505 454 505 454 377 554 c 1,0,1
125.36328125 102.5625 m 0,12,13
 91.4272076901 160.657356752 91.4272076901 160.657356752 91.4272076901 235.772652772 c 128,-1,14
 91.4272076901 310.887948792 91.4272076901 310.887948792 156.713603845 424.943974396 c 128,-1,15
 222 539 222 539 304 634 c 1,16,-1
 268 661 l 1,17,-1
 350.547851562 810.465820312 l 1,18,19
 537 646 537 646 599.583333333 501.083333333 c 128,-1,20
 662.166666667 356.166666667 662.166666667 356.166666667 662.166666667 257.243055556 c 0,21,22
 662.166666667 118.75 662.166666667 118.75 556 33 c 0,23,24
 493.318030985 -17.5499750125 493.318030985 -17.5499750125 383.253593655 -17.5499750125 c 0,25,26
 194.587971639 -17.5499750125 194.587971639 -17.5499750125 125.36328125 102.5625 c 0,12,13
EndSplineSet
Substitution2: "'fina' Terminal Forms in Arabic lookup 9 subtable" uniFEEA
Substitution2: "'medi' Medial Forms in Arabic lookup 11 subtable" uniFEEC
Substitution2: "'init' Initial Forms in Arabic lookup 13 subtable" uniFEEB
EndChar

StartChar: uni0648
Encoding: 1608 1608 40
Width: 768
VWidth: 2501
GlyphClass: 2
Flags: W
AnchorPoint: "Anchor-10" 358.355 1012.56 basechar 0
AnchorPoint: "Anchor-7" 260.725 -748.915 basechar 0
LayerCount: 2
Fore
SplineSet
381.764648438 424.666015625 m 4,0,1
 269 422 269 422 240.57421875 274.483398438 c 4,2,3
 225 195 225 195 300.463867188 164.397460938 c 4,4,5
 405 122 405 122 569.384765625 172.18359375 c 5,6,7
 572 247 572 247 536 326.326171875 c 4,8,9
 491 427 491 427 381.764648438 424.666015625 c 4,0,1
496.329101562 589.534179688 m 4,10,11
 593 538 593 538 645 383 c 4,12,13
 662 331 662 331 674 231.5 c 4,14,15
 689 104 689 104 665 -25 c 4,16,17
 610 -316 610 -316 423.130859375 -492 c 0,18,19
 385 -528 385 -528 330 -527.680664062 c 0,20,21
 138 -528 138 -528 28 -478 c 0,22,23
 8 -469 8 -469 21.5 -459.5 c 128,-1,24
 35 -450 35 -450 63.095703125 -439.788085938 c 0,25,26
 473 -289 473 -289 568 -8.30859375 c 5,27,28
 465 -42 465 -42 357 -29.5 c 132,-1,29
 249 -17 249 -17 191.5 64 c 132,-1,30
 134 145 134 145 146.798828125 269.47265625 c 4,31,32
 167 461 167 461 276.100585938 567.75 c 4,33,34
 335 625 335 625 421.21484375 615.663085938 c 4,35,36
 456 612 456 612 496.329101562 589.534179688 c 4,10,11
EndSplineSet
Substitution2: "'fina' Terminal Forms in Arabic lookup 9 subtable" uniFEEE
EndChar

StartChar: uni0649
Encoding: 1609 1609 41
Width: 1310
VWidth: 2497
GlyphClass: 2
Flags: W
AnchorPoint: "Anchor-10" 425.337 965.22 basechar 0
AnchorPoint: "Anchor-7" 220.703 -576.382 basechar 0
LayerCount: 2
Fore
SplineSet
1219 497 m 0,0,1
 1222 473 1222 473 1214 460 c 0,2,3
 1207 449 1207 449 1195 453 c 0,4,-1
 1156.265625 465.405273438 l 24,5,6
 985 520 985 520 884 395 c 0,7,8
 826 323 826 323 819.462890625 239.567382812 c 0,9,10
 813.976158163 166.683292271 813.976158163 166.683292271 998.697265625 167.94921875 c 2,11,-1
 1021.21191406 168.103515625 l 2,12,13
 1098.05376437 168.945783999 1098.05376437 168.945783999 1152.98828125 157.446289062 c 0,14,15
 1222 143 1222 143 1219 14 c 24,16,17
 1215 -140 1215 -140 1076 -270 c 0,18,19
 896 -437 896 -437 594 -437 c 0,20,21
 89 -438 89 -438 92 -14 c 0,22,23
 92.9181208054 120.045637584 92.9181208054 120.045637584 146 265 c 0,24,25
 198 407 198 407 261.08203125 497.017578125 c 0,26,27
 276.52129303 521.138873106 276.52129303 521.138873106 297.890625 508 c 0,28,29
 316.832467739 496.696709228 316.832467739 496.696709228 303 466 c 0,30,31
 229 303 229 303 205.959960938 116.20703125 c 0,32,33
 195 27 195 27 224 -54 c 0,34,35
 300 -266 300 -266 640 -252 c 0,36,37
 736 -248 736 -248 768 -244 c 0,38,39
 1083 -201 1083 -201 1131 -34 c 0,40,41
 1144 11 1144 11 1082.65527344 14.3564453125 c 0,42,43
 1073 15 1073 15 1062.61132812 16.2001953125 c 1,44,-1
 952.228515625 16.4931640625 l 2,45,46
 828 17 828 17 780 56 c 0,47,48
 687 132 687 132 747.615234375 339.008789062 c 0,49,50
 795 498 795 498 879 571.092773438 c 0,51,52
 956 639 956 639 1036 648 c 0,53,54
 1198 665 1198 665 1219 497 c 0,0,1
EndSplineSet
Substitution2: "'fina' Terminal Forms in Arabic lookup 9 subtable" uniFEF0
Substitution2: "'medi' Medial Forms in Arabic lookup 11 subtable" uniFBE9
Substitution2: "'init' Initial Forms in Arabic lookup 13 subtable" uniFBE8
EndChar

StartChar: uni064B
Encoding: 1611 1611 43
Width: -21
VWidth: 1843
GlyphClass: 4
Flags: W
AnchorPoint: "Anchor-10" 487.615 889.456 mark 0
AnchorPoint: "Anchor-9" 487.615 889.456 mark 0
AnchorPoint: "Anchor-1" 455.615 1328.62 basemark 0
AnchorPoint: "Anchor-1" 487.615 889.456 mark 0
LayerCount: 2
Fore
SplineSet
241.612304688 846.409179688 m 1,0,-1
 241.612304688 938.201171875 l 1,1,-1
 644.543945312 1102.96289062 l 1,2,-1
 644.543945312 1011.16992188 l 1,3,-1
 241.612304688 846.409179688 l 1,0,-1
241.612304688 1065.21289062 m 1,4,-1
 241.612304688 1157.00390625 l 1,5,-1
 644.543945312 1321.765625 l 1,6,-1
 644.543945312 1229.97363281 l 1,7,-1
 241.612304688 1065.21289062 l 1,4,-1
EndSplineSet
EndChar

StartChar: uni064C
Encoding: 1612 1612 44
Width: -21
VWidth: 1843
GlyphClass: 4
Flags: W
AnchorPoint: "Anchor-10" 541.146 972.912 mark 0
AnchorPoint: "Anchor-9" 541.146 972.912 mark 0
AnchorPoint: "Anchor-1" 454.387 1526.68 basemark 0
AnchorPoint: "Anchor-1" 541.146 972.912 mark 0
LayerCount: 2
Fore
SplineSet
522.124023438 1386.29101562 m 0,0,1
 455.571289062 1386.29101562 455.571289062 1386.29101562 455.571289062 1326.91210938 c 0,2,3
 455.571289062 1283.86523438 455.571289062 1283.86523438 505.1640625 1264.02832031 c 0,4,5
 523.676757812 1256.62402344 523.676757812 1256.62402344 560.025390625 1245.42871094 c 1,6,-1
 570.47265625 1269.80273438 l 2,7,8
 579.752929688 1291.45800781 579.752929688 1291.45800781 579.752929688 1322.47753906 c 128,-1,9
 579.752929688 1353.49707031 579.752929688 1353.49707031 559.83984375 1369.89453125 c 128,-1,10
 539.92578125 1386.29101562 539.92578125 1386.29101562 522.124023438 1386.29101562 c 0,0,1
269.788085938 1109.39160156 m 0,11,12
 305.247070312 1033.41308594 305.247070312 1033.41308594 359.63671875 1033.41308594 c 128,-1,13
 414.025390625 1033.41308594 414.025390625 1033.41308594 474.21484375 1091.66210938 c 0,14,15
 509.388671875 1125.88574219 509.388671875 1125.88574219 529.4453125 1166 c 2,16,-1
 537.647460938 1182.40820312 l 1,17,-1
 519.700195312 1186.21582031 l 2,18,19
 445.576171875 1201.92773438 445.576171875 1201.92773438 405.114257812 1257.77148438 c 0,20,21
 382.6953125 1288.71289062 382.6953125 1288.71289062 382.6953125 1312.94238281 c 128,-1,22
 382.6953125 1337.17089844 382.6953125 1337.17089844 383.84765625 1346.81542969 c 0,23,24
 388.455078125 1385.38378906 388.455078125 1385.38378906 417.099609375 1421.37207031 c 128,-1,25
 445.744140625 1457.359375 445.744140625 1457.359375 509.552734375 1457.359375 c 128,-1,26
 573.361328125 1457.359375 573.361328125 1457.359375 612.091796875 1419.44433594 c 128,-1,27
 650.822265625 1381.52929688 650.822265625 1381.52929688 650.822265625 1316.06445312 c 0,28,29
 650.822265625 1282.99414062 650.822265625 1282.99414062 640.6328125 1250.72851562 c 2,30,-1
 635.115234375 1233.26074219 l 1,31,-1
 653.412109375 1232.30078125 l 2,32,33
 672.018554688 1231.31738281 672.018554688 1231.31738281 704.154296875 1230.6171875 c 1,34,-1
 704.154296875 1159.4609375 l 1,35,36
 673.32421875 1159.72265625 673.32421875 1159.72265625 659.130859375 1161.14648438 c 2,37,-1
 601.794921875 1166.65820312 l 1,38,39
 575.193359375 1104.31445312 575.193359375 1104.31445312 524.059570312 1051.65039062 c 128,-1,40
 472.924804688 998.986328125 472.924804688 998.986328125 435.029296875 980.666015625 c 128,-1,41
 397.134765625 962.345703125 397.134765625 962.345703125 357.666015625 962.345703125 c 0,42,43
 264.548828125 962.345703125 264.548828125 962.345703125 217.31640625 1092.24511719 c 0,44,45
 205.642578125 1124.14648438 205.642578125 1124.14648438 204.690429688 1212.39257812 c 1,46,-1
 257.685546875 1212.39257812 l 1,47,48
 258.626953125 1133.57421875 258.626953125 1133.57421875 269.788085938 1109.39160156 c 0,11,12
683.59375 1231.37597656 m 2,49,-1
 683.510742188 1231.38085938 l 2,50,51
 683.552734375 1231.37792969 683.552734375 1231.37792969 683.59375 1231.37597656 c 2,49,-1
EndSplineSet
EndChar

StartChar: uni064D
Encoding: 1613 1613 45
Width: -21
VWidth: 1843
GlyphClass: 4
Flags: W
AnchorPoint: "Anchor-7" 442.099 60.582 mark 0
AnchorPoint: "Anchor-6" 442.099 60.582 mark 0
AnchorPoint: "Anchor-0" 508.415 -374.489 basemark 0
AnchorPoint: "Anchor-0" 442.099 60.582 mark 0
LayerCount: 2
Fore
SplineSet
245.836914062 -412.342773438 m 1,0,-1
 245.836914062 -320.55078125 l 1,1,-1
 648.767578125 -155.790039062 l 1,2,-1
 648.767578125 -247.581054688 l 1,3,-1
 245.836914062 -412.342773438 l 1,0,-1
245.836914062 -193.540039062 m 1,4,-1
 245.836914062 -101.748046875 l 1,5,-1
 648.767578125 63.013671875 l 1,6,-1
 648.767578125 -28.7783203125 l 1,7,-1
 245.836914062 -193.540039062 l 1,4,-1
EndSplineSet
EndChar

StartChar: uni064E
Encoding: 1614 1614 46
Width: -21
VWidth: 1843
GlyphClass: 4
Flags: W
AnchorPoint: "Anchor-10" 462.271 1088.92 mark 0
AnchorPoint: "Anchor-9" 462.271 1088.92 mark 0
AnchorPoint: "Anchor-1" 430.271 1348.9 basemark 0
AnchorPoint: "Anchor-1" 462.271 1088.92 mark 0
LayerCount: 2
Fore
SplineSet
217.11328125 1064.3671875 m 1,0,-1
 217.11328125 1156.15917969 l 1,1,-1
 620.044921875 1320.92089844 l 1,2,-1
 620.044921875 1229.12890625 l 1,3,-1
 217.11328125 1064.3671875 l 1,0,-1
EndSplineSet
EndChar

StartChar: uni064F
Encoding: 1615 1615 47
Width: -21
VWidth: 1843
GlyphClass: 4
Flags: W
AnchorPoint: "Anchor-10" 492.498 1024.81 mark 0
AnchorPoint: "Anchor-9" 492.498 1024.81 mark 0
AnchorPoint: "Anchor-1" 437.215 1538.56 basemark 0
AnchorPoint: "Anchor-1" 492.498 1024.81 mark 0
LayerCount: 2
Fore
SplineSet
658.181640625 1171.37988281 m 1,0,1
 612.799804688 1172 612.799804688 1172 552.587890625 1178.41601562 c 1,2,3
 510.400390625 1119.20019531 510.400390625 1119.20019531 450.702148438 1082.39941406 c 0,4,5
 356 1023.20019531 356 1023.20019531 248.799804688 1019.20019531 c 1,6,-1
 248.799804688 1090.19335938 l 1,7,8
 353.599609375 1093.59960938 353.599609375 1093.59960938 416.251953125 1145.92773438 c 0,9,10
 444 1168.79980469 444 1168.79980469 455.759765625 1181.67578125 c 2,11,-1
 473.024414062 1199.86035156 l 1,12,-1
 448.551757812 1205.29296875 l 2,13,14
 443.200195312 1206.40039062 443.200195312 1206.40039062 411.861328125 1222.51464844 c 0,15,16
 381.599609375 1238.40039062 381.599609375 1238.40039062 359.088867188 1269.25585938 c 0,17,18
 336.799804688 1300 336.799804688 1300 336.723632812 1337.42578125 c 0,19,20
 336.799804688 1410.40039062 336.799804688 1410.40039062 393.420898438 1453.09179688 c 0,21,22
 415.200195312 1469.59960938 415.200195312 1469.59960938 471.169921875 1469.23730469 c 0,23,24
 527.200195312 1469.59960938 527.200195312 1469.59960938 566.120117188 1431.32226562 c 0,25,26
 604.799804688 1393.59960938 604.799804688 1393.59960938 604.849609375 1327.94335938 c 0,27,28
 604.799804688 1301.00097656 604.799804688 1301.00097656 592.834960938 1262.55175781 c 2,29,-1
 587.451171875 1245.24902344 l 1,30,-1
 605.544921875 1244.1796875 l 2,31,32
 636 1242.40039062 636 1242.40039062 658.181640625 1242.42285156 c 1,33,-1
 658.181640625 1171.37988281 l 1,0,1
514.053710938 1257.30761719 m 1,34,-1
 524.500976562 1281.6796875 l 2,35,36
 533.782226562 1303.33886719 533.782226562 1303.33886719 533.782226562 1334.35742188 c 128,-1,37
 533.782226562 1365.375 533.782226562 1365.375 513.865234375 1381.77246094 c 128,-1,38
 493.948242188 1398.16992188 493.948242188 1398.16992188 469.811523438 1398.16992188 c 128,-1,39
 445.674804688 1398.16992188 445.674804688 1398.16992188 427.637695312 1384.4296875 c 128,-1,40
 409.599609375 1370.68945312 409.599609375 1370.68945312 409.599609375 1333.21679688 c 128,-1,41
 409.599609375 1295.74414062 409.599609375 1295.74414062 459.192382812 1275.90527344 c 0,42,43
 477.728515625 1268.4921875 477.728515625 1268.4921875 514.053710938 1257.30761719 c 1,34,-1
EndSplineSet
EndChar

StartChar: uni0650
Encoding: 1616 1616 48
Width: -21
VWidth: 1843
GlyphClass: 4
Flags: W
AnchorPoint: "Anchor-7" 453.913 -12.96 mark 0
AnchorPoint: "Anchor-6" 453.913 -12.96 mark 0
AnchorPoint: "Anchor-0" 492.019 -261.556 basemark 0
AnchorPoint: "Anchor-0" 453.913 -12.96 mark 0
LayerCount: 2
Fore
SplineSet
254.28515625 -282.244140625 m 1,0,-1
 254.28515625 -190.451171875 l 1,1,-1
 657.215820312 -25.6904296875 l 1,2,-1
 657.215820312 -117.482421875 l 1,3,-1
 254.28515625 -282.244140625 l 1,0,-1
EndSplineSet
EndChar

StartChar: uni0651
Encoding: 1617 1617 49
Width: -21
VWidth: 1843
GlyphClass: 4
Flags: W
AnchorPoint: "Anchor-10" 487.615 1112.18 mark 0
AnchorPoint: "Anchor-9" 487.615 1112.18 mark 0
AnchorPoint: "Anchor-1" 463.077 1472.27 basemark 0
AnchorPoint: "Anchor-1" 487.615 1112.18 mark 0
LayerCount: 2
Fore
SplineSet
461.92578125 1225.53710938 m 1,0,1
 437.599609375 1093.59960938 437.599609375 1093.59960938 321.987304688 1093.50097656 c 0,2,3
 206.400390625 1093.59960938 206.400390625 1093.59960938 205.749023438 1242.31445312 c 0,4,5
 205.599609375 1272 205.599609375 1272 218.169921875 1354.91113281 c 1,6,-1
 278.260742188 1354.91113281 l 1,7,8
 268 1283.20019531 268 1283.20019531 268 1260.79980469 c 0,9,10
 268 1170.40039062 268 1170.40039062 331.959960938 1170.46191406 c 0,11,12
 420 1170.40039062 420 1170.40039062 424.484375 1285.96191406 c 0,13,14
 425.599609375 1317.59960938 425.599609375 1317.59960938 425.5 1355.29296875 c 0,15,16
 425.599609375 1392.79980469 425.599609375 1392.79980469 425.490234375 1399.96484375 c 1,17,-1
 484.8984375 1399.96484375 l 1,18,19
 486.400390625 1371.20019531 486.400390625 1371.20019531 486.629882812 1332.79296875 c 0,20,21
 486.400390625 1220.16308594 486.400390625 1220.16308594 584.364257812 1220.32519531 c 2,22,-1
 584.869140625 1220.32617188 l 2,23,24
 644 1220.79980469 644 1220.79980469 644.177734375 1315.59765625 c 0,25,26
 644.799804688 1400 644.799804688 1400 635.458984375 1449.86816406 c 1,27,-1
 699.154296875 1449.86816406 l 1,28,29
 708 1386.40039062 708 1386.40039062 708 1311.20019531 c 0,30,31
 708 1188.79980469 708 1188.79980469 640.5234375 1159.93359375 c 0,32,33
 614.400390625 1148.79980469 614.400390625 1148.79980469 588.799804688 1148 c 0,34,35
 532 1145.59960938 532 1145.59960938 502.400390625 1167.20019531 c 0,36,37
 466.400390625 1193.59960938 466.400390625 1193.59960938 461.92578125 1225.53710938 c 1,0,1
EndSplineSet
EndChar

StartChar: uni0652
Encoding: 1618 1618 50
Width: -27
VWidth: 2304
GlyphClass: 4
Flags: W
AnchorPoint: "Anchor-10" 588.527 1187.7 mark 0
AnchorPoint: "Anchor-9" 588.527 1187.7 mark 0
AnchorPoint: "Anchor-1" 573.743 1793.31 basemark 0
AnchorPoint: "Anchor-1" 588.527 1187.7 mark 0
LayerCount: 2
Fore
SplineSet
707.344726562 1457.10253906 m 0,0,1
 707.344726562 1505.78320312 707.344726562 1505.78320312 673.299804688 1539.828125 c 128,-1,2
 639.258789062 1573.87304688 639.258789062 1573.87304688 589.884765625 1573.87304688 c 0,3,4
 539.819335938 1573.87304688 539.819335938 1573.87304688 506.124023438 1540.17675781 c 128,-1,5
 472.427734375 1506.48046875 472.427734375 1506.48046875 472.427734375 1457.10253906 c 0,6,7
 472.427734375 1407.03808594 472.427734375 1407.03808594 506.124023438 1373.34277344 c 128,-1,8
 539.819335938 1339.64648438 539.819335938 1339.64648438 589.884765625 1339.64648438 c 0,9,10
 639.260742188 1339.64648438 639.260742188 1339.64648438 673.299804688 1373.69140625 c 128,-1,11
 707.344726562 1407.73535156 707.344726562 1407.73535156 707.344726562 1457.10253906 c 0,0,1
779.41796875 1457.21875 m 128,-1,13
 779.41796875 1377.71484375 779.41796875 1377.71484375 724.528320312 1322.47265625 c 128,-1,14
 669.673828125 1267.2734375 669.673828125 1267.2734375 590.212890625 1267.2734375 c 0,15,16
 563.655273438 1267.2734375 563.655273438 1267.2734375 539.920898438 1273.39550781 c 128,-1,17
 516.186523438 1279.51757812 516.186523438 1279.51757812 495.203125 1291.77636719 c 128,-1,18
 474.220703125 1304.03515625 474.220703125 1304.03515625 455.8984375 1322.47265625 c 0,19,20
 428.400390625 1350.14648438 428.400390625 1350.14648438 414.704101562 1383.76074219 c 128,-1,21
 401.006835938 1417.375 401.006835938 1417.375 401.006835938 1457.21875 c 0,22,23
 401.006835938 1536.6953125 401.006835938 1536.6953125 455.8671875 1591.56542969 c 128,-1,24
 510.7265625 1646.42480469 510.7265625 1646.42480469 590.212890625 1646.42480469 c 128,-1,25
 669.698242188 1646.42480469 669.698242188 1646.42480469 724.556640625 1591.56542969 c 128,-1,12
 779.41796875 1536.6953125 779.41796875 1536.6953125 779.41796875 1457.21875 c 128,-1,13
EndSplineSet
EndChar

StartChar: uni0653
Encoding: 1619 1619 51
Width: 0
VWidth: 2277
GlyphClass: 4
Flags: W
AnchorPoint: "Anchor-10" 460.554 1319.1 mark 0
AnchorPoint: "Anchor-9" 460.554 1319.1 mark 0
AnchorPoint: "Anchor-1" 460.554 1668.52 basemark 0
AnchorPoint: "Anchor-1" 460.554 1319.1 mark 0
LayerCount: 2
Fore
SplineSet
331 1391 m 0,0,1
 248 1397 248 1397 197 1346.42821754 c 0,2,3
 169 1318 169 1318 178.957527527 1361 c 0,4,5
 189 1402 189 1402 217 1434 c 0,6,7
 257 1477 257 1477 328 1479 c 0,8,9
 361 1480 361 1480 390.377929688 1476.99609375 c 0,10,11
 441 1471 441 1471 504 1472 c 0,12,13
 565.723881126 1472.84553262 565.723881126 1472.84553262 606 1480.12539391 c 0,14,15
 619.992115134 1482.65445233 619.992115134 1482.65445233 614 1473.07019213 c 0,16,17
 571.487360397 1405.07213294 571.487360397 1405.07213294 522 1392 c 0,18,19
 482 1381 482 1381 331 1391 c 0,0,1
EndSplineSet
EndChar

StartChar: uni0657
Encoding: 1623 1623 54
Width: -27
VWidth: 2304
GlyphClass: 4
Flags: W
AnchorPoint: "Anchor-10" 569.519 1347.15 mark 0
AnchorPoint: "Anchor-9" 569.519 1347.15 mark 0
AnchorPoint: "Anchor-1" 569.519 2081.6 basemark 0
AnchorPoint: "Anchor-1" 569.519 1347.15 mark 0
LayerCount: 2
Fore
SplineSet
659.133789062 1603.78173828 m 0,0,1
 659 1430 659 1430 491.074544274 1431.54492188 c 0,2,3
 421 1432 421 1432 372.388183594 1478.93945313 c 0,4,5
 324 1526 324 1526 323.975585938 1608.16308594 c 0,6,7
 323.99979061 1641.70979344 323.99979061 1641.70979344 338.994140625 1689.90234375 c 2,8,-1
 345.723632812 1711.53125 l 1,9,-1
 323.10546875 1712.8671875 l 2,10,11
 287 1715 287 1715 257.310546875 1715.06347656 c 1,12,-1
 257.310546875 1803.8671875 l 1,13,14
 314 1803 314 1803 389.303710938 1795.07324219 c 1,15,16
 442 1870 442 1870 516.661132812 1915.09375 c 0,17,18
 698 2026 698 2026 785 2030.74121094 c 5,19,-1
 785 1942 l 5,20,21
 692 1939 692 1939 559.72265625 1835.68164062 c 0,22,23
 533 1815 533 1815 510.338867188 1790.99804688 c 2,24,-1
 488.760742188 1768.28125 l 1,25,-1
 519.344726562 1761.47558594 l 2,26,27
 528 1760 528 1760 565.211425781 1739.94873047 c 0,28,29
 603 1720 603 1720 631.176757812 1681.52148438 c 0,30,31
 659 1643 659 1643 659.133789062 1603.78173828 c 0,0,1
480.167480469 1520.38085938 m 0,32,33
 568.038085938 1520.38085938 568.038085938 1520.38085938 568.038085938 1594.60449219 c 0,34,35
 568.038085938 1648.41148902 568.038085938 1648.41148902 506.048828125 1673.20996094 c 0,36,37
 482.976628637 1682.4430983 482.976628637 1682.4430983 437.471679688 1696.45898438 c 1,38,-1
 424.413085938 1665.99316406 l 2,39,40
 412.810546875 1638.92285156 412.810546875 1638.92285156 412.810546875 1600.15429688 c 128,-1,41
 412.810546875 1561.38574219 412.810546875 1561.38574219 437.703125 1540.88330078 c 128,-1,42
 462.595703125 1520.38085938 462.595703125 1520.38085938 480.167480469 1520.38085938 c 0,32,33
EndSplineSet
EndChar

StartChar: uni065A
Encoding: 1626 1626 55
Width: 1129
VWidth: 2304
GlyphClass: 4
Flags: W
AnchorPoint: "Anchor-10" 569.519 1347.15 mark 0
AnchorPoint: "Anchor-9" 569.519 1347.15 mark 0
AnchorPoint: "Anchor-1" 567.259 1855.62 basemark 0
AnchorPoint: "Anchor-1" 569.519 1347.15 mark 0
LayerCount: 2
Fore
SplineSet
495.958007812 1434.93457031 m 1,0,-1
 296.83203125 1767.83300781 l 1,1,-1
 413.142578125 1767.83300781 l 1,2,-1
 569.518554688 1533.26269531 l 1,3,-1
 725.89453125 1767.83300781 l 1,4,-1
 842.206054688 1767.83300781 l 1,5,-1
 643.077148438 1434.93457031 l 1,6,-1
 495.958007812 1434.93457031 l 1,0,-1
EndSplineSet
EndChar

StartChar: afii57392
Encoding: 1632 1632 56
Width: 740
VWidth: 2380
GlyphClass: 2
Flags: W
LayerCount: 2
Fore
SplineSet
300.474609375 583.505859375 m 128,-1,1
 272.366210938 555.393554688 272.366210938 555.393554688 272.366210938 516.181640625 c 128,-1,2
 272.366210938 476.969726562 272.366210938 476.969726562 300.474609375 448.859375 c 128,-1,3
 328.584960938 420.75 328.584960938 420.75 367.798828125 420.75 c 128,-1,4
 407.013671875 420.75 407.013671875 420.75 435.122070312 448.859375 c 128,-1,5
 463.232421875 476.969726562 463.232421875 476.969726562 463.232421875 516.182617188 c 128,-1,6
 463.232421875 555.393554688 463.232421875 555.393554688 435.122070312 583.505859375 c 128,-1,7
 407.012695312 611.616210938 407.012695312 611.616210938 367.798828125 611.616210938 c 128,-1,0
 328.586914062 611.616210938 328.586914062 611.616210938 300.474609375 583.505859375 c 128,-1,1
150.56640625 513.307617188 m 128,-1,9
 150.56640625 604.673828125 150.56640625 604.673828125 215.069335938 669.552734375 c 128,-1,10
 279.532226562 734.393554688 279.532226562 734.393554688 370.28515625 734.393554688 c 0,11,12
 486.817382812 734.393554688 486.817382812 734.393554688 553.694335938 635.471679688 c 0,13,14
 590.00390625 581.763671875 590.00390625 581.763671875 590.00390625 501.848632812 c 128,-1,15
 590.00390625 421.935546875 590.00390625 421.935546875 525.50390625 357.064453125 c 128,-1,16
 461.036132812 292.225585938 461.036132812 292.225585938 370.28515625 292.225585938 c 128,-1,17
 279.53125 292.225585938 279.53125 292.225585938 215.069335938 357.064453125 c 128,-1,8
 150.56640625 421.942382812 150.56640625 421.942382812 150.56640625 513.307617188 c 128,-1,9
EndSplineSet
EndChar

StartChar: afii57393
Encoding: 1633 1633 57
Width: 659
VWidth: 2378
GlyphClass: 2
Flags: W
LayerCount: 2
Fore
SplineSet
405.56764339 -6.56121748429 m 5,0,1
 362 783 362 783 161.521900302 1327.89349059 c 5,2,-1
 285.882003106 1480.1556211 l 5,3,4
 498 1034 498 1034 492 278 c 4,5,6
 491 150 491 150 453 62 c 4,7,8
 433 17 433 17 405.56764339 -6.56121748429 c 5,0,1
EndSplineSet
EndChar

StartChar: afii57394
Encoding: 1634 1634 58
Width: 1085
VWidth: 2229
GlyphClass: 2
Flags: W
LayerCount: 2
Fore
SplineSet
250.47265625 1483.45996094 m 1,0,1
 311 1337 311 1337 333.4140625 1300.5546875 c 0,2,3
 437 1139 437 1139 633.458007812 1150.765625 c 0,4,5
 813 1162 813 1162 861 1353 c 0,6,7
 866 1373 866 1373 883.0859375 1431.20703125 c 0,8,9
 896 1475 896 1475 935.801757812 1470.76171875 c 0,10,11
 972 1467 972 1467 965 1386.5 c 0,12,13
 955 1254 955 1254 932.5 1191 c 0,14,15
 856 985 856 985 639.155273438 972.94140625 c 0,16,17
 622 972 622 972 569.5 972 c 128,-1,18
 517 972 517 972 452.047851562 991.98828125 c 1,19,20
 543 721 543 721 543 445 c 4,21,22
 543 30 543 30 449.421875 -8.2861328125 c 1,23,24
 439 454 439 454 326.208984375 866.047851562 c 0,25,26
 289 1002 289 1002 120.204101562 1384.83398438 c 1,27,-1
 250.47265625 1483.45996094 l 1,0,1
EndSplineSet
EndChar

StartChar: afii57395
Encoding: 1635 1635 59
Width: 1271
VWidth: 2229
GlyphClass: 2
Flags: W
LayerCount: 2
Fore
SplineSet
449.120117188 990.103515625 m 1,0,1
 545 706 545 706 545 356.874023438 c 4,2,3
 545 22 545 22 445.381193744 -9.6952325978 c 1,4,5
 439 306 439 306 399.5 518.5 c 128,-1,6
 360 731 360 731 321.907663935 867.070845734 c 128,-1,7
 284 1003 284 1003 116.138196957 1384.9222611 c 1,8,-1
 246.405660708 1483.54490571 l 1,9,10
 271 1424 271 1424 321.243348629 1316.70244792 c 0,11,12
 401 1145 401 1145 563.844726562 1158.1640625 c 0,13,14
 608 1162 608 1162 642.716796875 1210.58203125 c 0,15,16
 684 1269 684 1269 706.340820312 1397.44628906 c 0,17,18
 716 1455 716 1455 745.375 1456.60449219 c 0,19,20
 780 1458 780 1458 780.530273438 1416.84667969 c 0,21,22
 783 1307 783 1307 802 1259 c 0,23,24
 842 1157 842 1157 938.212890625 1157.83789062 c 0,25,26
 1056 1159 1056 1159 1074.359375 1416.33496094 c 0,27,28
 1078 1465 1078 1465 1122.38769531 1465.7578125 c 0,29,30
 1130 1466 1130 1466 1138.44628906 1463.63476562 c 0,31,32
 1161 1458 1161 1458 1160.13867188 1403.90722656 c 0,33,34
 1159 1314 1159 1314 1140 1214 c 0,35,36
 1094 982 1094 982 937.130859375 981.616210938 c 0,37,38
 811 982 811 982 739.125976562 1118.14257812 c 1,39,40
 675 971 675 971 549.5546875 970.193359375 c 0,41,42
 488 970 488 970 449.120117188 990.103515625 c 1,0,1
EndSplineSet
EndChar

StartChar: afii57396
Encoding: 1636 1636 60
Width: 1009
VWidth: 2375
GlyphClass: 2
Flags: W
LayerCount: 2
Fore
SplineSet
437.021484375 754.336914062 m 1,0,1
 215 866 215 866 162.487304688 938.150390625 c 1,2,3
 213 1288 213 1288 619.27734375 1452.51171875 c 1,4,5
 644 1412 644 1412 650 1289 c 1,6,7
 338 1115 338 1115 272 983 c 1,8,9
 437 902 437 902 713.844726562 854.852539062 c 1,10,11
 708 793 708 793 704.033203125 733.958984375 c 1,12,13
 409 568 409 568 266 323 c 5,14,15
 425 246 425 246 829.491210938 288.375976562 c 1,16,-1
 858.647460938 70.2412109375 l 1,17,18
 400 37 400 37 150.05859375 232.245117188 c 1,19,20
 172 539 172 539 437.021484375 754.336914062 c 1,0,1
EndSplineSet
EndChar

StartChar: afii57397
Encoding: 1637 1637 61
Width: 1109
VWidth: 2377
GlyphClass: 2
Flags: W
LayerCount: 2
Fore
SplineSet
222.073242188 497.108398438 m 0,0,1
 214 368 214 368 312.720703125 298.98828125 c 0,2,3
 413 229 413 229 595.443359375 240.646484375 c 0,4,5
 757 251 757 251 823.5546875 353.631835938 c 0,6,7
 932.920898438 521.802734375 932.920898438 521.802734375 702 843.118164062 c 0,8,9
 618 960 618 960 522.09765625 1044.29296875 c 1,10,11
 382 905 382 905 307.583984375 768.287109375 c 0,12,13
 230 626 230 626 222.073242188 497.108398438 c 0,0,1
462 1311 m 1,14,15
 682 1137 682 1137 832 925 c 0,16,17
 987.001953125 703.962890625 987.001953125 703.962890625 998.104492188 515.028320312 c 0,18,19
 1010 310 1010 310 900.405273438 185.100585938 c 0,20,21
 774 42 774 42 557.5546875 42.35546875 c 0,22,23
 319 43 319 43 204.345703125 178.813476562 c 0,24,25
 90 315 90 315 110.25 504.392578125 c 0,26,27
 131 694 131 694 222.708984375 846.424804688 c 0,28,29
 314 999 314 999 432.396484375 1121.13183594 c 1,30,-1
 380.862304688 1169.75097656 l 1,31,-1
 462 1311 l 1,14,15
EndSplineSet
EndChar

StartChar: afii57398
Encoding: 1638 1638 62
Width: 1283
VWidth: 2377
GlyphClass: 2
Flags: W
LayerCount: 2
Fore
SplineSet
110.560546875 1376.94042969 m 1,0,1
 506 1277 506 1277 952.349609375 1378.11621094 c 1,2,3
 978 190 978 190 1130 199 c 1,4,5
 1142.64108581 -9.69708312979 l 1,6,7
 962 -5 962 -5 905 288 c 0,8,9
 829 674 829 674 821.93359375 1181.43945312 c 1,10,-1
 786.154296875 1171.00585938 l 2,11,12
 683 1141 683 1141 531.815429688 1141.31445312 c 0,13,14
 387 1141 387 1141 288.13671875 1155.50390625 c 0,15,16
 189 1170 189 1170 149.736328125 1209.24707031 c 0,17,18
 110.560546875 1249.45098619 110.560546875 1249.45098619 110.560546875 1331.19824219 c 2,19,-1
 110.560546875 1376.94042969 l 1,0,1
EndSplineSet
EndChar

StartChar: afii57399
Encoding: 1639 1639 63
Width: 1115
VWidth: 2378
GlyphClass: 2
Flags: W
LayerCount: 2
Fore
SplineSet
916.747070312 1433.8125 m 1,0,-1
 1004.50878906 1266.93261719 l 1,1,2
 810.244140625 947.2734375 810.244140625 947.2734375 699.28125 489.35546875 c 0,3,4
 676.135742188 393.837890625 676.135742188 393.837890625 659.17578125 307.127929688 c 128,-1,5
 642.215820312 220.41796875 642.215820312 220.41796875 631.541015625 143.171875 c 128,-1,6
 620.866210938 65.92578125 620.866210938 65.92578125 616.454101562 -1.8330078125 c 1,7,-1
 526.861328125 -1.8330078125 l 1,8,9
 524.989257812 35.8291015625 524.989257812 35.8291015625 520.142578125 78.326171875 c 128,-1,10
 515.295898438 120.823242188 515.295898438 120.823242188 507.48828125 168.171875 c 128,-1,11
 499.681640625 215.520507812 499.681640625 215.520507812 488.854492188 268.052734375 c 128,-1,12
 478.028320312 320.5859375 478.028320312 320.5859375 464.259765625 378.077148438 c 128,-1,13
 450.491210938 435.567382812 450.491210938 435.567382812 433.658203125 498.592773438 c 0,14,15
 307.440429688 968.676757812 307.440429688 968.676757812 110.637695312 1267.10839844 c 1,16,-1
 200.247070312 1434.1796875 l 1,17,18
 350.766601562 1237.70507812 350.766601562 1237.70507812 470.950195312 811.234375 c 0,19,20
 495.345703125 724.202148438 495.345703125 724.202148438 513.150390625 652.163085938 c 128,-1,21
 530.956054688 580.124023438 530.956054688 580.124023438 542.05859375 523.640625 c 128,-1,22
 553.161132812 467.15625 553.161132812 467.15625 557.629882812 426.036132812 c 2,23,-1
 567.068359375 339.178710938 l 1,24,-1
 577.5 425.921875 l 2,25,26
 587.665039062 510.454101562 587.665039062 510.454101562 607.170898438 606.951171875 c 128,-1,27
 626.676757812 703.44921875 626.676757812 703.44921875 655.526367188 811.853515625 c 0,28,29
 765.61328125 1226.18261719 765.61328125 1226.18261719 916.747070312 1433.8125 c 1,0,-1
EndSplineSet
EndChar

StartChar: afii57400
Encoding: 1640 1640 64
Width: 1115
VWidth: 2378
GlyphClass: 2
Flags: W
LayerCount: 2
Fore
SplineSet
916.747070312 6.8837890625 m 1,0,1
 765.61328125 214.513671875 765.61328125 214.513671875 655.525390625 628.845703125 c 0,2,3
 597.844726562 845.588867188 597.844726562 845.588867188 577.5 1014.77441406 c 2,4,-1
 567.068359375 1101.51757812 l 1,5,-1
 557.629882812 1014.66015625 l 2,6,7
 553.162109375 973.544921875 553.162109375 973.544921875 542.05859375 917.057617188 c 128,-1,8
 530.955078125 860.569335938 530.955078125 860.569335938 513.149414062 788.530273438 c 128,-1,9
 495.344726562 716.491210938 495.344726562 716.491210938 470.954101562 629.475585938 c 0,10,11
 350.766601562 202.991210938 350.766601562 202.991210938 200.247070312 6.5166015625 c 1,12,-1
 110.637695312 173.587890625 l 1,13,14
 307.440429688 472.01953125 307.440429688 472.01953125 433.661132812 942.116210938 c 0,15,16
 517.649414062 1256.58300781 517.649414062 1256.58300781 526.861328125 1442.52929688 c 1,17,-1
 616.454101562 1442.52929688 l 1,18,19
 629.7578125 1238.24804688 629.7578125 1238.24804688 699.28125 951.340820312 c 0,20,21
 810.244140625 493.422851562 810.244140625 493.422851562 1004.50878906 173.763671875 c 1,22,-1
 916.747070312 6.8837890625 l 1,0,1
EndSplineSet
EndChar

StartChar: afii57401
Encoding: 1641 1641 65
Width: 1136
VWidth: 2378
GlyphClass: 2
Flags: W
LayerCount: 2
Fore
SplineSet
694.140625 666.307617188 m 1,0,1
 623 658 623 658 560.448242188 658.227539062 c 0,2,3
 345 658 345 658 253 731 c 0,4,5
 150 813 150 813 150.26171875 1011.90917969 c 0,6,7
 151 1230 151 1230 272 1364 c 0,8,9
 360 1460 360 1460 474 1460 c 0,10,11
 574 1460 574 1460 644 1398 c 0,12,13
 780 1277 780 1277 792 1000 c 0,14,15
 820 345 820 345 980 169 c 1,16,-1
 985.770507812 -22.0654296875 l 1,17,-1
 980.608398438 -22.0654296875 l 2,18,19
 814 -22 814 -22 761.143554688 241.391601562 c 0,20,21
 735 372 735 372 694.140625 666.307617188 c 1,0,1
674.883789062 865.498046875 m 1,22,-1
 667.56640625 957.05859375 l 2,23,24
 657.115234375 1087.83105469 657.115234375 1087.83105469 600.5 1171 c 0,25,26
 543 1256 543 1256 477.2109375 1258.37792969 c 0,27,28
 397 1261 397 1261 344 1204 c 0,29,30
 278 1134 278 1134 273 1032 c 128,-1,31
 268 930 268 930 328 884 c 0,32,33
 373.87109375 848.83203125 373.87109375 848.83203125 503 849 c 0,34,35
 603 849 603 849 674.883789062 865.498046875 c 1,22,-1
EndSplineSet
EndChar

StartChar: afii57381
Encoding: 1642 1642 66
Width: 1224
VWidth: 2277
GlyphClass: 2
Flags: W
LayerCount: 2
Fore
SplineSet
479.685546875 1342.53222656 m 2,0,-1
 479.685546875 1208.37207031 l 2,1,2
 479.685546875 1167.97265625 479.685546875 1167.97265625 446.565429688 1167.96191406 c 2,3,-1
 314.486328125 1167.97167969 l 2,4,5
 277.206054688 1167.97167969 277.206054688 1167.97167969 277.206054688 1209.41210938 c 2,6,-1
 277.206054688 1342.53222656 l 2,7,8
 277.206054688 1377.73242188 277.206054688 1377.73242188 318.645507812 1377.73242188 c 2,9,-1
 438.245117188 1377.73242188 l 2,10,11
 479.685546875 1377.73242188 479.685546875 1377.73242188 479.685546875 1342.53222656 c 2,0,-1
949.559570312 247.203125 m 2,12,-1
 949.559570312 113.04296875 l 2,13,14
 949.559570312 72.6416015625 949.559570312 72.6416015625 916.439453125 72.6416015625 c 2,15,-1
 784.359375 72.6416015625 l 2,16,17
 747.080078125 72.6416015625 747.080078125 72.6416015625 747.080078125 114.08203125 c 2,18,-1
 747.080078125 247.203125 l 2,19,20
 747.080078125 282.40234375 747.080078125 282.40234375 788.51953125 282.40234375 c 2,21,-1
 908.120117188 282.40234375 l 2,22,23
 949.559570312 282.40234375 949.559570312 282.40234375 949.559570312 247.203125 c 2,12,-1
905.426757812 1435.02441406 m 1,24,-1
 1024.91113281 1373.46484375 l 1,25,-1
 313.83984375 1.3701171875 l 1,26,-1
 195.032226562 66.66015625 l 1,27,-1
 905.426757812 1435.02441406 l 1,24,-1
EndSplineSet
EndChar

StartChar: uni066B
Encoding: 1643 1643 67
Width: 739
VWidth: 2277
GlyphClass: 2
Flags: W
LayerCount: 2
Fore
SplineSet
459.865234375 528.153320312 m 1,0,-1
 594.876953125 527.146484375 l 1,1,-1
 591.403320312 521.184570312 l 2,2,3
 357.505859375 119.732421875 357.505859375 119.732421875 137.452148438 -235.486328125 c 2,4,-1
 136.259765625 -237.41015625 l 1,5,-1
 -1.76171875 -235.515625 l 1,6,-1
 1.9765625 -229.500976562 l 2,7,8
 100.618164062 -70.833984375 100.618164062 -70.833984375 458.689453125 526.194335938 c 2,9,-1
 459.865234375 528.153320312 l 1,0,-1
EndSplineSet
EndChar

StartChar: uni066C
Encoding: 1644 1644 68
Width: 723
VWidth: 2277
GlyphClass: 2
Flags: W
LayerCount: 2
Fore
SplineSet
300.927734375 1649.13085938 m 1,0,-1
 512.528320312 1649.13085938 l 1,1,-1
 512.528320312 1494.39257812 l 1,2,-1
 334.55078125 1148.20117188 l 1,3,-1
 213.038085938 1148.20117188 l 1,4,-1
 300.927734375 1490.125 l 1,5,-1
 300.927734375 1649.13085938 l 1,0,-1
EndSplineSet
EndChar

StartChar: afii63167
Encoding: 1645 1645 69
Width: 1241
VWidth: 2277
GlyphClass: 2
Flags: W
LayerCount: 2
Fore
SplineSet
132.336914062 832.334960938 m 1,0,-1
 504.708007812 832.334960938 l 1,1,-1
 620.943359375 1186.22558594 l 1,2,-1
 737.176757812 832.334960938 l 1,3,-1
 1109.55371094 832.334960938 l 1,4,-1
 808.728515625 612.424804688 l 1,5,-1
 923.837890625 258.795898438 l 1,6,-1
 620.943359375 477.669921875 l 1,7,-1
 318.046875 258.795898438 l 1,8,-1
 433.15625 612.424804688 l 1,9,-1
 132.336914062 832.334960938 l 1,0,-1
EndSplineSet
EndChar

StartChar: uni066E
Encoding: 1646 1646 70
Width: 1582
VWidth: 2483
GlyphClass: 2
Flags: W
AnchorPoint: "Anchor-10" 722.268 1175.4 basechar 0
AnchorPoint: "Anchor-7" 456.039 -283.659 basechar 0
LayerCount: 2
Fore
SplineSet
177 435 m 4,0,1
 185 185 185 185 548.961914062 168.509765625 c 0,2,3
 625 165 625 165 821.40625 168.4375 c 0,4,5
 1227 176 1227 176 1348.84375 271.521484375 c 0,6,7
 1421.0544705 328.042635433 1421.0544705 328.042635433 1380.91210938 410.60546875 c 2,8,-1
 1318 540 l 1,9,-1
 1416 732 l 1,10,11
 1482 614 1482 614 1491 446.092773438 c 0,12,13
 1503 229 1503 229 1368 124 c 0,14,15
 1285 60 1285 60 1129 27 c 0,16,17
 917 -17 917 -17 741 -19 c 0,18,19
 401 -23 401 -23 278.805664062 41.0048828125 c 0,20,21
 92 137 92 137 94 384 c 28,22,23
 95 501 95 501 122.712890625 588 c 4,24,25
 151 676 151 676 187 662 c 4,26,27
 200 657 200 657 200 640 c 4,28,29
 200 628 200 628 186.323242188 560 c 4,30,31
 175 500 175 500 177 435 c 4,0,1
EndSplineSet
Substitution2: "'init' Initial Forms in Arabic lookup 13 subtable" uni066E.init
Substitution2: "'medi' Medial Forms in Arabic lookup 11 subtable" uni066E.medi
Substitution2: "'fina' Terminal Forms in Arabic lookup 9 subtable" uni066E.fina
EndChar

StartChar: uni066F
Encoding: 1647 1647 71
Width: 1297
VWidth: 2501
GlyphClass: 2
Flags: W
AnchorPoint: "Anchor-10" 456.703 1004.12 basechar 0
AnchorPoint: "Anchor-7" 279.917 -615.969 basechar 0
LayerCount: 2
Fore
SplineSet
909.764648438 525.666015625 m 0,0,1
 797 523 797 523 768.57421875 375.483398438 c 0,2,3
 753 296 753 296 828.463867188 265.397460938 c 0,4,5
 933 223 933 223 1097.38476562 273.18359375 c 1,6,7
 1100 348 1100 348 1064 427.326171875 c 0,8,9
 1019 528 1019 528 909.764648438 525.666015625 c 0,0,1
1191 60 m 0,10,11
 1116 -433 1116 -433 610 -440 c 0,12,13
 311 -444 311 -444 184 -284 c 0,14,15
 47 -111 47 -111 103.260742188 200.936523438 c 0,16,17
 114 260 114 260 151 360 c 0,18,19
 196 482 196 482 238.571289062 454 c 0,20,21
 259 441 259 441 225.022460938 326 c 0,22,23
 156 94 156 94 230 -65 c 0,24,25
 322 -263 322 -263 630 -259 c 16,26,27
 1063 -253 1063 -253 1096 92.69140625 c 1,28,29
 993 59 993 59 885 71.5 c 128,-1,30
 777 84 777 84 719.5 165 c 128,-1,31
 662 246 662 246 674.798828125 370.47265625 c 0,32,33
 695 562 695 562 804.100585938 668.75 c 0,34,35
 863 726 863 726 949.21484375 716.663085938 c 0,36,37
 984 713 984 713 1024.32910156 690.534179688 c 0,38,39
 1126 634 1126 634 1173 484 c 0,40,41
 1186 443 1186 443 1197 374 c 4,42,43
 1219 240 1219 240 1191 60 c 0,10,11
EndSplineSet
Substitution2: "'init' Initial Forms in Arabic lookup 13 subtable" uni066F.init
Substitution2: "'medi' Medial Forms in Arabic lookup 11 subtable" uni066F.medi
Substitution2: "'fina' Terminal Forms in Arabic lookup 9 subtable" uni066F.fina
EndChar

StartChar: uni0670
Encoding: 1648 1648 72
Width: 0
VWidth: 2277
GlyphClass: 4
Flags: W
AnchorPoint: "Anchor-10" 578.754 1340.68 mark 0
AnchorPoint: "Anchor-9" 578.754 1340.68 mark 0
AnchorPoint: "Anchor-1" 569.754 1923.36 basemark 0
AnchorPoint: "Anchor-1" 578.754 1340.68 mark 0
LayerCount: 2
Fore
SplineSet
562.208984375 1383.00195312 m 1,0,-1
 520.08984375 1818.01660156 l 5,1,-1
 619.357421875 1876.47558594 l 5,2,-1
 619.357421875 1383.00195312 l 1,3,-1
 562.208984375 1383.00195312 l 1,0,-1
EndSplineSet
EndChar

StartChar: uni0674
Encoding: 1652 1652 73
Width: 664
VWidth: 2277
GlyphClass: 2
Flags: W
LayerCount: 2
Fore
SplineSet
152.560546875 1472.46582031 m 1,0,-1
 196.359375 1581.04003906 l 1,1,2
 300.6796875 1630.95996094 300.6796875 1630.95996094 328.19921875 1635.44042969 c 1,3,4
 162.439453125 1639.91992188 162.439453125 1639.91992188 178.439453125 1764.72070312 c 0,5,6
 204.0390625 1960.56054688 204.0390625 1960.56054688 360.19921875 1959.28027344 c 0,7,8
 444.6796875 1958.640625 444.6796875 1958.640625 475.399414062 1849.20019531 c 1,9,10
 405 1870.3203125 405 1870.3203125 364.0390625 1869.68066406 c 0,11,12
 309.639648438 1868.40039062 309.639648438 1868.40039062 278.279296875 1842.80078125 c 0,13,14
 237.319335938 1808.87988281 237.319335938 1808.87988281 236.0390625 1776.24023438 c 0,15,16
 232.19921875 1687.28027344 232.19921875 1687.28027344 364.0390625 1681.52050781 c 0,17,18
 394.119140625 1680.24023438 394.119140625 1680.24023438 448.8203125 1693.1171875 c 0,19,20
 508.6796875 1707.76074219 508.6796875 1707.76074219 515.525390625 1711.15429688 c 1,21,-1
 469 1606 l 1,22,23
 407.559570312 1589.36035156 407.559570312 1589.36035156 310.279296875 1544.56054688 c 0,24,25
 231.559570312 1508.72070312 231.559570312 1508.72070312 152.560546875 1472.46582031 c 1,0,-1
EndSplineSet
EndChar

StartChar: uni06A1
Encoding: 1697 1697 77
Width: 1642
VWidth: 2501
GlyphClass: 2
Flags: W
AnchorPoint: "Anchor-10" 517.771 1369.91 basechar 0
AnchorPoint: "Anchor-7" 641.625 -225.346 basechar 0
LayerCount: 2
Fore
SplineSet
174 430 m 0,0,1
 181 192 181 192 545.961914062 173.509765625 c 0,2,3
 691 166 691 166 920.559570312 168.541015625 c 0,4,5
 1443 174 1443 174 1445 370 c 1,6,7
 1342 336 1342 336 1234 348.80859375 c 0,8,9
 1126 361 1126 361 1068.5 442.30859375 c 0,10,11
 1011 523 1011 523 1023.79882812 647.78125 c 0,12,13
 1044 839 1044 839 1153.10058594 946.05859375 c 0,14,15
 1212 1003 1212 1003 1298.21484375 993.971679688 c 0,16,17
 1333 990 1333 990 1373.32910156 967.842773438 c 0,18,19
 1473 912 1473 912 1522 761.30859375 c 0,20,21
 1539 709 1539 709 1551 609.80859375 c 0,22,23
 1566 482 1566 482 1542 353.30859375 c 24,24,25
 1500 129 1500 129 1343.546875 50.9130859375 c 0,26,27
 1243 1 1243 1 925 -14.5966796875 c 1,28,29
 852 -18 852 -18 770.559570312 -18.8544921875 c 0,30,31
 396 -22 396 -22 275.805664062 41.0048828125 c 0,32,33
 90 138 90 138 91 379 c 0,34,35
 91 495 91 495 119.712890625 583 c 0,36,37
 148 671 148 671 184 657 c 0,38,39
 197 652 197 652 197 635 c 0,40,41
 197 623 197 623 183.323242188 555 c 0,42,43
 172 495 172 495 174 430 c 0,0,1
1258.76464844 802.974609375 m 0,44,45
 1146 800.30859375 1146 800.30859375 1117.57421875 652.791992188 c 0,46,47
 1102 573.30859375 1102 573.30859375 1177.46386719 542.706054688 c 0,48,49
 1282 500.30859375 1282 500.30859375 1446.38476562 550.4921875 c 1,50,51
 1449 625.30859375 1449 625.30859375 1413 704.634765625 c 0,52,53
 1368 805.30859375 1368 805.30859375 1258.76464844 802.974609375 c 0,44,45
EndSplineSet
Substitution2: "'init' Initial Forms in Arabic lookup 13 subtable" uni06A1.init
Substitution2: "'medi' Medial Forms in Arabic lookup 11 subtable" uni06A1.medi
Substitution2: "'fina' Terminal Forms in Arabic lookup 9 subtable" uni06A1.fina
EndChar

StartChar: uni06A9
Encoding: 1705 1705 78
Width: 1728
VWidth: 2483
GlyphClass: 2
Flags: W
AnchorPoint: "Anchor-10" 494.259 1170.33 basechar 0
AnchorPoint: "Anchor-7" 397.289 -272.695 basechar 0
LayerCount: 2
Fore
SplineSet
179 434 m 4,0,1
 187 189 187 189 552.961914062 173.509765625 c 0,2,3
 675 168 675 168 863.559570312 168.541015625 c 0,4,5
 968 169 968 169 1060 180.861328125 c 0,6,7
 1294 212 1294 212 1319.109375 312.1484375 c 24,8,9
 1340 396 1340 396 1166.52441406 580.974609375 c 0,10,11
 1009 749 1009 749 910.967773438 789.07421875 c 1,12,13
 891 1004 891 1004 1021.72265625 1081.71777344 c 2,14,-1
 1687.8203125 1479.77636719 l 1,15,16
 1655 1326 1655 1326 1618.73632812 1254.45898438 c 1,17,-1
 1032.11035156 929.399414062 l 1,18,19
 1432 541 1432 541 1427 339 c 0,20,21
 1424 213 1424 213 1370 145 c 0,22,23
 1243 -15 1243 -15 777.559570312 -18.8544921875 c 0,24,25
 403 -22 403 -22 282.805664062 41.0048828125 c 0,26,27
 91 142 91 142 96 383 c 28,28,29
 98 505 98 505 124.712890625 587 c 4,30,31
 153 675 153 675 189 661 c 4,32,33
 202 656 202 656 202 639 c 4,34,35
 202 627 202 627 188.323242188 559 c 4,36,37
 177 499 177 499 179 434 c 4,0,1
EndSplineSet
Substitution2: "'init' Initial Forms in Arabic lookup 13 subtable" uniFB90
Substitution2: "'medi' Medial Forms in Arabic lookup 11 subtable" uniFB91
Substitution2: "'fina' Terminal Forms in Arabic lookup 9 subtable" uniFB8F
EndChar

StartChar: afii57514
Encoding: 1722 1722 80
Width: 1304
VWidth: 2483
GlyphClass: 2
Flags: W
AnchorPoint: "Anchor-10" 622.054 1070.87 basechar 0
AnchorPoint: "Anchor-7" 313.976 -845.017 basechar 0
LayerCount: 2
Fore
SplineSet
633 -295 m 0,0,1
 1075 -287 1075 -287 1103.25683594 31.58203125 c 1,2,3
 1089 146 1089 146 1067.47607422 217.671386719 c 0,4,5
 1048 280 1048 280 1000 390 c 1,6,-1
 1131.33300781 539.58203125 l 1,7,8
 1190 350 1190 350 1201 244 c 0,9,10
 1220 59 1220 59 1183 -94 c 0,11,12
 1093 -470 1093 -470 621 -476 c 0,13,14
 314 -480 314 -480 189 -320 c 0,15,16
 55 -149 55 -149 108.260742188 164.936523438 c 0,17,18
 120 234 120 234 155 327 c 0,19,20
 201 448 201 448 242.571289062 421 c 0,21,22
 265 406 265 406 229.022460938 293 c 0,23,24
 157 64 157 64 235 -101 c 0,25,26
 329 -301 329 -301 633 -295 c 0,0,1
EndSplineSet
Substitution2: "'init' Initial Forms in Arabic lookup 13 subtable" uni06BA.init
Substitution2: "'medi' Medial Forms in Arabic lookup 11 subtable" uni06BA.medi
Substitution2: "'fina' Terminal Forms in Arabic lookup 9 subtable" uniFB9F
EndChar

StartChar: uni06F4
Encoding: 1780 1780 87
Width: 1096
VWidth: 2174
GlyphClass: 2
Flags: W
LayerCount: 2
Fore
SplineSet
475.379882812 1048.17089844 m 1,0,1
 564 966 564 966 752.829101562 966.095703125 c 0,2,3
 860 966 860 966 965.598632812 1005.92871094 c 0,4,5
 979 1011 979 1011 984.5 1006 c 128,-1,6
 990 1001 990 1001 985.334960938 985.206054688 c 0,7,8
 944 809 944 809 710.716796875 802.99609375 c 0,9,10
 607 800 607 800 452.229492188 876.42578125 c 1,11,12
 522 589 522 589 522 356.874023438 c 4,13,14
 522 13 522 13 436.762695312 -10.171875 c 1,15,16
 426 448 426 448 318.272460938 833 c 0,17,18
 282 963 282 963 120.274414062 1331.59960938 c 1,19,-1
 245.614257812 1426.50292969 l 1,20,-1
 386 1102 l 1,21,22
 468 1469 468 1469 730.274414062 1465.08789062 c 0,23,24
 862 1463 862 1463 924.188476562 1324.84375 c 0,25,26
 935 1301 935 1301 935 1292 c 0,27,28
 935 1264 935 1264 902.5 1286 c 0,29,30
 843 1326 843 1326 770 1325 c 0,31,32
 549 1325 549 1325 475.379882812 1048.17089844 c 1,0,1
EndSplineSet
EndChar

StartChar: uni06F5
Encoding: 1781 1781 88
Width: 1175
VWidth: 2229
GlyphClass: 2
Flags: W
LayerCount: 2
Fore
SplineSet
595.083984375 369 m 0,0,1
 674 169 674 169 823.75 170.759765625 c 1,2,3
 989 187 989 187 944.845703125 440.747070312 c 0,4,5
 908 656 908 656 747.383789062 886.689453125 c 0,6,7
 639 1042 639 1042 564.10546875 1110.84179688 c 1,8,9
 259 734 259 734 217.314453125 398.073242188 c 0,10,11
 190 182 190 182 366.477539062 171.077148438 c 0,12,13
 463 165 463 165 567.400390625 370 c 0,14,15
 583 401 583 401 595.083984375 369 c 0,0,1
457 1218 m 1,16,-1
 557.8046875 1376.40429688 l 1,17,18
 590 1344 590 1344 621.465820312 1311.1640625 c 0,19,20
 1118 810 1118 810 1064.77441406 271.31640625 c 0,21,22
 1036 -20 1036 -20 795.314453125 -12.3134765625 c 0,23,24
 640 -7 640 -7 581 205 c 1,25,26
 520 -13 520 -13 371.104492188 -12.8486328125 c 0,27,28
 130 -13 130 -13 110.905273438 270.814453125 c 0,29,30
 87 623 87 623 492.831054688 1185.76269531 c 1,31,-1
 457 1218 l 1,16,-1
EndSplineSet
EndChar

StartChar: uni06F6
Encoding: 1782 1782 89
Width: 1031
VWidth: 2378
GlyphClass: 2
Flags: W
LayerCount: 2
Fore
SplineSet
422 693 m 1,0,1
 166 721 166 721 120 930 c 0,2,3
 90 1067 90 1067 206 1230 c 0,4,5
 296 1357 296 1357 416 1390 c 0,6,7
 611 1444 611 1444 698 1300.0390625 c 0,8,9
 743 1225 743 1225 690 1229.48730469 c 0,10,11
 571 1240 571 1240 510.846679688 1230.98242188 c 0,12,13
 245 1194 245 1194 235 1044 c 0,14,15
 220 813 220 813 568 836 c 0,16,17
 689 844 689 844 920.920898438 951.584960938 c 1,18,-1
 861 727 l 1,19,20
 492 625 492 625 219 168 c 1,21,-1
 132 -13 l 1,22,23
 51 39 51 39 184 337 c 0,24,25
 285 565 285 565 422 693 c 1,0,1
EndSplineSet
EndChar

StartChar: uniFB8F
Encoding: 64399 64399 104
Width: 1867
VWidth: 2483
GlyphClass: 2
Flags: W
AnchorPoint: "Anchor-10" 399.721 1209.5 basechar 0
AnchorPoint: "Anchor-7" 470.166 -284.4 basechar 0
LayerCount: 2
Fore
SplineSet
175 443 m 0,0,1
 186 189 186 189 548.961914062 173.509765625 c 0,2,3
 671 168 671 168 859.559570312 168.541015625 c 0,4,5
 964 169 964 169 1056 180.861328125 c 0,6,7
 1290 212 1290 212 1315.109375 312.1484375 c 24,8,9
 1336 396 1336 396 1162.52441406 580.974609375 c 0,10,11
 1005 749 1005 749 906.967773438 789.07421875 c 1,12,13
 887 1004 887 1004 1017.72265625 1081.71777344 c 2,14,-1
 1683.8203125 1479.77636719 l 1,15,16
 1651 1326 1651 1326 1614.73632812 1254.45898438 c 1,17,-1
 1018.11035156 939.399414062 l 1,18,19
 1092 882 1092 882 1202.5 763 c 0,20,21
 1327 629 1327 629 1417 496 c 0,22,23
 1639 168 1639 168 1851.015625 169 c 1,24,-1
 1875.00195312 169 l 1,25,-1
 1875.00195312 -19 l 1,26,-1
 1851.30175781 -19 l 1,27,28
 1631 -20 1631 -20 1418.59375 312.396484375 c 1,29,30
 1411 199 1411 199 1328 116 c 0,31,32
 1196 -15 1196 -15 773.559570312 -18.8544921875 c 0,33,34
 399 -22 399 -22 278.805664062 41.0048828125 c 0,35,36
 89 141 89 141 92 393 c 24,37,38
 93 512 93 512 120.712890625 597 c 0,39,40
 149 685 149 685 185 671 c 0,41,42
 198 666 198 666 198 649 c 0,43,44
 198 637 198 637 184.323242188 569 c 0,45,46
 173 509 173 509 175 443 c 0,0,1
EndSplineSet
EndChar

StartChar: uniFB9F
Encoding: 64415 64415 112
Width: 1373
VWidth: 2483
GlyphClass: 2
Flags: W
AnchorPoint: "Anchor-10" 194.917 804.731 basechar 0
AnchorPoint: "Anchor-7" 85.671 -830.33 basechar 0
LayerCount: 2
Fore
SplineSet
238.571289062 349 m 4,0,1
 261 334 261 334 225.022460938 221 c 4,2,3
 153 -8 153 -8 231 -173 c 4,4,5
 325 -373 325 -373 629 -367 c 4,6,7
 1062 -358 1062 -358 1093.25683594 -18.41796875 c 1,8,9
 1059 166 1059 166 985 317.326171875 c 1,10,-1
 1116.33300781 464.58203125 l 1,11,12
 1156 266 1156 266 1211.2265625 221.198242188 c 0,13,14
 1275.76126981 169.192382812 1275.76126981 169.192382812 1337.61328125 169.192382812 c 2,15,-1
 1388.42285156 169.192382812 l 1,16,-1
 1388.42285156 -19.12890625 l 1,17,-1
 1361.08007812 -19.12890625 l 2,18,19
 1264 -19 1264 -19 1206.11621094 64.751953125 c 1,20,21
 1211 12 1211 12 1201 -54 c 8,22,23
 1124 -541 1124 -541 617 -548 c 4,24,25
 310.396595244 -552.021028259 310.396595244 -552.021028259 185 -392 c 4,26,27
 51 -221 51 -221 104.260742188 92.9365234375 c 4,28,29
 116 162 116 162 151 255 c 4,30,31
 197 376 197 376 238.571289062 349 c 4,0,1
EndSplineSet
EndChar

StartChar: uniFBE8
Encoding: 64488 64488 115
Width: 538
VWidth: 2482
GlyphClass: 2
Flags: W
AnchorPoint: "Anchor-10" 281.647 898.64 basechar 0
AnchorPoint: "Anchor-7" 249.102 -254.182 basechar 0
LayerCount: 2
Fore
SplineSet
61.0400390625 -19 m 2,0,-1
 -8.0419921875 -19 l 1,1,-1
 -8.0419921875 169 l 1,2,-1
 82 169 l 2,3,4
 329 169 329 169 342 291.799804688 c 0,5,6
 350 372 350 372 260 465 c 1,7,-1
 369 685.915039062 l 1,8,9
 436 587 436 587 447 451 c 0,10,11
 485 -19 485 -19 61.0400390625 -19 c 2,0,-1
EndSplineSet
EndChar

StartChar: uniFBE9
Encoding: 64489 64489 116
Width: 684
VWidth: 2482
GlyphClass: 2
Flags: W
AnchorPoint: "Anchor-10" 378.914 844.818 basechar 0
AnchorPoint: "Anchor-7" 310.077 -224.207 basechar 0
LayerCount: 2
Fore
SplineSet
338.783203125 421.658203125 m 2,0,1
 343.245499203 484.996735993 343.245499203 484.996735993 386.923828125 484.416015625 c 128,-1,2
 430.513690106 484.004590065 430.513690106 484.004590065 434.33984375 427.594726562 c 2,3,-1
 439.352539062 353.69140625 l 2,4,5
 452 169 452 169 680.517578125 169 c 2,6,-1
 692.615234375 169 l 1,7,-1
 692.615234375 -9 l 1,8,-1
 692.615234375 -19 l 1,9,-1
 672.475585938 -19 l 2,10,11
 469 -19 469 -19 395.3359375 144.889648438 c 1,12,13
 308 -19 308 -19 37.828125 -19 c 2,14,-1
 -8.4033203125 -19 l 1,15,-1
 -8.4033203125 169 l 1,16,-1
 66.115234375 169 l 2,17,18
 320.983048024 169 320.983048024 169 333.869140625 351.907226562 c 2,19,-1
 338.783203125 421.658203125 l 2,0,1
EndSplineSet
EndChar

StartChar: uniFE73
Encoding: 65139 65139 124
Width: 595
VWidth: 2277
GlyphClass: 2
Flags: W
AnchorPoint: "Anchor-10" 219.222 1334.68 basechar 0
AnchorPoint: "Anchor-7" 219.222 -111.96 basechar 0
LayerCount: 2
Fore
SplineSet
309.999023438 368.76953125 m 2,0,1
 309.999023438 335.791992188 309.999023438 335.791992188 324.422851562 304.853515625 c 128,-1,2
 338.846679688 273.915039062 338.846679688 273.915039062 367.923828125 244.8359375 c 0,3,4
 420.283203125 192.475585938 420.283203125 192.475585938 535.256835938 192.475585938 c 2,5,-1
 607.1171875 192.475585938 l 1,6,-1
 607.1171875 10.919921875 l 1,7,-1
 474.052734375 10.919921875 l 2,8,9
 320.840820312 10.919921875 320.840820312 10.919921875 221.860351562 109.900390625 c 0,10,11
 175.162109375 156.598632812 175.162109375 156.598632812 151.802734375 218.052734375 c 128,-1,12
 128.444335938 279.5078125 128.444335938 279.5078125 128.444335938 355.416015625 c 2,13,-1
 128.444335938 391.666015625 l 1,14,-1
 309.999023438 391.666015625 l 1,15,-1
 309.999023438 368.76953125 l 2,0,1
EndSplineSet
EndChar

StartChar: uniFE8E
Encoding: 65166 65166 150
Width: 487
VWidth: 2457
GlyphClass: 2
Flags: W
AnchorPoint: "Anchor-10" 189.417 1590.04 basechar 0
AnchorPoint: "Anchor-7" 237.017 -305.026 basechar 0
LayerCount: 2
Fore
SplineSet
284.670898438 1494 m 1,0,1
 306 1134 306 1134 285.282226562 464.482421875 c 0,2,3
 279 270 279 270 331.56640625 217.2734375 c 0,4,5
 378 169 378 169 484.502929688 169 c 2,6,-1
 495.752929688 169 l 1,7,-1
 495.752929688 -19 l 1,8,-1
 474.043945312 -19 l 2,9,10
 329 -19 329 -19 257.950195312 65.1591796875 c 0,11,12
 175 164 175 164 175 376 c 0,13,14
 183.638671875 706.626953125 183.638671875 706.626953125 171 1088.36328125 c 0,15,16
 163 1330 163 1330 145 1402 c 1,17,-1
 284.670898438 1494 l 1,0,1
EndSplineSet
EndChar

StartChar: uniFEA2
Encoding: 65186 65186 170
Width: 1214
VWidth: 2479
GlyphClass: 2
Flags: W
AnchorPoint: "Anchor-7" 350.484 -754.604 basechar 0
AnchorPoint: "Anchor-10" 516.666 1098.24 basechar 0
LayerCount: 2
Fore
SplineSet
806 382.32421875 m 1,0,1
 790 379 790 379 776 376.5 c 0,2,3
 601 345 601 345 477 281 c 0,4,5
 300 189 300 189 239 80 c 132,-1,6
 178 -29 178 -29 178 -124.5 c 132,-1,7
 178 -220 178 -220 228 -288 c 4,8,9
 354 -460 354 -460 741.218941092 -460.366812227 c 4,10,11
 988 -460 988 -460 1086 -400 c 5,12,13
 959.7558455 -638.461180722 959.7558455 -638.461180722 673.924063005 -638.461180722 c 4,14,15
 369.120500442 -638.461180722 369.120500442 -638.461180722 220.162609889 -499.903335336 c 4,16,17
 87 -374.226738769 87 -374.226738769 87 -167 c 4,18,19
 87 -21 87 -21 145.5 111 c 4,20,21
 297 446 297 446 778 516 c 1,22,23
 667 543 667 543 586 581 c 0,24,25
 474 633 474 633 420.32941655 633.33607823 c 0,26,27
 294 633 294 633 208.1953125 457.125 c 1,28,-1
 191.874023438 458.048828125 l 2,29,30
 174 459 174 459 174 497 c 128,-1,31
 174 535 174 535 190.129882812 606.516601562 c 0,32,33
 233 796 233 796 417.883789062 795.815429688 c 0,34,35
 528 796 528 796 722 690.5 c 128,-1,36
 916 585 916 585 1114.08984375 566.360351562 c 1,37,-1
 1077 415 l 1,38,39
 976 406 976 406 901 396.534179688 c 1,40,41
 915 169 915 169 1174.18359375 169 c 2,42,-1
 1232.34667969 169 l 1,43,-1
 1232.34667969 -19 l 1,44,-1
 1181.57226562 -19 l 2,45,46
 814 -19 814 -19 806 382.32421875 c 1,0,1
EndSplineSet
EndChar

StartChar: uniFEA3
Encoding: 65187 65187 171
Width: 1207
VWidth: 2483
GlyphClass: 2
Flags: W
AnchorPoint: "Anchor-10" 321.508 1112.4 basechar 0
AnchorPoint: "Anchor-7" 442.225 -227.501 basechar 0
LayerCount: 2
Fore
SplineSet
1102.30273438 357.919921875 m 5,0,1
 795 267 795 267 548.801757812 138.841796875 c 4,2,3
 245 -19 245 -19 44.919921875 -19 c 6,4,-1
 -8.41796875 -19 l 1,5,-1
 -8.41796875 169 l 1,6,-1
 34.677734375 169 l 6,7,8
 295 169 295 169 445.33203125 241.583984375 c 4,9,10
 659 345 659 345 832.594726562 400.723632812 c 5,11,12
 725 421 725 421 575 491 c 4,13,14
 370 587 370 587 286.833007812 571.690429688 c 4,15,16
 208 556 208 556 121.12890625 382.224609375 c 5,17,-1
 104.834960938 383.146484375 l 6,18,19
 69 385 69 385 103.092773438 531.634765625 c 4,20,21
 148 725 148 725 322.125976562 743.943359375 c 4,22,23
 450 758 450 758 709.934570312 606.583984375 c 4,24,25
 863 518 863 518 1128.15917969 492.86328125 c 5,26,-1
 1102.30273438 357.919921875 l 5,0,1
EndSplineSet
EndChar

StartChar: uniFEA4
Encoding: 65188 65188 172
Width: 1245
VWidth: 2483
GlyphClass: 2
Flags: W
AnchorPoint: "Anchor-10" 377.733 1103.09 basechar 0
AnchorPoint: "Anchor-7" 491.195 -257.174 basechar 0
LayerCount: 2
Fore
SplineSet
1097.91894531 -19 m 1,0,1
 853 -20 853 -20 817 259 c 1,2,3
 712 220 712 220 519.484375 123.150390625 c 0,4,5
 238 -19 238 -19 45.919921875 -19 c 2,6,-1
 -8.41796875 -19 l 1,7,-1
 -8.41796875 169 l 1,8,-1
 35.677734375 169 l 2,9,10
 295 169 295 169 444.814453125 241.583984375 c 0,11,12
 655 343 655 343 832.594726562 400.723632812 c 1,13,14
 721 424 721 424 575 492 c 0,15,16
 408 570 408 570 314.833007812 572.690429688 c 0,17,18
 210 576 210 576 121.12890625 383.224609375 c 1,19,-1
 104.834960938 384.146484375 l 2,20,21
 69 386 69 386 103.092773438 532.634765625 c 0,22,23
 148 726 148 726 322.125976562 744.943359375 c 0,24,25
 454 759 454 759 709.934570312 607.583984375 c 0,26,27
 861 518 861 518 1128.15917969 492.86328125 c 1,28,-1
 1102.30273438 357.922851562 l 1,29,30
 998 330 998 330 915.59375 298.052734375 c 1,31,32
 915 169 915 169 1105.69042969 169 c 2,33,-1
 1253.37109375 169 l 5,34,-1
 1253.37109375 -19 l 5,35,-1
 1097.91894531 -19 l 1,0,1
EndSplineSet
EndChar

StartChar: uniFEAA
Encoding: 65194 65194 178
Width: 984
VWidth: 2477
GlyphClass: 2
Flags: W
AnchorPoint: "Anchor-10" 511.818 1177.29 basechar 0
AnchorPoint: "Anchor-7" 353.272 -319.722 basechar 0
LayerCount: 2
Fore
SplineSet
741.533203125 161.85546875 m 5,0,1
 667 -19 667 -19 404.709008552 -19 c 0,2,3
 90.3282590161 -19 90.3282590161 -19 90.8447265625 203.654296875 c 2,4,-1
 91.2177734375 364.478515625 l 1,5,6
 124 379 124 379 153.115234375 365.268554688 c 1,7,8
 163 170 163 170 354.481445312 163.104492188 c 0,9,10
 542 156 542 156 622.958007812 196.884765625 c 0,11,12
 687.923253698 229.960925678 687.923253698 229.960925678 653.592773438 315.53125 c 2,13,-1
 488.502929688 727.025390625 l 1,14,-1
 583 857 l 1,15,-1
 754 389 l 2,16,17
 834 169 834 169 981.44921875 169 c 2,18,-1
 992.532226562 169 l 1,19,-1
 992.532226562 -19 l 1,20,-1
 970.206054688 -19 l 2,21,22
 823 -19 823 -19 741.533203125 161.85546875 c 5,0,1
EndSplineSet
EndChar

StartChar: uniFEAE
Encoding: 65198 65198 182
Width: 859
VWidth: 2482
GlyphClass: 2
Flags: W
AnchorPoint: "Anchor-10" 503.584 843.621 basechar 0
AnchorPoint: "Anchor-7" 372.166 -723.165 basechar 0
LayerCount: 2
Fore
SplineSet
587.7265625 70.92578125 m 0,0,1
 599 135 599 135 482 281 c 5,2,3
 580 438.34765625 l 5,4,5
 627.955310646 336.879713803 627.955310646 336.879713803 679 241.34765625 c 4,6,7
 718 169 718 169 856.50390625 169 c 2,8,-1
 872.772460938 169 l 1,9,-1
 872.772460938 -19 l 1,10,-1
 842.521484375 -19 l 2,11,12
 735 -19 735 -19 683 53 c 1,13,14
 614 -306 614 -306 417.822265625 -494 c 0,15,16
 381 -529 381 -529 336 -528.81640625 c 0,17,18
 135 -528 135 -528 27 -476 c 0,19,20
 0 -463 0 -463 36 -450 c 0,21,22
 50 -445 50 -445 63.0751953125 -439.795898438 c 0,23,24
 528 -266 528 -266 587.7265625 70.92578125 c 0,0,1
EndSplineSet
PairPos2: "'kern' Horizontal Kerning lookup 15-1" uni0644 dx=-100 dy=0 dh=-100 dv=0 dx=0 dy=0 dh=0 dv=0
PairPos2: "'kern' Horizontal Kerning lookup 15-1" uni0642 dx=-100 dy=0 dh=-100 dv=0 dx=0 dy=0 dh=0 dv=0
PairPos2: "'kern' Horizontal Kerning lookup 15-1" uni0632 dx=-80 dy=0 dh=-80 dv=0 dx=0 dy=0 dh=0 dv=0
PairPos2: "'kern' Horizontal Kerning lookup 15-1" uni0631 dx=-80 dy=0 dh=-80 dv=0 dx=0 dy=0 dh=0 dv=0
PairPos2: "'kern' Horizontal Kerning lookup 15-1" uniFB8A dx=-80 dy=0 dh=-80 dv=0 dx=0 dy=0 dh=0 dv=0
PairPos2: "'kern' Horizontal Kerning lookup 15-1" afii57508 dx=-80 dy=0 dh=-80 dv=0 dx=0 dy=0 dh=0 dv=0
PairPos2: "'kern' Horizontal Kerning lookup 15-1" uniFB7C dx=-100 dy=0 dh=-100 dv=0 dx=0 dy=0 dh=0 dv=0
PairPos2: "'kern' Horizontal Kerning lookup 15-1" uni06CC dx=-100 dy=0 dh=-100 dv=0 dx=0 dy=0 dh=0 dv=0
PairPos2: "'kern' Horizontal Kerning lookup 15-1" uniFEEB dx=-170 dy=0 dh=-170 dv=0 dx=0 dy=0 dh=0 dv=0
PairPos2: "'kern' Horizontal Kerning lookup 15-1" uniFEDF dx=-170 dy=0 dh=-170 dv=0 dx=0 dy=0 dh=0 dv=0
PairPos2: "'kern' Horizontal Kerning lookup 15-1" uniFB90 dx=-170 dy=0 dh=-170 dv=0 dx=0 dy=0 dh=0 dv=0
PairPos2: "'kern' Horizontal Kerning lookup 15-1" uni06A9 dx=-170 dy=0 dh=-170 dv=0 dx=0 dy=0 dh=0 dv=0
PairPos2: "'kern' Horizontal Kerning lookup 15-1" uni0649 dx=-100 dy=0 dh=-100 dv=0 dx=0 dy=0 dh=0 dv=0
PairPos2: "'kern' Horizontal Kerning lookup 15-1" uni0647 dx=-170 dy=0 dh=-170 dv=0 dx=0 dy=0 dh=0 dv=0
PairPos2: "'kern' Horizontal Kerning lookup 15-1" uniFEE7 dx=-170 dy=0 dh=-170 dv=0 dx=0 dy=0 dh=0 dv=0
PairPos2: "'kern' Horizontal Kerning lookup 15-1" uniFEE3 dx=-170 dy=0 dh=-170 dv=0 dx=0 dy=0 dh=0 dv=0
PairPos2: "'kern' Horizontal Kerning lookup 15-1" uni0645 dx=-170 dy=0 dh=-170 dv=0 dx=0 dy=0 dh=0 dv=0
PairPos2: "'kern' Horizontal Kerning lookup 15-1" uniFEDB dx=-170 dy=0 dh=-170 dv=0 dx=0 dy=0 dh=0 dv=0
PairPos2: "'kern' Horizontal Kerning lookup 15-1" uniFED7 dx=-170 dy=0 dh=-170 dv=0 dx=0 dy=0 dh=0 dv=0
PairPos2: "'kern' Horizontal Kerning lookup 15-1" uniFED3 dx=-170 dy=0 dh=-170 dv=0 dx=0 dy=0 dh=0 dv=0
PairPos2: "'kern' Horizontal Kerning lookup 15-1" uni0641 dx=-170 dy=0 dh=-170 dv=0 dx=0 dy=0 dh=0 dv=0
PairPos2: "'kern' Horizontal Kerning lookup 15-1" uniFECF dx=-170 dy=0 dh=-170 dv=0 dx=0 dy=0 dh=0 dv=0
PairPos2: "'kern' Horizontal Kerning lookup 15-1" uniFECB dx=-170 dy=0 dh=-170 dv=0 dx=0 dy=0 dh=0 dv=0
PairPos2: "'kern' Horizontal Kerning lookup 15-1" uniFEC7 dx=-170 dy=0 dh=-170 dv=0 dx=0 dy=0 dh=0 dv=0
PairPos2: "'kern' Horizontal Kerning lookup 15-1" uni0638 dx=-170 dy=0 dh=-170 dv=0 dx=0 dy=0 dh=0 dv=0
PairPos2: "'kern' Horizontal Kerning lookup 15-1" uniFEC3 dx=-170 dy=0 dh=-170 dv=0 dx=0 dy=0 dh=0 dv=0
PairPos2: "'kern' Horizontal Kerning lookup 15-1" uni0637 dx=-170 dy=0 dh=-170 dv=0 dx=0 dy=0 dh=0 dv=0
PairPos2: "'kern' Horizontal Kerning lookup 15-1" uniFEBF dx=-170 dy=0 dh=-170 dv=0 dx=0 dy=0 dh=0 dv=0
PairPos2: "'kern' Horizontal Kerning lookup 15-1" uni0636 dx=-170 dy=0 dh=-170 dv=0 dx=0 dy=0 dh=0 dv=0
PairPos2: "'kern' Horizontal Kerning lookup 15-1" uniFEBB dx=-170 dy=0 dh=-170 dv=0 dx=0 dy=0 dh=0 dv=0
PairPos2: "'kern' Horizontal Kerning lookup 15-1" uni0635 dx=-170 dy=0 dh=-170 dv=0 dx=0 dy=0 dh=0 dv=0
PairPos2: "'kern' Horizontal Kerning lookup 15-1" uniFEB7 dx=-170 dy=0 dh=-170 dv=0 dx=0 dy=0 dh=0 dv=0
PairPos2: "'kern' Horizontal Kerning lookup 15-1" uni0634 dx=-170 dy=0 dh=-170 dv=0 dx=0 dy=0 dh=0 dv=0
PairPos2: "'kern' Horizontal Kerning lookup 15-1" uniFEB3 dx=-170 dy=0 dh=-170 dv=0 dx=0 dy=0 dh=0 dv=0
PairPos2: "'kern' Horizontal Kerning lookup 15-1" uni0633 dx=-170 dy=0 dh=-170 dv=0 dx=0 dy=0 dh=0 dv=0
PairPos2: "'kern' Horizontal Kerning lookup 15-1" uni0630 dx=-170 dy=0 dh=-170 dv=0 dx=0 dy=0 dh=0 dv=0
PairPos2: "'kern' Horizontal Kerning lookup 15-1" uni062F dx=-170 dy=0 dh=-170 dv=0 dx=0 dy=0 dh=0 dv=0
PairPos2: "'kern' Horizontal Kerning lookup 15-1" uniFEA7 dx=-170 dy=0 dh=-170 dv=0 dx=0 dy=0 dh=0 dv=0
PairPos2: "'kern' Horizontal Kerning lookup 15-1" uniFEA3 dx=-170 dy=0 dh=-170 dv=0 dx=0 dy=0 dh=0 dv=0
PairPos2: "'kern' Horizontal Kerning lookup 15-1" uniFE9F dx=-170 dy=0 dh=-170 dv=0 dx=0 dy=0 dh=0 dv=0
PairPos2: "'kern' Horizontal Kerning lookup 15-1" uniFE9B dx=-170 dy=0 dh=-170 dv=0 dx=0 dy=0 dh=0 dv=0
PairPos2: "'kern' Horizontal Kerning lookup 15-1" uni062B dx=-170 dy=0 dh=-170 dv=0 dx=0 dy=0 dh=0 dv=0
PairPos2: "'kern' Horizontal Kerning lookup 15-1" uniFE97 dx=-170 dy=0 dh=-170 dv=0 dx=0 dy=0 dh=0 dv=0
PairPos2: "'kern' Horizontal Kerning lookup 15-1" uni062A dx=-170 dy=0 dh=-170 dv=0 dx=0 dy=0 dh=0 dv=0
PairPos2: "'kern' Horizontal Kerning lookup 15-1" uni0629 dx=-170 dy=0 dh=-170 dv=0 dx=0 dy=0 dh=0 dv=0
PairPos2: "'kern' Horizontal Kerning lookup 15-1" uni0628 dx=-170 dy=0 dh=-170 dv=0 dx=0 dy=0 dh=0 dv=0
PairPos2: "'kern' Horizontal Kerning lookup 15-1" uni0627 dx=-190 dy=0 dh=-190 dv=0 dx=0 dy=0 dh=0 dv=0
PairPos2: "'kern' Horizontal Kerning lookup 15-1" uni0622 dx=-190 dy=0 dh=-190 dv=0 dx=0 dy=0 dh=0 dv=0
PairPos2: "'kern' Horizontal Kerning lookup 15-1" uniFB94 dx=-170 dy=0 dh=-170 dv=0 dx=0 dy=0 dh=0 dv=0
PairPos2: "'kern' Horizontal Kerning lookup 15-1" afii57509 dx=-170 dy=0 dh=-170 dv=0 dx=0 dy=0 dh=0 dv=0
PairPos2: "'kern' Horizontal Kerning lookup 15-1" uniFB56 dx=-170 dy=0 dh=-170 dv=0 dx=0 dy=0 dh=0 dv=0
PairPos2: "'kern' Horizontal Kerning lookup 15-1" afii57506 dx=-170 dy=0 dh=-170 dv=0 dx=0 dy=0 dh=0 dv=0
EndChar

StartChar: uniFEB2
Encoding: 65202 65202 186
Width: 2270
VWidth: 2483
GlyphClass: 2
Flags: W
AnchorPoint: "Anchor-10" 624.903 873.162 basechar 0
AnchorPoint: "Anchor-7" 361.911 -743.191 basechar 0
LayerCount: 2
Fore
SplineSet
1106.25683594 -18.41796875 m 1,0,1
 1069 178 1069 178 1000 317.326171875 c 1,2,-1
 1129.33300781 464.58203125 l 1,3,4
 1159 308 1159 308 1224.2265625 221.198242188 c 0,5,6
 1272 157 1272 157 1384.10253906 160.803710938 c 0,7,8
 1514.98242188 164.999023438 1514.98242188 164.999023438 1520.57617188 346.283203125 c 2,9,-1
 1521.37988281 372.328125 l 1,10,11
 1527 435 1527 435 1565.29589844 435.09375 c 0,12,13
 1612 435 1612 435 1616.91210938 378.537109375 c 1,14,-1
 1621.21875 353.87109375 l 2,15,16
 1652 175 1652 175 1786.98144531 170.247070312 c 0,17,18
 1909.57519531 166.014648438 1909.57519531 166.014648438 1920.64648438 356.791015625 c 2,19,-1
 1924.30078125 419.759765625 l 1,20,21
 1930 482 1930 482 1968.21484375 482.58203125 c 0,22,23
 2015.1953125 483.001953125 2015.1953125 483.001953125 2019.85644531 425.814453125 c 2,24,-1
 2026.22070312 347.723632812 l 2,25,26
 2040.97460938 169.311523438 2040.97460938 169.311523438 2243.30664062 169.311523438 c 2,27,-1
 2279.953125 169.311523438 l 1,28,-1
 2279.953125 -19.126953125 l 1,29,-1
 2250.41210938 -19.126953125 l 2,30,31
 2059 -19 2059 -19 1973.5546875 159.983398438 c 1,32,33
 1902 -11 1902 -11 1790.10644531 -19.3828125 c 0,34,35
 1645 -30 1645 -30 1574.06542969 162.842773438 c 1,36,37
 1507 -13 1507 -13 1379.93457031 -19.7578125 c 0,38,39
 1287 -25 1287 -25 1225.01855469 64.6796875 c 1,40,41
 1224 12 1224 12 1214 -54 c 0,42,43
 1139 -548 1139 -548 616 -548 c 25,44,45
 311 -552 311 -552 184 -392 c 0,46,47
 47 -219 47 -219 103.260742188 92.9365234375 c 0,48,49
 114 152 114 152 151 252 c 0,50,51
 197 373 197 373 238.571289062 346 c 0,52,53
 259 333 259 333 225.022460938 218 c 0,54,55
 156 -14 156 -14 230 -173 c 0,56,57
 322 -369 322 -369 628 -367 c 24,58,59
 1074 -363 1074 -363 1106.25683594 -18.41796875 c 1,0,1
EndSplineSet
EndChar

StartChar: uniFEB3
Encoding: 65203 65203 187
Width: 1280
VWidth: 2482
GlyphClass: 2
Flags: W
AnchorPoint: "Anchor-10" 657.122 940.964 basechar 0
AnchorPoint: "Anchor-7" 590.45 -248.919 basechar 0
LayerCount: 2
Fore
SplineSet
513.408750367 -20.3401876961 m 0,0,1
 354 -20 354 -20 294.8671875 156.244140625 c 1,2,3
 216 -19 216 -19 40.359375 -19 c 2,4,-1
 -8.3359375 -19 l 1,5,-1
 -8.3359375 169 l 1,6,-1
 29.0185546875 169 l 2,7,8
 231.954866357 169 231.954866357 169 241.127929688 311.954101562 c 2,9,-1
 244.239257812 360.44140625 l 2,10,11
 248 423 248 423 289.978897375 423.21866812 c 0,12,13
 331.97486046 423.00013082 331.97486046 423.00013082 339.801757812 366.3828125 c 2,14,-1
 344.231445312 334.33984375 l 2,15,16
 368 161 368 161 513.450529035 160.535177984 c 0,17,18
 639.912575496 160.999678886 639.912575496 160.999678886 663.1015625 382.975585938 c 2,19,-1
 666.982421875 420.125 l 2,20,21
 674 483 674 483 711.361846354 482.723015274 c 0,22,23
 759.735234924 482.998492215 759.735234924 482.998492215 762.528320312 425.900390625 c 2,24,-1
 763.74609375 401.005859375 l 2,25,26
 770 276 770 276 811.6752124 222.830358155 c 0,27,28
 861 160 861 160 940.005452758 169.66071631 c 0,29,30
 1066 185 1066 185 1081 280 c 24,31,32
 1095 370 1095 370 999 457 c 1,33,-1
 1110 676 l 1,34,35
 1174 587 1174 587 1188 446 c 0,36,37
 1210 217 1210 217 1113 84 c 0,38,39
 1074 31 1074 31 1027 4 c 0,40,41
 985 -20 985 -20 908.5 -20 c 0,42,43
 775 -20 775 -20 709.166992188 162.63671875 c 1,44,45
 635 -20 635 -20 513.408750367 -20.3401876961 c 0,0,1
EndSplineSet
EndChar

StartChar: uniFEB4
Encoding: 65204 65204 188
Width: 1372
VWidth: 2482
GlyphClass: 2
Flags: W
AnchorPoint: "Anchor-7" 590.45 -248.919 basechar 0
AnchorPoint: "Anchor-10" 681.637 851.128 basechar 0
LayerCount: 2
Fore
SplineSet
1141.25292969 427.634765625 m 1,0,-1
 1147.56054688 367.060546875 l 2,1,2
 1161.91561634 225.83019688 1161.91561634 225.83019688 1248.14160156 187.799804688 c 0,3,4
 1290.76623906 169 1290.76623906 169 1354.51464844 169 c 2,5,-1
 1380.64550781 169 l 1,6,-1
 1380.64550781 -19 l 1,7,-1
 1361.63769531 -19 l 2,8,9
 1151 -18.662109375 1151 -18.662109375 1090.65332031 156.788085938 c 1,10,11
 1034 -17 1034 -17 894.971679688 -20.59375 c 0,12,13
 764 -24 764 -24 701.103515625 144.639648438 c 1,14,15
 649 -15 649 -15 500.491210938 -18.970703125 c 0,16,17
 362 -22 362 -22 289.7109375 126.004882812 c 1,18,19
 210 -19 210 -19 64.3828125 -19 c 2,20,-1
 -8.2958984375 -19 l 1,21,-1
 -8.2958984375 169 l 1,22,-1
 53.04296875 169.4609375 l 2,23,24
 220.764128557 169.00064732 220.764128557 169.00064732 238.998046875 300.805664062 c 2,25,-1
 242.095703125 323.197265625 l 2,26,27
 251 386 251 386 286.000976562 385.767578125 c 0,28,29
 318 386 318 386 329.94140625 360.313476562 c 0,30,31
 331 358 331 358 342.009765625 309.719726562 c 0,32,33
 375 162 375 162 506.407714844 160.500976562 c 128,-1,34
 637.815263775 159.00210715 637.815263775 159.00210715 648.209960938 346.381835938 c 2,35,-1
 649.353515625 366.99609375 l 2,36,37
 653 429 653 429 693.2734375 429.681640625 c 0,38,39
 739.879112223 429.999176362 739.879112223 429.999176362 744.903320312 372.934570312 c 2,40,-1
 747.206054688 346.780273438 l 2,41,42
 764 161 764 161 908.193359375 170.034179688 c 0,43,44
 1017.00634135 177.000405974 1017.00634135 177.000405974 1039.70703125 370.545898438 c 2,45,-1
 1045.72265625 421.834960938 l 2,46,47
 1053 485 1053 485 1089.68261719 484.348632812 c 0,48,49
 1137 484 1137 484 1141.25292969 427.634765625 c 1,0,-1
EndSplineSet
EndChar

StartChar: uniFEBA
Encoding: 65210 65210 194
Width: 2431
VWidth: 2483
GlyphClass: 2
Flags: W
AnchorPoint: "Anchor-7" 287.069 -679.013 basechar 0
AnchorPoint: "Anchor-10" 605.027 797.729 basechar 0
LayerCount: 2
Fore
SplineSet
1427.27539062 170.306640625 m 5,0,-1
 1630.42480469 170.306640625 l 6,1,2
 1966.01269531 170.00390625 1966.01269531 170.00390625 2055.5 195 c 132,-1,3
 2145 220 2145 220 2100 353.5 c 132,-1,4
 2055 487 2055 487 1910.26171875 503.06640625 c 4,5,6
 1789 517 1789 517 1610.39355469 367.737304688 c 4,7,8
 1512 286 1512 286 1427.27539062 170.306640625 c 5,0,-1
616 -548 m 12,9,10
 311 -552 311 -552 184 -392 c 0,11,12
 47 -219 47 -219 103.260742188 92.9365234375 c 0,13,14
 114 152 114 152 151 252 c 0,15,16
 197 373 197 373 238.571289062 346 c 0,17,18
 259 333 259 333 225.022460938 218 c 0,19,20
 156 -14 156 -14 230 -173 c 0,21,22
 323 -372 323 -372 628 -367 c 20,23,24
 1061 -359 1061 -359 1092.25683594 -18.41796875 c 5,25,26
 1058 171 1058 171 985 317.326171875 c 5,27,-1
 1115.33300781 464.58203125 l 5,28,29
 1155 266 1155 266 1210.2265625 221.198242188 c 28,30,31
 1268 174 1268 174 1340 180 c 5,32,33
 1682 679 1682 679 1916 673.5 c 4,34,35
 2094 670 2094 670 2170.69433594 518.161132812 c 4,36,37
 2218 424 2218 424 2212.79882812 273.4453125 c 28,38,39
 2209 169 2209 169 2424.37695312 169 c 6,40,-1
 2439.37011719 169 l 5,41,-1
 2439.37011719 -19 l 5,42,-1
 2422.31640625 -19 l 6,43,44
 2221 -19 2221 -19 2148 122 c 5,45,46
 2100 65 2100 65 2028.49804688 32.6181640625 c 4,47,48
 1910.2755816 -19.8776300679 1910.2755816 -19.8776300679 1697.3125 -19.884765625 c 6,49,-1
 1435 -19.8935546875 l 6,50,51
 1283 -20 1283 -20 1209.04785156 66.2841796875 c 5,52,53
 1208 -3 1208 -3 1200 -54 c 12,54,55
 1123 -541 1123 -541 616 -548 c 12,9,10
EndSplineSet
EndChar

StartChar: uniFEBB
Encoding: 65211 65211 195
Width: 1574
VWidth: 2483
GlyphClass: 2
Flags: W
AnchorPoint: "Anchor-10" 624.706 1147.5 basechar 0
AnchorPoint: "Anchor-7" 717.45 -260.658 basechar 0
LayerCount: 2
Fore
SplineSet
704.275390625 170.306640625 m 1,0,-1
 907.424804688 170.306640625 l 2,1,2
 1240.01889769 170.003627028 1240.01889769 170.003627028 1333.38085938 195.653320312 c 0,3,4
 1425 221 1425 221 1376.76171875 359.56640625 c 0,5,6
 1332 487 1332 487 1187.26171875 503.06640625 c 0,7,8
 1066 517 1066 517 887.393554688 367.737304688 c 0,9,10
 789 286 789 286 704.275390625 170.306640625 c 1,0,-1
1193 673.5 m 0,11,12
 1370 670 1370 670 1447.69433594 518.161132812 c 0,13,14
 1499 417 1499 417 1483.79882812 273.4453125 c 24,15,16
 1465 104 1465 104 1305.49804688 32.6181640625 c 0,17,18
 1187.2755816 -19.8776300679 1187.2755816 -19.8776300679 974.3125 -19.884765625 c 2,19,-1
 712 -19.8935546875 l 2,20,21
 460 -20 460 -20 348.3984375 159.411132812 c 1,22,23
 215.085680779 -19 215.085680779 -19 18.634765625 -19 c 2,24,-1
 -15.2529296875 -19 l 1,25,-1
 -15.2529296875 169 l 1,26,-1
 6.203125 169 l 2,27,28
 121.635168299 169.458714053 121.635168299 169.458714053 178.04296875 200.33203125 c 0,29,30
 262.144491348 246.362774572 262.144491348 246.362774572 280.291992188 417.521484375 c 0,31,32
 289 495 289 495 332.923828125 495.002929688 c 0,33,34
 380 496 380 496 384.5703125 438.3125 c 1,35,-1
 393.123046875 382.114257812 l 2,36,37
 422 194 422 194 617 180 c 1,38,39
 959 679 959 679 1193 673.5 c 0,11,12
EndSplineSet
EndChar

StartChar: uniFEBC
Encoding: 65212 65212 196
Width: 1707
VWidth: 2483
GlyphClass: 2
Flags: W
AnchorPoint: "Anchor-10" 694.95 1159.66 basechar 0
AnchorPoint: "Anchor-7" 713.497 -259.488 basechar 0
LayerCount: 2
Fore
SplineSet
704.275390625 170.306640625 m 1,0,-1
 907.424804688 170.306640625 l 2,1,2
 1240.01889769 170.003627028 1240.01889769 170.003627028 1333.38085938 195.653320312 c 0,3,4
 1425 221 1425 221 1376.76171875 359.56640625 c 0,5,6
 1332 487 1332 487 1187.26171875 503.06640625 c 0,7,8
 1066 517 1066 517 887.393554688 367.737304688 c 0,9,10
 789 286 789 286 704.275390625 170.306640625 c 1,0,-1
1491.79882812 273.4453125 m 24,11,12
 1488 169 1488 169 1701.73632812 169 c 2,13,-1
 1715.72949219 169 l 5,14,-1
 1715.72949219 -19 l 5,15,-1
 1703.67675781 -19 l 2,16,17
 1501 -19 1501 -19 1426 122 c 1,18,19
 1381 66 1381 66 1305.49804688 32.6181640625 c 0,20,21
 1187.2755816 -19.8776300679 1187.2755816 -19.8776300679 974.3125 -19.884765625 c 2,22,-1
 712 -19.8935546875 l 2,23,24
 460 -20 460 -20 348.3984375 159.411132812 c 1,25,26
 220 -14 220 -14 18.634765625 -19 c 1,27,-1
 -15.2529296875 -19 l 1,28,-1
 -15.2529296875 169 l 1,29,-1
 6.203125 169 l 2,30,31
 112 169 112 169 178.04296875 200.33203125 c 0,32,33
 260 239 260 239 280.291992188 417.521484375 c 0,34,35
 289 495 289 495 332.923828125 495.002929688 c 0,36,37
 380 496 380 496 384.5703125 438.3125 c 1,38,-1
 393.123046875 382.114257812 l 2,39,40
 422 194 422 194 617 180 c 1,41,42
 959 679 959 679 1193 673.5 c 0,43,44
 1370 670 1370 670 1447.69433594 518.161132812 c 0,45,46
 1498 420 1498 420 1491.79882812 273.4453125 c 24,11,12
EndSplineSet
EndChar

StartChar: uniFEC2
Encoding: 65218 65218 202
Width: 1459
VWidth: 2483
GlyphClass: 2
Flags: W
AnchorPoint: "Anchor-7" 684.76 -259.47 basechar 0
AnchorPoint: "Anchor-10" 435.967 1580.11 basechar 0
LayerCount: 2
Fore
SplineSet
461.275390625 170.306640625 m 1,0,-1
 664.424804688 170.306640625 l 2,1,2
 997.018554688 170.00390625 997.018554688 170.00390625 1090.38085938 195.653320312 c 0,3,4
 1182 221 1182 221 1133.76171875 359.56640625 c 0,5,6
 1089 487 1089 487 944.26171875 503.06640625 c 0,7,8
 823 517 823 517 644.393554688 367.737304688 c 0,9,10
 546 286 546 286 461.275390625 170.306640625 c 1,0,-1
1179.43457031 119 m 1,11,12
 1137 67 1137 67 1062.49804688 33.6181640625 c 0,13,14
 944.268022027 -18.8809868401 944.268022027 -18.8809868401 731.3125 -18.884765625 c 2,15,-1
 236 -18.8935546875 l 17,16,17
 127 53 127 53 91.337890625 169.538085938 c 1,18,-1
 324.740234375 169.5390625 l 1,19,20
 371 228 371 228 417 287 c 1,21,22
 408 1281 408 1281 376 1405 c 5,23,-1
 512.360351562 1495.07519531 l 1,24,-1
 511.658203125 383.359375 l 1,25,26
 773 677 773 677 950 673.5 c 128,-1,27
 1127 670 1127 670 1204.69433594 518.161132812 c 0,28,29
 1258 413 1258 413 1244.79882812 273.4453125 c 16,30,31
 1235 169 1235 169 1453.67675781 169 c 2,32,-1
 1467.71386719 169 l 1,33,-1
 1467.71386719 -19 l 1,34,-1
 1451.88085938 -19 l 2,35,36
 1244 -19 1244 -19 1179.43457031 119 c 1,11,12
EndSplineSet
EndChar

StartChar: uniFEC3
Encoding: 65219 65219 203
Width: 1110
VWidth: 2483
GlyphClass: 2
Flags: W
AnchorPoint: "Anchor-7" 423.867 -258.386 basechar 0
AnchorPoint: "Anchor-10" 180.809 1594.98 basechar 0
LayerCount: 2
Fore
SplineSet
239.275390625 170.306640625 m 1,0,-1
 442.424804688 170.306640625 l 2,1,2
 775.018897689 170.003627028 775.018897689 170.003627028 868.380859375 195.653320312 c 0,3,4
 960 221 960 221 911.76171875 359.56640625 c 0,5,6
 867 487 867 487 722.26171875 503.06640625 c 0,7,8
 601 517 601 517 422.393554688 367.737304688 c 0,9,10
 324 286 324 286 239.275390625 170.306640625 c 1,0,-1
840.498046875 32.6181640625 m 0,11,12
 722.275581602 -19.8776300679 722.275581602 -19.8776300679 509.3125 -19.884765625 c 2,13,-1
 247 -19.8935546875 l 2,14,15
 118 -19 118 -19 -10 -19 c 1,16,17
 -10 70 -10 70 -9.662109375 169.538085938 c 1,18,-1
 102.740234375 169.5390625 l 1,19,20
 148 230 148 230 193 291 c 1,21,22
 183 1277 183 1277 148 1407 c 5,23,-1
 290.360351562 1495.07519531 l 1,24,-1
 289.658203125 383.359375 l 1,25,26
 551 677 551 677 728 673.5 c 128,-1,27
 905 670 905 670 982.694335938 518.161132812 c 0,28,29
 1034 417 1034 417 1018.79882812 273.4453125 c 24,30,31
 1000 104 1000 104 840.498046875 32.6181640625 c 0,11,12
EndSplineSet
EndChar

StartChar: uniFEC4
Encoding: 65220 65220 204
Width: 1249
VWidth: 2483
GlyphClass: 2
Flags: W
AnchorPoint: "Anchor-10" 201.497 1583.01 basechar 0
AnchorPoint: "Anchor-7" 512.827 -255.105 basechar 0
LayerCount: 2
Fore
SplineSet
236.275390625 170.306640625 m 1,0,-1
 439.424804688 170.306640625 l 2,1,2
 747.991210938 169.99609375 747.991210938 169.99609375 841.380859375 195.653320312 c 0,3,4
 930 220 930 220 884.76171875 354.56640625 c 0,5,6
 840 489 840 489 718.76171875 503.06640625 c 0,7,8
 598 517 598 517 419.393554688 367.737304688 c 0,9,10
 321 286 321 286 236.275390625 170.306640625 c 1,0,-1
1239.9609375 -19 m 2,11,12
 1032 -19 1032 -19 966.990234375 118.981445312 c 1,13,14
 940 87 940 87 837.498046875 33.6181640625 c 0,15,16
 736.320230216 -18.8339876819 736.320230216 -18.8339876819 506.3125 -18.884765625 c 2,17,-1
 -15.662109375 -19 l 1,18,-1
 -15.662109375 169 l 1,19,-1
 99.740234375 169.5390625 l 1,20,21
 146 238 146 238 192 307 c 1,22,23
 188 1162 188 1162 150.525390625 1407.12988281 c 5,24,-1
 287.360351562 1495.07519531 l 1,25,-1
 286.658203125 413.359375 l 1,26,27
 524 683 524 683 725 676 c 0,28,29
 903 670 903 670 979.694335938 518.161132812 c 0,30,31
 1020 438 1020 438 1023.79882812 273.4453125 c 0,32,33
 1026 169 1026 169 1246.75683594 169 c 2,34,-1
 1257.79296875 169 l 1,35,-1
 1257.79296875 -19 l 1,36,-1
 1239.9609375 -19 l 2,11,12
EndSplineSet
EndChar

StartChar: uniFECA
Encoding: 65226 65226 210
Width: 1198
VWidth: 2481
GlyphClass: 2
Flags: W
AnchorPoint: "Anchor-10" 540.155 1200.4 basechar 0
AnchorPoint: "Anchor-7" 356.855 -808.923 basechar 0
LayerCount: 2
Fore
SplineSet
790.330078125 427.069335938 m 1,0,1
 824 169 824 169 1166.30371094 169 c 2,2,-1
 1209.62695312 169 l 1,3,-1
 1209.62695312 -19 l 1,4,-1
 1173.68847656 -19 l 2,5,6
 746 -19 746 -19 708 365 c 1,7,8
 586.017873942 340.027281279 586.017873942 340.027281279 474 283 c 0,9,10
 311 200 311 200 231 59 c 0,11,12
 181 -29 181 -29 181 -131 c 0,13,14
 181 -220 181 -220 231 -288 c 0,15,16
 346 -445 346 -445 676 -459 c 0,17,18
 699 -460 699 -460 722.3828125 -460.251953125 c 0,19,20
 986 -463 986 -463 1089 -400 c 1,21,22
 964 -638 964 -638 673.153320312 -638.310546875 c 0,23,24
 372 -638 372 -638 223.265625 -501.655273438 c 0,25,26
 88 -377 88 -377 88 -168 c 0,27,28
 88 1 88 1 162 143 c 0,29,30
 305 420 305 420 647.657226562 487.594726562 c 1,31,32
 602 558 602 558 377.658203125 578.430664062 c 1,33,34
 374 668 374 668 377.658203125 703.385742188 c 1,35,36
 478 772 478 772 734.331054688 771.61328125 c 0,37,38
 983.166391957 770.997111764 983.166391957 770.997111764 982.780273438 650.62890625 c 0,39,40
 982 540 982 540 790.330078125 427.069335938 c 1,0,1
EndSplineSet
EndChar

StartChar: uniFECB
Encoding: 65227 65227 211
Width: 909
VWidth: 2479
GlyphClass: 2
Flags: W
AnchorPoint: "Anchor-10" 397.625 1089.71 basechar 0
AnchorPoint: "Anchor-7" 405.263 -287.478 basechar 0
LayerCount: 2
Fore
SplineSet
730 490 m 5,0,1
 622 563 622 563 530 582.392578125 c 4,2,3
 438 602 438 602 347 572.40625 c 4,4,5
 218 530 218 530 192 416 c 4,6,7
 175 342 175 342 344.887695312 228.708984375 c 4,8,9
 379 206 379 206 425.955078125 207.463867188 c 4,10,11
 532.027056047 211.0009022 532.027056047 211.0009022 592.592773438 223.708007812 c 6,12,-1
 818 271 l 5,13,-1
 734 93 l 5,14,15
 242 -19 242 -19 68.8154296875 -19 c 6,16,-1
 -8.78515625 -19 l 1,17,-1
 -8.78515625 169 l 1,18,-1
 202.998046875 169 l 5,19,20
 105 266 105 266 106 385.907226562 c 4,21,22
 107 521 107 521 203 633 c 4,23,24
 273 715 273 715 359 744 c 4,25,26
 426 767 426 767 486 756 c 4,27,28
 694 718 694 718 730 490 c 5,0,1
EndSplineSet
EndChar

StartChar: uniFECC
Encoding: 65228 65228 212
Width: 873
VWidth: 2481
GlyphClass: 2
Flags: W
AnchorPoint: "Anchor-10" 448.926 982.46 basechar 0
AnchorPoint: "Anchor-7" 403.596 -228.438 basechar 0
LayerCount: 2
Fore
SplineSet
476.801757812 168.59765625 m 1,0,1
 309 -19 309 -19 68.841796875 -19 c 2,2,-1
 -8.9345703125 -19 l 1,3,-1
 -8.9345703125 169 l 1,4,-1
 41.5830078125 169 l 2,5,6
 232 169 232 169 404.416015625 268.073242188 c 1,7,8
 328 386 328 386 141.200195312 403.900390625 c 1,9,10
 139 489 139 489 141.200195312 522.825195312 c 1,11,12
 235 588 235 588 480.661132812 587.759765625 c 0,13,14
 717 588 717 588 717.12109375 472.61328125 c 0,15,16
 717 360 717 360 554.365234375 265.225585938 c 1,17,18
 694 169 694 169 860.225585938 169 c 2,19,-1
 880.958007812 169 l 1,20,-1
 880.958007812 -19 l 1,21,-1
 846.971679688 -19 l 2,22,23
 644 -19 644 -19 476.801757812 168.59765625 c 1,0,1
EndSplineSet
EndChar

StartChar: uniFEDA
Encoding: 65242 65242 226
Width: 1918
VWidth: 2457
GlyphClass: 2
Flags: W
AnchorPoint: "Anchor-10" 504.423 1513.9 basechar 0
AnchorPoint: "Anchor-7" 641.93 -330.521 basechar 0
LayerCount: 2
Fore
SplineSet
179 434 m 4,0,1
 187.001448698 190.032119091 187.001448698 190.032119091 552.961914062 173.509765625 c 0,2,3
 675 168 675 168 887 170 c 152,-1,4
 1099 172 1099 172 1169.86621094 183.932617188 c 0,5,6
 1524 244 1524 244 1538.71679688 428.803710938 c 24,7,8
 1548 549 1548 549 1529.5 971.5 c 0,9,10
 1517 1253 1517 1253 1499.67089844 1369.84570312 c 1,11,-1
 1659.93457031 1484.19824219 l 1,12,-1
 1659.93457031 471.728515625 l 24,13,14
 1660.00001942 168.91015625 1660.00001942 168.91015625 1884.92578125 168.91015625 c 2,15,-1
 1929.2265625 168.91015625 l 1,16,-1
 1929.2265625 -20.412109375 l 1,17,-1
 1898.44140625 -20.412109375 l 2,18,19
 1714 -20 1714 -20 1598 226 c 1,20,21
 1544 160 1544 160 1504 131 c 0,22,23
 1359 26 1359 26 1179.62109375 4.47900390625 c 0,24,25
 1000 -17 1000 -17 777.559570312 -18.8544921875 c 24,26,27
 403 -22 403 -22 282.805664062 41.0048828125 c 0,28,29
 92 141 92 141 96 383 c 8,30,31
 98 505 98 505 124.712890625 587 c 0,32,33
 153 675 153 675 189 661 c 0,34,35
 202 656 202 656 202 639 c 0,36,37
 202 627 202 627 188.323242188 559 c 0,38,39
 177 499 177 499 179 434 c 4,0,1
617.685546875 738.493164062 m 1,40,41
 691 729 691 729 720.234375 728.958984375 c 0,42,43
 825 729 825 729 880.443359375 750.8046875 c 0,44,45
 977 788 977 788 976.870117188 849.434570312 c 0,46,47
 977 919 977 919 865.12109375 936.083984375 c 0,48,49
 725 957 725 957 727.911132812 1086.78125 c 0,50,51
 730 1176 730 1176 817.737304688 1220.16113281 c 0,52,53
 905 1265 905 1265 1033.16796875 1273.01953125 c 1,54,-1
 1033.16796875 1209.06640625 l 1,55,56
 888 1198 888 1198 822.953125 1141.53027344 c 0,57,58
 795 1117 795 1117 795.36328125 1083.61035156 c 0,59,60
 795 1003 795 1003 890.53125 988.564453125 c 0,61,62
 986 975 986 975 1014.79980469 947.991210938 c 0,63,64
 1044 921 1044 921 1043.90039062 874.205078125 c 0,65,66
 1044 762 1044 762 931 698 c 128,-1,67
 818 634 818 634 617.685546875 667.016601562 c 1,68,-1
 617.685546875 738.493164062 l 1,40,41
EndSplineSet
EndChar

StartChar: uniFEDB
Encoding: 65243 65243 227
Width: 844
VWidth: 2458
GlyphClass: 2
Flags: W
AnchorPoint: "Anchor-10" 255.65 1327.62 basechar 0
AnchorPoint: "Anchor-7" 322.498 -254.039 basechar 0
LayerCount: 2
Fore
SplineSet
-15.4404296875 -19 m 1,0,-1
 -15.4404296875 169 l 1,1,-1
 133.661132812 169 l 2,2,3
 464 169.428710938 464 169.428710938 490.109375 302.1484375 c 24,4,5
 507.323972978 389.654045602 507.323972978 389.654045602 337.536132812 570.961914062 c 0,6,7
 180 739 180 739 81.9853515625 779.067382812 c 1,8,9
 60.9881761089 991.119410351 60.9881761089 991.119410351 192.684570312 1071.69140625 c 2,10,-1
 837.703125 1466.31445312 l 1,11,12
 806 1313 806 1313 768.614257812 1240.87304688 c 1,13,-1
 193.069335938 929.45703125 l 1,14,15
 385 779 385 779 492.5 604 c 0,16,17
 679.414802652 296.317188128 679.414802652 296.317188128 523.90234375 107.206054688 c 0,18,19
 420.118851283 -19 420.118851283 -19 118.5 -19 c 2,20,-1
 -15.4404296875 -19 l 1,0,-1
EndSplineSet
EndChar

StartChar: uniFEDC
Encoding: 65244 65244 228
Width: 1042
VWidth: 2458
GlyphClass: 2
Flags: W
AnchorPoint: "Anchor-10" 253.442 1359.31 basechar 0
AnchorPoint: "Anchor-7" 335.349 -250.661 basechar 0
LayerCount: 2
Fore
SplineSet
1033.30175781 -19 m 5,0,1
 825 -19 825 -19 589.59375 312.396484375 c 5,2,3
 587 202 587 202 519.90234375 117.206054688 c 4,4,5
 412 -19 412 -19 107.5 -19 c 6,6,-1
 -15.4404296875 -19 l 5,7,-1
 -15.4404296875 169 l 5,8,-1
 133.661132812 169 l 6,9,10
 282 169 282 169 368 195 c 4,11,12
 477 228 477 228 490.109375 312.1484375 c 28,13,14
 504 404 504 404 337.524414062 580.974609375 c 4,15,16
 180 749 180 749 81.9677734375 789.07421875 c 5,17,18
 62.0353674648 1003.6193176 62.0353674648 1003.6193176 192.72265625 1081.71777344 c 6,19,-1
 858.8203125 1479.77636719 l 5,20,21
 826 1326 826 1326 789.736328125 1254.45898438 c 5,22,-1
 193.110351562 939.399414062 l 5,23,24
 267 882 267 882 377.5 763 c 4,25,26
 491 641 491 641 592 496 c 4,27,28
 821 168 821 168 1033.015625 169 c 5,29,-1
 1052.00195312 169 l 5,30,-1
 1052.00195312 -19 l 5,31,-1
 1033.30175781 -19 l 5,0,1
EndSplineSet
EndChar

StartChar: uniFEDE
Encoding: 65246 65246 230
Width: 1362
VWidth: 2483
GlyphClass: 2
Flags: W
AnchorPoint: "Anchor-10" 484.464 1032.96 basechar 0
AnchorPoint: "Anchor-7" 325.399 -733.488 basechar 0
LayerCount: 2
Fore
SplineSet
625 -367 m 0,0,1
 999 -358 999 -358 1014.25683594 -18.41796875 c 0,2,3
 1029 311 1029 311 1012 925 c 0,4,5
 1004 1210 1004 1210 987 1405 c 1,6,-1
 1128.50488281 1493.51660156 l 1,7,-1
 1128.50488281 441 l 2,8,9
 1129.00079931 169.5625 1129.00079931 169.5625 1340.04492188 169.5625 c 2,10,-1
 1370.20019531 169.5625 l 1,11,-1
 1370.20019531 -19.759765625 l 1,12,-1
 1349.42480469 -19.759765625 l 2,13,14
 1220 -20 1220 -20 1125.921875 71 c 1,15,16
 1124 28 1124 28 1119 -14 c 0,17,18
 1056 -542 1056 -542 613 -548 c 0,19,20
 306 -552 306 -552 181 -392 c 0,21,22
 47 -221 47 -221 100.260742188 92.9365234375 c 0,23,24
 112 162 112 162 147 255 c 0,25,26
 193 376 193 376 234.571289062 349 c 0,27,28
 257 334 257 334 221.022460938 221 c 0,29,30
 149 -8 149 -8 227 -173 c 0,31,32
 322 -374 322 -374 625 -367 c 0,0,1
EndSplineSet
EndChar

StartChar: uniFEDF
Encoding: 65247 65247 231
Width: 460
VWidth: 2457
GlyphClass: 2
Flags: W
AnchorPoint: "Anchor-10" 216.577 1578.99 basechar 0
AnchorPoint: "Anchor-7" 161.023 -291.169 basechar 0
LayerCount: 2
Fore
SplineSet
187 1404 m 1,0,-1
 328.969726562 1496.29394531 l 1,1,-1
 328.969726562 487.497070312 l 2,2,3
 329 185 329 185 242.637695312 70.744140625 c 0,4,5
 175.072061857 -19.9033203125 175.072061857 -19.9033203125 7.20703125 -19.9033203125 c 2,6,-1
 -15.8017578125 -19.9033203125 l 1,7,-1
 -15.8017578125 169.53515625 l 1,8,-1
 10.98046875 169.536132812 l 2,9,10
 126 170 126 170 173.298828125 235.376953125 c 0,11,12
 228 309 228 309 225.486328125 483.661132812 c 0,13,14
 223 655 223 655 211.92578125 1035.3046875 c 4,15,16
 204 1309 204 1309 187 1404 c 1,0,-1
EndSplineSet
EndChar

StartChar: uniFEE0
Encoding: 65248 65248 232
Width: 585
VWidth: 2457
GlyphClass: 2
Flags: W
AnchorPoint: "Anchor-10" 266.196 1574.39 basechar 0
AnchorPoint: "Anchor-7" 243.841 -244.011 basechar 0
LayerCount: 2
Fore
SplineSet
227.629882812 1400.96582031 m 1,0,-1
 369.329101562 1495.14160156 l 1,1,-1
 369.329101562 445.416992188 l 2,2,3
 369 244 369 244 447.962890625 193.897460938 c 0,4,5
 488 169 488 169 565.389648438 169 c 2,6,-1
 601.955078125 169 l 1,7,-1
 601.955078125 -19 l 1,8,-1
 558.475585938 -19 l 2,9,10
 375 -19 375 -19 292.26953125 107.02734375 c 1,11,12
 179 -19 179 -19 37.41015625 -19 c 2,13,-1
 -16.056640625 -19 l 1,14,-1
 -16.056640625 169 l 1,15,-1
 1.53515625 169 l 1,16,17
 150 169 150 169 208.752929688 239.393554688 c 0,18,19
 263.571867386 304.308839263 263.571867386 304.308839263 263.166015625 502.094726562 c 24,20,21
 263 625 263 625 254.922851562 933.864257812 c 4,22,23
 247 1224 247 1224 227.629882812 1400.96582031 c 1,0,-1
EndSplineSet
EndChar

StartChar: uniFEE2
Encoding: 65250 65250 234
Width: 1099
VWidth: 2507
GlyphClass: 2
Flags: W
AnchorPoint: "Anchor-10" 457.224 911.03 basechar 0
AnchorPoint: "Anchor-7" 240.015 -800.122 basechar 0
LayerCount: 2
Fore
SplineSet
670 -44 m 0,0,1
 765 -56 765 -56 791 22 c 0,2,3
 835 154 835 154 634.650390625 241.836914062 c 0,4,5
 614 251 614 251 452.724609375 301.684570312 c 1,6,7
 449 273 449 273 453 242 c 0,8,9
 483 -20 483 -20 670 -44 c 0,0,1
388 293 m 1,10,11
 138.10892186 231.027012621 138.10892186 231.027012621 224.958007812 -161.61328125 c 2,12,-1
 287.86221547 -446 l 0,13,-1
 306 -528 l 1,14,-1
 269.295655224 -568 l 0,15,-1
 195.886965671 -648 l 2,16,17
 160.368164062 -686.708007812 160.368164062 -686.708007812 153.968431607 -626 c 6,18,-1
 97.4169921875 -89.5517578125 l 2,19,20
 91 -29 91 -29 91.0224609375 24.6689453125 c 0,21,22
 91 296 91 296 279.829101562 357.239257812 c 0,23,24
 374 388 374 388 414 507 c 1,25,26
 456 453 456 453 596 414 c 0,27,28
 763 367 763 367 878.461914062 245.821289062 c 0,29,30
 951.280748959 169.706543843 951.280748959 169.706543843 1079.15917969 169.125 c 2,31,-1
 1107.71972656 168.995117188 l 1,32,-1
 1107.71972656 -19 l 1,33,-1
 1092.88476562 -19 l 2,34,35
 979 -19 979 -19 877.05078125 78.93359375 c 1,36,37
 861 -88 861 -88 787 -164 c 0,38,39
 746 -207 746 -207 684 -211 c 0,40,41
 619 -215 619 -215 572 -196 c 0,42,43
 365 -116 365 -116 388 293 c 1,10,11
EndSplineSet
EndChar

StartChar: uniFEE3
Encoding: 65251 65251 235
Width: 815
VWidth: 2486
GlyphClass: 2
Flags: W
AnchorPoint: "Anchor-10" 384.828 915.12 basechar 0
AnchorPoint: "Anchor-7" 371.159 -278.757 basechar 0
LayerCount: 2
Fore
SplineSet
520.787219558 -65.3827892516 m 4,0,1
 520.020368741 -65.3827892516 520.020368741 -65.3827892516 519.399603 -65.3801937848 c 132,-1,2
 518.778837259 -65.377598318 518.778837259 -65.377598318 518.302772253 -65.377598318 c 4,3,4
 397.162302139 -65.377598318 397.162302139 -65.377598318 184 93 c 5,5,6
 95.1330631222 -19.8310546875 95.1330631222 -19.8310546875 10.392578125 -19.8310546875 c 6,7,-1
 -15.140625 -19.8310546875 l 5,8,-1
 -15.140625 169.56640625 l 5,9,-1
 31.16015625 169.56640625 l 6,10,11
 100 170 100 170 158 255 c 4,12,13
 342 525 342 525 442 548 c 4,14,15
 458.941176471 551.764705882 458.941176471 551.764705882 476.705882353 551.764705882 c 132,-1,16
 494.470588235 551.764705882 494.470588235 551.764705882 513 547 c 4,17,18
 678 502 678 502 724 256 c 4,19,20
 728.255319149 233.446808511 728.255319149 233.446808511 728.255319149 200.35106383 c 4,21,22
 728.255319149 52.1742978723 728.255319149 52.1742978723 644.5 -15.5 c 4,23,24
 582.763874689 -65.3827892516 582.763874689 -65.3827892516 520.787219558 -65.3827892516 c 4,0,1
283 231 m 5,25,26
 440 90 440 90 552 90 c 4,27,28
 580 90 580 90 603.011634601 113.011634601 c 132,-1,29
 626.023269202 136.023269202 626.023269202 136.023269202 626.023269202 171.917583633 c 132,-1,30
 626.023269202 207.811898065 626.023269202 207.811898065 609 250 c 4,31,32
 552 392 552 392 447 392 c 4,33,34
 383.893333333 392 383.893333333 392 283 231 c 5,25,26
EndSplineSet
EndChar

StartChar: uniFEE4
Encoding: 65252 65252 236
Width: 895
VWidth: 2486
GlyphClass: 2
Flags: W
AnchorPoint: "Anchor-10" 413.54 967.76 basechar 0
AnchorPoint: "Anchor-7" 423.87 -273.174 basechar 0
LayerCount: 2
Fore
SplineSet
283 206 m 1,0,1
 440 65 440 65 552 65 c 0,2,3
 580 65 580 65 603.01171875 88.01171875 c 128,-1,4
 626.0234375 111.0234375 626.0234375 111.0234375 626.0234375 146.91796875 c 0,5,6
 626.0234375 190.473591549 626.0234375 190.473591549 609 225 c 0,7,8
 533 369 533 369 447 367 c 0,9,10
 383.893554688 367 383.893554688 367 283 206 c 1,0,1
689 42 m 1,11,12
 647 -23 647 -23 630 -40 c 0,13,14
 579 -91 579 -91 518.302734375 -90.3779296875 c 0,15,16
 397 -90 397 -90 184 68 c 1,17,18
 120.122869318 -19.8310546875 120.122869318 -19.8310546875 10.392578125 -19.8310546875 c 2,19,-1
 -15.140625 -19.8310546875 l 1,20,-1
 -15.140625 169.56640625 l 1,21,-1
 31.16015625 169.56640625 l 2,22,23
 117 170 117 170 158 230 c 0,24,25
 333 487 333 487 440 514 c 0,26,27
 464 520 464 520 505 516 c 0,28,29
 626 504 626 504 724 240 c 0,30,31
 750.052232143 169.859375 750.052232143 169.859375 866.55078125 169.859375 c 2,32,-1
 903.665039062 169.859375 l 1,33,-1
 903.665039062 -19.4619140625 l 1,34,-1
 873.885742188 -19.4619140625 l 2,35,36
 747 -19 747 -19 689 42 c 1,11,12
EndSplineSet
EndChar

StartChar: uniFEEA
Encoding: 65258 65258 242
Width: 881
VWidth: 2475
GlyphClass: 2
Flags: W
AnchorPoint: "Anchor-10" 487.468 1192.24 basechar 0
AnchorPoint: "Anchor-7" 379.938 -226.295 basechar 0
LayerCount: 2
Fore
SplineSet
167.801757812 399.592773438 m 0,0,1
 168.003380582 342.034935338 168.003380582 342.034935338 279.9140625 337.2109375 c 0,2,3
 424 331 424 331 569 359 c 1,4,-1
 530.8046875 603.053710938 l 1,5,6
 182 487 182 487 169.758789062 419.09765625 c 0,7,8
 168 409 168 409 167.801757812 399.592773438 c 0,0,1
133 517 m 0,9,10
 211 638 211 638 511 720 c 1,11,-1
 498 812 l 1,12,-1
 602.703125 904.208984375 l 1,13,-1
 663.774414062 409.40625 l 2,14,15
 693 169 693 169 876.088867188 169 c 2,16,-1
 889.640625 169 l 1,17,-1
 889.640625 -19 l 1,18,-1
 876.202148438 -19 l 2,19,20
 694 -19 694 -19 624 189 c 1,21,22
 508 165 508 165 381 165 c 0,23,24
 178.501995857 166.693395987 178.501995857 166.693395987 134 217 c 0,25,26
 91 265 91 265 91 371 c 0,27,28
 91 453 91 453 133 517 c 0,9,10
EndSplineSet
EndChar

StartChar: uniFEEB
Encoding: 65259 65259 243
Width: 1016
VWidth: 2479
GlyphClass: 2
Flags: W
AnchorPoint: "Anchor-10" 395.329 1253.72 basechar 0
AnchorPoint: "Anchor-7" 386.345 -220.107 basechar 0
LayerCount: 2
Fore
SplineSet
600.814453125 508.88671875 m 1,0,1
 619.520507812 334.817382812 619.520507812 334.817382812 474.833007812 223.12890625 c 1,2,3
 707.630859375 120.065429688 707.630859375 120.065429688 767.3515625 172.74609375 c 0,4,5
 832.301757812 231.182617188 832.301757812 231.182617188 830.688476562 277.198242188 c 0,6,7
 828.560546875 355.271484375 828.560546875 355.271484375 600.814453125 508.88671875 c 1,0,1
353.383789062 663.227539062 m 1,8,-1
 254.323242188 718.36328125 l 1,9,-1
 333.26953125 865.051757812 l 1,10,-1
 606.016601562 693.22265625 l 2,11,12
 928 490 928 490 925.048828125 263.5546875 c 0,13,14
 924 209 924 209 908.94140625 175.01953125 c 0,15,16
 837 22 837 22 741.940429688 15.43359375 c 0,17,18
 550 2 550 2 351.70703125 105.111328125 c 5,19,20
 134 -19 134 -19 16.12109375 -19.4931640625 c 2,21,-1
 -15.9287109375 -19.4931640625 l 1,22,-1
 -15.9287109375 169.943359375 l 1,23,-1
 21.6083984375 169.943359375 l 2,24,25
 175 170 175 170 232.681640625 190.040039062 c 1,26,27
 175 214 175 214 142.295898438 292.583007812 c 0,28,29
 114 361 114 361 143.828125 451.008789062 c 0,30,31
 186 580 186 580 317.076171875 644.694335938 c 0,32,33
 335 653 335 653 353.383789062 663.227539062 c 1,8,-1
386.424804688 258.958984375 m 1,34,35
 473.411180455 315.958887985 473.411180455 315.958887985 515.465820312 433.462890625 c 0,36,37
 550 530 550 530 476.557617188 558.295898438 c 0,38,39
 382 595 382 595 298.077148438 495.943359375 c 0,40,41
 235 423 235 423 261.127929688 351.266601562 c 0,42,43
 287 280 287 280 386.424804688 258.958984375 c 1,34,35
EndSplineSet
EndChar

StartChar: uniFEEC
Encoding: 65260 65260 244
Width: 835
VWidth: 2498
GlyphClass: 2
Flags: W
AnchorPoint: "Anchor-7" 312.435 -714.977 basechar 0
AnchorPoint: "Anchor-10" 291.308 1179.33 basechar 0
LayerCount: 2
Fore
SplineSet
254.758789062 169.399414062 m 1,0,1
 454.754156214 172.977709498 454.754156214 172.977709498 458 302 c 0,2,3
 462 461 462 461 362 565 c 0,4,5
 315 614 315 614 302.946289062 589 c 0,6,7
 247 475 247 475 248 314 c 0,8,9
 249 214 249 214 254.758789062 169.399414062 c 1,0,1
368.719726562 780.548828125 m 0,10,11
 563 633 563 633 544 285 c 0,12,13
 535 121 535 121 444 34 c 0,14,15
 390 -18 390 -18 276 -20 c 1,16,17
 290 -182 290 -182 464.961914062 -363.368164062 c 1,18,19
 488.054107831 17.4030201266 488.054107831 17.4030201266 719 137 c 4,20,21
 778 168 778 168 826.407226562 168.678710938 c 2,22,-1
 843.165039062 169 l 5,23,-1
 843.165039062 -19 l 5,24,-1
 822.653320312 -19.9912109375 l 2,25,26
 757 -23 757 -23 692.9921875 -50.9443359375 c 0,27,28
 490 -140 490 -140 610 -482 c 1,29,-1
 498.5703125 -578.907226562 l 1,30,31
 231 -386 231 -386 191.151367188 -19.900390625 c 1,32,-1
 -15.830078125 -19 l 1,33,-1
 -15.830078125 169 l 1,34,-1
 176 166 l 1,35,36
 164 253 164 253 164 314 c 0,37,38
 164 630 164 630 277.586914062 773.587890625 c 0,39,40
 315 821 315 821 368.719726562 780.548828125 c 0,10,11
EndSplineSet
EndChar

StartChar: uniFEEE
Encoding: 65262 65262 246
Width: 779
VWidth: 2501
GlyphClass: 2
Flags: W
AnchorPoint: "Anchor-10" 220.961 1203.52 basechar 0
AnchorPoint: "Anchor-7" 426.438 -733.283 basechar 0
LayerCount: 2
Fore
SplineSet
662.376953125 -19 m 1,0,1
 603 -353 603 -353 418.338867188 -494 c 0,2,3
 375 -527 375 -527 323 -526.650390625 c 0,4,5
 164 -526 164 -526 29 -479 c 0,6,7
 6 -471 6 -471 35 -452.501953125 c 0,8,9
 49 -444 49 -444 62.75390625 -439.795898438 c 0,10,11
 470 -302 470 -302 564.912109375 -20.1396484375 c 5,12,13
 507 -26 507 -26 452 -26.5 c 132,-1,14
 397 -27 397 -27 348.373046875 -24.4912109375 c 4,15,16
 223 -17 223 -17 170.10546875 67.44921875 c 4,17,18
 122 144 122 144 135.564453125 266.889648438 c 4,19,20
 159 479 159 479 263.885742188 576.1953125 c 4,21,22
 327 635 327 635 396.5 635 c 132,-1,23
 466 635 466 635 537.787109375 559.08203125 c 4,24,25
 646.109412362 446.88667561 646.109412362 446.88667561 660.27734375 260.791015625 c 6,26,-1
 667.265625 169 l 5,27,-1
 789.850585938 169 l 1,28,-1
 789.850585938 -19 l 1,29,-1
 662.376953125 -19 l 1,0,1
526.258789062 314.05859375 m 4,30,31
 480 433 480 433 371 433 c 132,-1,32
 262 433 262 433 232.350585938 271.958984375 c 4,33,34
 213 168 213 168 302.583007812 159.536132812 c 4,35,36
 434 148 434 148 557.154296875 163.40234375 c 5,37,38
 558 234 558 234 526.258789062 314.05859375 c 4,30,31
EndSplineSet
EndChar

StartChar: uniFEF0
Encoding: 65264 65264 248
Width: 1321
VWidth: 2516
GlyphClass: 2
Flags: W
AnchorPoint: "Anchor-10" 611.919 529.07 basechar 0
AnchorPoint: "Anchor-7" 219.086 -700.196 basechar 0
LayerCount: 2
Fore
SplineSet
887 8 m 0,0,1
 920 83 920 83 1009.15820312 129.321289062 c 0,2,3
 1085 169 1085 169 1251.54296875 169 c 2,4,-1
 1336.41503906 169 l 1,5,-1
 1336.41503906 -19 l 1,6,-1
 1268.07128906 -19 l 2,7,8
 1201 -19 1201 -19 1132.5 -4 c 0,9,10
 1054 13 1054 13 1040.07519531 13.8642578125 c 0,11,12
 966 18 966 18 955 -44.166015625 c 0,13,14
 952 -60 952 -60 969 -62.96484375 c 0,15,16
 1036 -73 1036 -73 1114 -95 c 128,-1,17
 1192 -117 1192 -117 1208 -169 c 0,18,19
 1215 -192 1215 -192 1207 -242 c 0,20,21
 1177 -414 1177 -414 941 -522 c 0,22,23
 778 -597 778 -597 544.645507812 -582.000976562 c 0,24,25
 154 -557 154 -557 90.9765625 -273.241210938 c 0,26,27
 45.0905217498 -67.4060615732 45.0905217498 -67.4060615732 199 234 c 0,28,29
 262.873930662 359.086447546 262.873930662 359.086447546 298 335 c 4,30,31
 322.938815672 318.374122886 322.938815672 318.374122886 289.466796875 244 c 0,32,33
 130 -118 130 -118 270.5 -279.5 c 0,34,35
 362.193591682 -386.349644426 362.193591682 -386.349644426 576.5 -394.5 c 0,36,37
 800 -403 800 -403 942 -362 c 128,-1,38
 1084 -321 1084 -321 1113 -275 c 128,-1,39
 1142 -229 1142 -229 1104 -222.790039062 c 0,40,41
 923 -196 923 -196 892 -160 c 0,42,43
 839 -100 839 -100 887 8 c 0,0,1
EndSplineSet
EndChar

StartChar: uniFEFB
Encoding: 65275 65275 259
Width: 1149
VWidth: 2457
GlyphClass: 3
Flags: W
AnchorPoint: "Anchor-9" 916.39 1561.73 baselig 0
AnchorPoint: "Anchor-6" 910.209 -251.876 baselig 0
AnchorPoint: "Anchor-6" 367.976 -255.858 baselig 1
AnchorPoint: "Anchor-9" 130.892 1467.83 baselig 1
LayerCount: 2
Fore
SplineSet
151.360351562 1319.91113281 m 1,0,1
 607 798 607 798 716.225585938 194.89453125 c 1,2,3
 767 215 767 215 823 286 c 0,4,5
 901.517862782 384.147328477 901.517862782 384.147328477 911.956054688 528.994140625 c 4,6,7
 925 710 925 710 904 1105 c 4,8,9
 893.282149748 1314.14691799 893.282149748 1314.14691799 880 1408 c 1,10,-1
 1018.26953125 1496.79101562 l 1,11,-1
 1018.26953125 527.907226562 l 2,12,13
 1018 320 1018 320 911.5 173.157226562 c 0,14,15
 771.868170363 -17.1797014917 771.868170363 -17.1797014917 508.176757812 -19.9033203125 c 2,16,-1
 402 -21 l 1,17,18
 280 22 280 22 177.657226562 155.245117188 c 1,19,20
 440 115 440 115 629 168 c 1,21,22
 531 687 531 687 91 1135 c 1,23,-1
 151.360351562 1319.91113281 l 1,0,1
EndSplineSet
LCarets2: 1 0
Ligature2: "'rlig' Required Ligatures in Arabic lookup 16 subtable" uniFEDF uniFE8E
EndChar

StartChar: uniFEFC
Encoding: 65276 65276 260
Width: 1357
VWidth: 2457
GlyphClass: 3
Flags: W
AnchorPoint: "Anchor-9" 968.386 1558.17 baselig 0
AnchorPoint: "Anchor-6" 945.402 -257.678 baselig 0
AnchorPoint: "Anchor-6" 447.059 -265.846 baselig 1
AnchorPoint: "Anchor-9" 111.319 1443 baselig 1
LayerCount: 2
Fore
SplineSet
153.403320312 1323.96289062 m 1,0,1
 608 787 608 787 722 199 c 1,2,3
 798 267 798 267 844.033203125 340.33203125 c 0,4,5
 908 442 908 442 922.03515625 551.21875 c 0,6,7
 946.976359221 736.65046527 946.976359221 736.65046527 942.905273438 933.586914062 c 4,8,9
 935 1316 935 1316 915 1409 c 1,10,-1
 1057.4375 1494.75585938 l 1,11,-1
 1057.4375 713.068359375 l 2,12,13
 1057 469 1057 469 1104.32226562 331.934570312 c 0,14,15
 1160.02703046 168.920898438 1160.02703046 168.920898438 1332.69824219 168.920898438 c 2,16,-1
 1367.38867188 168.920898438 l 1,17,-1
 1367.38867188 -20.4296875 l 1,18,-1
 1302.34570312 -19.759765625 l 2,19,20
 1048 -17 1048 -17 964.729492188 376.157226562 c 1,21,22
 927 254 927 254 841.9609375 160.430664062 c 0,23,24
 674.309792696 -27.6524522651 674.309792696 -27.6524522651 425.356445312 -20.40234375 c 2,25,-1
 403.224609375 -19.7578125 l 1,26,27
 279 23 279 23 170.251953125 159.540039062 c 1,28,29
 475 115 475 115 633 166 c 1,30,31
 529 694 529 694 91 1129 c 1,32,-1
 153.403320312 1323.96289062 l 1,0,1
EndSplineSet
LCarets2: 1 0
Ligature2: "'rlig' Required Ligatures in Arabic lookup 16 subtable" uniFEE0 uniFE8E
EndChar

StartChar: arabic_dot
Encoding: 65536 -1 261
Width: 157
VWidth: 2150
GlyphClass: 2
Flags: W
LayerCount: 2
Fore
SplineSet
93.7467911665 180.050274927 m 2,0,-1
 176.357198965 97.4402671296 l 2,1,2
 187.2219152 86.575131947 187.2219152 86.575131947 176.882228963 76.335162869 c 2,3,-1
 90.3287698387 -10.2186961748 l 2,4,5
 77.9339657609 -22.1338226903 77.9339657609 -22.1338226903 66.192566953 -10.289833047 c 2,6,-1
 -19.9861342082 75.8888681141 l 2,7,8
 -31.0317207719 86.3172067114 -31.0317207719 86.3172067114 -16.7576308467 100.589235247 c 2,9,-1
 63.5921222538 180.939224311 l 2,10,11
 78.1597545653 195.638864177 78.1597545653 195.638864177 93.7467911665 180.050274927 c 2,0,-1
EndSplineSet
EndChar

StartChar: arabic_2dots
Encoding: 65537 -1 262
Width: 474
VWidth: 2150
GlyphClass: 2
Flags: W
LayerCount: 2
Fore
SplineSet
127.532238408 179.864227686 m 2,0,-1
 209.958210326 97.4392557688 l 2,1,2
 220.771917421 86.6252706863 220.771917421 86.6252706863 210.482226888 76.3351607934 c 2,3,-1
 124.38327395 -9.76439214497 l 2,4,5
 111.825513462 -22.3215715246 111.825513462 -22.3215715246 99.7921771684 -10.2898432625 c 2,6,-1
 13.2905402602 76.2127933941 l 2,7,8
 3.34136062898 86.664482838 3.34136062898 86.664482838 16.382530283 100.130396412 c 2,9,-1
 97.1671109469 180.915177043 l 2,10,11
 111.824664355 195.571801739 111.824664355 195.571801739 127.532238408 179.864227686 c 2,0,-1
376.382189819 179.865276275 m 2,12,-1
 458.808198961 97.439267134 l 2,13,14
 469.67241267 86.5746344419 469.67241267 86.5746344419 459.333247419 76.3351813249 c 2,15,-1
 373.232171691 -9.76449440546 l 2,16,17
 360.62201456 -22.3755269377 360.62201456 -22.3755269377 348.642770031 -10.2898361249 c 2,18,-1
 262.464419895 75.8888140997 l 2,19,20
 251.419591979 86.3176775164 251.419591979 86.3176775164 265.692777954 100.589244049 c 2,21,-1
 346.042732489 180.940234639 l 2,22,23
 360.60966728 195.639341661 360.60966728 195.639341661 376.382189819 179.865276275 c 2,12,-1
EndSplineSet
EndChar

StartChar: arabic_3dots
Encoding: 65538 -1 263
Width: 477
VWidth: 2150
GlyphClass: 2
Flags: W
LayerCount: 2
Fore
SplineSet
252.743127197 369.996338897 m 2,0,-1
 335.869233047 286.870233047 l 2,1,2
 346.733831021 276.005635073 346.733831021 276.005635073 336.394233047 265.765766953 c 2,3,-1
 250.294233047 179.665766953 l 2,4,5
 237.684143242 167.055677148 237.684143242 167.055677148 225.704746434 179.140787472 c 2,6,-1
 139.525511337 265.318021983 l 2,7,8
 128.48180653 275.748272624 128.48180653 275.748272624 142.753744945 290.020211039 c 2,9,-1
 223.079950284 370.344416397 l 2,10,11
 237.534045301 384.801509878 237.534045301 384.801509878 252.743127197 369.996338897 c 2,0,-1
380.58322983 167.264236264 m 2,12,-1
 463.007312569 84.8395535287 l 2,13,14
 473.822042846 74.0257961738 473.822042846 74.0257961738 463.532237153 63.7355710593 c 2,15,-1
 377.432171691 -22.3640944055 l 2,16,17
 364.875601315 -34.9215364627 364.875601315 -34.9215364627 352.842762847 -22.8894289407 c 2,18,-1
 266.742766953 63.210166953 l 2,19,20
 255.927829756 74.0251041499 255.927829756 74.0251041499 269.892780158 87.9890462518 c 2,21,-1
 350.21667361 168.314139709 l 2,22,23
 364.492262538 182.588221183 364.492262538 182.588221183 380.58322983 167.264236264 c 2,12,-1
127.532197334 167.26426876 m 2,24,-1
 209.958096731 84.8397693734 l 2,25,26
 220.771222488 74.0249757823 220.771222488 74.0249757823 210.482226888 63.7355607934 c 2,27,-1
 124.38327395 -22.363992145 l 2,28,29
 111.825513462 -34.9211715239 111.825513462 -34.9211715239 99.792166953 -22.889433047 c 2,30,-1
 13.2905970328 63.6121368732 l 2,31,32
 3.13501909595 74.2821417524 3.13501909595 74.2821417524 16.841966953 87.989033047 c 2,33,-1
 97.1672042913 168.314270386 l 2,34,35
 111.825158458 182.972843776 111.825158458 182.972843776 127.532197334 167.26426876 c 2,24,-1
EndSplineSet
EndChar

StartChar: arabic_3dots_a
Encoding: 65539 -1 264
Width: 476
VWidth: 2150
GlyphClass: 2
Flags: W
LayerCount: 2
Fore
SplineSet
252.19140625 -14.0751953125 m 6,0,-1
 334.919921875 -96.8046875 l 6,1,2
 345.784179688 -107.668945312 345.784179688 -107.668945312 335.446289062 -117.909179688 c 6,3,-1
 249.344726562 -204.009765625 l 6,4,5
 236.735351562 -216.62109375 236.735351562 -216.62109375 224.75390625 -204.534179688 c 6,6,-1
 138.576171875 -118.35546875 l 6,7,8
 127.533203125 -107.927734375 127.533203125 -107.927734375 141.803710938 -93.654296875 c 6,9,-1
 222.383789062 -13.076171875 l 6,10,11
 236.953125 0.7626953125 236.953125 0.7626953125 252.19140625 -14.0751953125 c 6,0,-1
379.3862384 188.411227694 m 2,12,-1
 461.95924441 105.839221685 l 2,13,14
 472.772226796 95.0263782999 472.772226796 95.0263782999 462.483226785 84.7355606909 c 2,15,-1
 376.383274978 -1.36500111755 l 2,16,17
 363.824879527 -13.9228008322 363.824879527 -13.9228008322 351.790790857 -1.8894869517 c 2,18,-1
 265.638803806 84.2648300993 l 2,19,20
 254.878308238 95.0257743324 254.878308238 95.0257743324 268.841766953 108.989233047 c 2,21,-1
 349.183860468 189.331326567 l 2,22,23
 363.824225457 203.973240637 363.824225457 203.973240637 379.3862384 188.411227694 c 2,12,-1
127.533238411 188.264227683 m 2,24,-1
 209.95924441 105.839221685 l 2,25,26
 220.381019768 95.4175802996 220.381019768 95.4175802996 210.483226785 84.7355606909 c 2,27,-1
 124.383274978 -1.36500111755 l 2,28,29
 111.824556195 -13.9231241496 111.824556195 -13.9231241496 99.7921672607 -1.88946335482 c 2,30,-1
 13.2577692864 84.6449647522 l 2,31,32
 3.28178736235 95.0766354643 3.28178736235 95.0766354643 16.4316044987 108.578869571 c 2,33,-1
 97.183766953 189.331233047 l 2,34,35
 111.825 203.972466094 111.825 203.972466094 127.533238411 188.264227683 c 2,24,-1
EndSplineSet
EndChar

StartChar: uni066E.fina
Encoding: 65540 -1 265
Width: 1787
VWidth: 2483
GlyphClass: 2
Flags: W
AnchorPoint: "Anchor-10" 739.444 1187.16 basechar 0
AnchorPoint: "Anchor-7" 693.685 -247.584 basechar 0
LayerCount: 2
Fore
SplineSet
1795.29199219 169 m 1,0,-1
 1795.29199219 -19 l 1,1,-1
 1766.2265625 -19.1708984375 l 2,2,3
 1491 -21 1491 -21 1477.42578125 238.393554688 c 1,4,5
 1451 192 1451 192 1350.57519531 123.706054688 c 0,6,7
 1149 -14 1149 -14 777 -18.5 c 128,-1,8
 405 -23 405 -23 282.805664062 41.0048828125 c 0,9,10
 98 138 98 138 96 384 c 0,11,12
 95 495 95 495 124.712784443 588 c 0,13,14
 153 676 153 676 189 662 c 0,15,16
 202 657 202 657 202 640 c 0,17,18
 202 628 202 628 188.323242188 560 c 0,19,20
 177 500 177 500 179 435 c 0,21,22
 187 190 187 190 552.961914062 173.509765625 c 0,23,24
 675 168 675 168 856.611328125 169.599609375 c 0,25,26
 1135 172 1135 172 1304.90136719 265.83984375 c 0,27,28
 1385 310 1385 310 1445.64257812 376.155273438 c 0,29,30
 1462 394 1462 394 1513 465 c 0,31,32
 1559 529 1559 529 1583 514 c 4,33,34
 1594 507 1594 507 1594 494 c 0,35,36
 1594 478 1594 478 1570.37414618 411 c 0,37,38
 1487 169 1487 169 1761.04589844 169 c 2,39,-1
 1795.29199219 169 l 1,0,-1
EndSplineSet
EndChar

StartChar: uni06A1.fina
Encoding: 65543 -1 268
Width: 1762
VWidth: 2480
GlyphClass: 2
Flags: W
AnchorPoint: "Anchor-10" 531.829 1306.3 basechar 0
AnchorPoint: "Anchor-7" 655.684 -303.818 basechar 0
LayerCount: 2
Fore
SplineSet
179 440 m 4,0,1
 190 189 190 189 552.961914062 173.509765625 c 0,2,3
 675 168 675 168 835.057617188 168.841796875 c 1,4,-1
 893.77734375 168.842773438 l 2,5,6
 1164.50967828 168.847275965 1164.50967828 168.847275965 1227.65820312 188.516601562 c 1,7,8
 1101 245 1101 245 1069.61230469 367.319335938 c 0,9,10
 1034 510 1034 510 1109.00683594 629.31640625 c 0,11,12
 1183 748 1183 748 1332.234375 749.87109375 c 0,13,14
 1405 751 1405 751 1460.38964844 718.260742188 c 0,15,16
 1553 664 1553 664 1580.71875 562.22265625 c 0,17,18
 1609 458 1609 458 1581.0859375 366.8984375 c 0,19,20
 1549 263 1549 263 1424.8515625 187.82421875 c 1,21,22
 1493 168 1493 168 1724.11816406 168.842773438 c 2,23,-1
 1776.0546875 169 l 1,24,-1
 1776.0546875 -18.99609375 l 1,25,-1
 1716.9296875 -19 l 1,26,27
 1520 -21 1520 -21 1328 112 c 1,28,29
 1177 -19 1177 -19 883.684570312 -18.5966796875 c 2,30,-1
 777.057617188 -18.5966796875 l 9,31,32
 403 -22 403 -22 282.805664062 41.0048828125 c 0,33,34
 99 137 99 137 96 389 c 0,35,36
 95 500 95 500 124.712890625 593 c 0,37,38
 153 681 153 681 189 667 c 0,39,40
 202 662 202 662 202 645 c 0,41,42
 202 633 202 633 188.323242188 565 c 0,43,44
 177 505 177 505 179 440 c 4,0,1
1439.19628906 316.895507812 m 0,45,46
 1544 420 1544 420 1439.30664062 536.166992188 c 0,47,48
 1388 593 1388 593 1328.64160156 592.610351562 c 0,49,50
 1269 593 1269 593 1207.25292969 523.400390625 c 0,51,52
 1115 420 1115 420 1218.47460938 316.876953125 c 0,53,54
 1264 271 1264 271 1327 271 c 0,55,56
 1393 271 1393 271 1439.19628906 316.895507812 c 0,45,46
EndSplineSet
EndChar

StartChar: uni06A1.init
Encoding: 65544 -1 269
Width: 768
VWidth: 2501
GlyphClass: 2
Flags: W
AnchorPoint: "Anchor-10" 322.264 1347 basechar 0
AnchorPoint: "Anchor-7" 332.086 -245.164 basechar 0
LayerCount: 2
Fore
SplineSet
324.764648438 798.666015625 m 4,0,1
 212 796 212 796 183.57421875 648.483398438 c 4,2,3
 168 569 168 569 243.463867188 538.397460938 c 4,4,5
 348 496 348 496 512.384765625 546.18359375 c 5,6,7
 515 621 515 621 479 700.326171875 c 4,8,9
 434 801 434 801 324.764648438 798.666015625 c 4,0,1
608 349 m 12,10,11
 540 -19 540 -19 170.760742188 -19 c 2,12,-1
 -16.076171875 -19 l 1,13,-1
 -16.076171875 169 l 1,14,-1
 154.573242188 169 l 2,15,16
 499 169 499 169 511 365.69140625 c 5,17,18
 408 332 408 332 300 344.5 c 132,-1,19
 192 357 192 357 134.5 438 c 132,-1,20
 77 519 77 519 89.798828125 643.47265625 c 4,21,22
 110 835 110 835 219.100585938 941.75 c 4,23,24
 278 999 278 999 364.21484375 989.663085938 c 4,25,26
 399 986 399 986 439.329101562 963.534179688 c 4,27,28
 539 908 539 908 588 757 c 4,29,30
 605 705 605 705 617 605.5 c 4,31,32
 632 478 632 478 608 349 c 12,10,11
EndSplineSet
EndChar

StartChar: uni06A1.medi
Encoding: 65545 -1 270
Width: 908
VWidth: 2480
GlyphClass: 2
Flags: W
AnchorPoint: "Anchor-10" 510.216 1121.82 basechar 0
AnchorPoint: "Anchor-7" 510.216 -240.57 basechar 0
LayerCount: 2
Fore
SplineSet
572.196289062 316.895507812 m 4,0,1
 677 420 677 420 572.306640625 536.166015625 c 4,2,3
 521 593 521 593 461.641601562 592.610351562 c 4,4,5
 402 593 402 593 340.252929688 523.400390625 c 4,6,7
 248 420 248 420 351.474609375 316.876953125 c 4,8,9
 397 271 397 271 460 271 c 4,10,11
 526 271 526 271 572.196289062 316.895507812 c 4,0,1
461.609375 97.0322265625 m 5,12,13
 316.497552409 -20.5966796875 316.497552409 -20.5966796875 90.6845703125 -20.5966796875 c 2,14,-1
 -9.9423828125 -20.5966796875 l 1,15,-1
 -9.9423828125 168.841796875 l 1,16,-1
 42.77734375 168.842773438 l 2,17,18
 298 169 298 169 360.658203125 188.516601562 c 5,19,20
 234 245 234 245 202.612304688 367.319335938 c 4,21,22
 167 510 167 510 242.006835938 629.31640625 c 4,23,24
 316 748 316 748 465.234375 749.87109375 c 4,25,26
 538 751 538 751 593.389648438 718.260742188 c 4,27,28
 685 666 685 666 713.71875 562.22265625 c 4,29,30
 742 458 742 458 714.0859375 361.8984375 c 4,31,32
 686 265 686 265 557.8515625 187.82421875 c 5,33,34
 675.250795243 166.775745294 675.250795243 166.775745294 873.118164062 168.842773438 c 2,35,-1
 917.0546875 169.301757812 l 1,36,-1
 917.0546875 -19.99609375 l 1,37,-1
 865.9296875 -20.5966796875 l 2,38,39
 639 -23 639 -23 461.609375 97.0322265625 c 5,12,13
EndSplineSet
EndChar

StartChar: uni066F.fina
Encoding: 65546 -1 271
Width: 1328
VWidth: 2501
GlyphClass: 2
Flags: W
AnchorPoint: "Anchor-10" 330.433 1019.46 basechar 0
AnchorPoint: "Anchor-7" 427.252 -854.352 basechar 0
LayerCount: 2
Fore
SplineSet
615.326171875 -548.2578125 m 4,0,1
 310 -552 310 -552 185 -392 c 0,2,3
 51 -221 51 -221 104.260742188 92.9365234375 c 0,4,5
 116 162 116 162 151 255 c 0,6,7
 197 376 197 376 238.571289062 349 c 0,8,9
 261 334 261 334 225.022460938 221 c 0,10,11
 153 -8 153 -8 231 -173 c 0,12,13
 326 -374 326 -374 629 -367 c 0,14,15
 1058 -357 1058 -357 1092 -14 c 1,16,17
 1034 -20 1034 -20 979.087890625 -20.3603515625 c 0,18,19
 924 -21 924 -21 875.4609375 -18.3515625 c 0,20,21
 751 -12 751 -12 697.193359375 73.5888671875 c 0,22,23
 649 150 649 150 662.65234375 273.029296875 c 0,24,25
 686 485 686 485 790.973632812 582.334960938 c 0,26,27
 854 641 854 641 923.587890625 641.139648438 c 0,28,29
 993 641 993 641 1064.875 565.221679688 c 0,30,31
 1173.05119553 449.945444303 1173.05119553 449.945444303 1187.36523438 261.930664062 c 2,32,-1
 1194.35351562 170.139648438 l 1,33,-1
 1336.57128906 169.443359375 l 1,34,-1
 1336.57128906 -19.8544921875 l 1,35,-1
 1194.93164062 -19.8544921875 l 1,36,37
 1193 -35 1193 -35 1190.32617188 -53.2578125 c 24,38,39
 1119 -541 1119 -541 615.326171875 -548.2578125 c 4,0,1
1053.34667969 320.198242188 m 0,40,41
 1007 439 1007 439 898.087890625 439.139648438 c 0,42,43
 789 439 789 439 759.438476562 278.098632812 c 0,44,45
 740 174 740 174 829.670898438 165.67578125 c 0,46,47
 961 154 961 154 1084.2421875 169.541992188 c 1,48,49
 1085 240 1085 240 1053.34667969 320.198242188 c 0,40,41
EndSplineSet
EndChar

StartChar: arabic_ring
Encoding: 65549 -1 274
Width: 477
VWidth: 2240
GlyphClass: 2
Flags: W
LayerCount: 2
Fore
SplineSet
343.15234375 244.240234375 m 0,0,1
 343.15234375 265.786132812 343.15234375 265.786132812 335.684570312 283.923828125 c 128,-1,2
 328.215820312 302.061523438 328.215820312 302.061523438 313.126953125 317.150390625 c 0,3,4
 303.063476562 327.573242188 303.063476562 327.573242188 291.544921875 334.474609375 c 128,-1,5
 280.02734375 341.375 280.02734375 341.375 266.955078125 344.809570312 c 128,-1,6
 253.883789062 348.244140625 253.883789062 348.244140625 239.1484375 348.244140625 c 0,7,8
 195.171875 348.244140625 195.171875 348.244140625 165.157226562 318.23046875 c 128,-1,9
 135.143554688 288.216796875 135.143554688 288.216796875 135.143554688 244.240234375 c 0,10,11
 135.143554688 236.6875 135.143554688 236.6875 135.9765625 229.578125 c 128,-1,12
 136.809570312 222.467773438 136.809570312 222.467773438 138.477539062 215.79296875 c 128,-1,13
 140.145507812 209.118164062 140.145507812 209.118164062 142.643554688 202.875 c 128,-1,14
 145.141601562 196.6328125 145.141601562 196.6328125 148.478515625 190.806640625 c 128,-1,15
 151.814453125 184.981445312 151.814453125 184.981445312 155.977539062 179.578125 c 128,-1,16
 160.140625 174.174804688 160.140625 174.174804688 165.14453125 169.170898438 c 0,17,18
 195.151367188 140.236328125 195.151367188 140.236328125 239.1484375 140.236328125 c 128,-1,19
 283.125 140.236328125 283.125 140.236328125 313.138671875 170.25 c 128,-1,20
 343.15234375 200.263671875 343.15234375 200.263671875 343.15234375 244.240234375 c 0,0,1
480.215820312 244.240234375 m 128,-1,22
 480.215820312 142.990234375 480.215820312 142.990234375 410.857421875 72.53125 c 0,23,24
 340.409179688 2.080078125 340.409179688 2.080078125 239.1484375 2.080078125 c 128,-1,25
 137.880859375 2.080078125 137.880859375 2.080078125 68.53125 72.53125 c 0,26,27
 -1.919921875 142.98046875 -1.919921875 142.98046875 -1.919921875 244.240234375 c 128,-1,28
 -1.919921875 345.500976562 -1.919921875 345.500976562 68.53125 415.94921875 c 0,29,30
 137.88671875 485.307617188 137.88671875 485.307617188 239.1484375 485.307617188 c 128,-1,31
 340.397460938 485.307617188 340.397460938 485.307617188 410.857421875 415.94921875 c 0,32,21
 480.215820312 345.490234375 480.215820312 345.490234375 480.215820312 244.240234375 c 128,-1,22
EndSplineSet
EndChar

StartChar: arabic_gaf_bar
Encoding: 65550 -1 275
Width: 622
VWidth: 2240
GlyphClass: 2
Flags: W
LayerCount: 2
Fore
SplineSet
557.677734375 1774.56933594 m 5,0,-1
 -4.763671875 1440.20800781 l 1,1,-1
 49.732421875 1580.49511719 l 1,2,-1
 609.318359375 1926.296875 l 5,3,-1
 557.677734375 1774.56933594 l 5,0,-1
EndSplineSet
EndChar

StartChar: uni066E.init.math
Encoding: 65560 -1 285
Width: 992
VWidth: 2485
GlyphClass: 2
Flags: W
LayerCount: 2
Fore
SplineSet
643.634765625 69.3447265625 m 0,0,1
 559.5 -30.3310546875 559.5 -30.3310546875 374.56640625 -30.3310546875 c 2,2,-1
 -27.623046875 -30.3310546875 l 1,3,-1
 -27.623046875 159.731445312 l 1,4,-1
 306.446289062 159.731445312 l 2,5,6
 371.872070312 159.731445312 371.872070312 159.731445312 419.451171875 174.796875 c 128,-1,7
 467.030273438 189.862304688 467.030273438 189.862304688 496.934570312 219.766601562 c 0,8,9
 563.1640625 285.999023438 563.1640625 285.999023438 563.1640625 425.118164062 c 2,10,-1
 563.1640625 674.966796875 l 1,11,-1
 753.224609375 674.966796875 l 1,12,-1
 753.224609375 425.118164062 l 2,13,14
 753.224609375 201.0390625 753.224609375 201.0390625 643.634765625 69.3447265625 c 0,0,1
EndSplineSet
EndChar

StartChar: guillemotleft
Encoding: 171 171 286
Width: 1085
VWidth: 2240
Flags: W
LayerCount: 2
Fore
SplineSet
520.755859375 1022.67871094 m 1,0,-1
 491.282226562 970.85546875 l 2,1,2
 426.603515625 857.12890625 426.603515625 857.12890625 394.407226562 746.521484375 c 0,3,4
 361.248046875 632.630859375 361.248046875 632.630859375 361.248046875 515.729492188 c 128,-1,5
 361.248046875 398.8046875 361.248046875 398.8046875 394.421875 284.104492188 c 0,6,7
 426.626953125 172.750976562 426.626953125 172.750976562 491.234375 59.6103515625 c 2,8,-1
 520.856445312 7.734375 l 1,9,-1
 370.135742188 7.734375 l 1,10,-1
 359.91796875 23.828125 l 2,11,12
 280.427734375 149.036132812 280.427734375 149.036132812 240.67578125 270.153320312 c 0,13,14
 220.422851562 331.876953125 220.422851562 331.876953125 210.291992188 393.27734375 c 128,-1,15
 200.16015625 454.677734375 200.16015625 454.677734375 200.16015625 515.729492188 c 0,16,17
 200.16015625 546.141601562 200.16015625 546.141601562 202.694335938 576.638671875 c 128,-1,18
 205.229492188 607.135742188 205.229492188 607.135742188 210.295898438 637.70703125 c 128,-1,19
 215.36328125 668.278320312 215.36328125 668.278320312 222.9609375 698.924804688 c 128,-1,20
 230.559570312 729.571289062 230.559570312 729.571289062 240.6875 760.293945312 c 0,21,22
 250.631835938 790.454101562 250.631835938 790.454101562 263.056640625 820.927734375 c 128,-1,23
 275.482421875 851.401367188 275.482421875 851.401367188 290.384765625 882.180664062 c 128,-1,24
 305.286132812 912.959960938 305.286132812 912.959960938 322.661132812 944.044921875 c 128,-1,25
 340.036132812 975.12890625 340.036132812 975.12890625 359.889648438 1006.53027344 c 2,26,-1
 370.102539062 1022.67871094 l 1,27,-1
 520.755859375 1022.67871094 l 1,0,-1
931.34765625 1022.67871094 m 1,28,-1
 901.874023438 970.85546875 l 2,29,30
 837.1953125 857.12890625 837.1953125 857.12890625 805 746.521484375 c 0,31,32
 788.41796875 689.569335938 788.41796875 689.569335938 780.12890625 631.875976562 c 128,-1,33
 771.83984375 574.18359375 771.83984375 574.18359375 771.83984375 515.729492188 c 0,34,35
 771.83984375 398.801757812 771.83984375 398.801757812 805.012695312 284.104492188 c 0,36,37
 821.111328125 228.440429688 821.111328125 228.440429688 845.313476562 172.317382812 c 128,-1,38
 869.514648438 116.193359375 869.514648438 116.193359375 901.827148438 59.6103515625 c 2,39,-1
 931.446289062 7.734375 l 1,40,-1
 780.727539062 7.734375 l 1,41,-1
 770.509765625 23.828125 l 2,42,43
 691.041992188 148.990234375 691.041992188 148.990234375 651.268554688 270.153320312 c 0,44,45
 610.750976562 393.63671875 610.750976562 393.63671875 610.750976562 515.729492188 c 0,46,47
 610.750976562 637.364257812 610.750976562 637.364257812 651.279296875 760.293945312 c 0,48,49
 691.01953125 880.829101562 691.01953125 880.829101562 770.483398438 1006.53027344 c 2,50,-1
 780.694335938 1022.67871094 l 1,51,-1
 931.34765625 1022.67871094 l 1,28,-1
EndSplineSet
EndChar

StartChar: guillemotright
Encoding: 187 187 287
Width: 1085
VWidth: 2240
Flags: W
LayerCount: 2
Fore
SplineSet
565.784179688 1022.67871094 m 1,0,-1
 716.4375 1022.67871094 l 1,1,-1
 726.649414062 1006.53027344 l 2,2,3
 766.375 943.696289062 766.375 943.696289062 796.177734375 882.138671875 c 128,-1,4
 825.98046875 820.581054688 825.98046875 820.581054688 845.852539062 760.293945312 c 0,5,6
 886.379882812 637.368164062 886.379882812 637.368164062 886.379882812 515.729492188 c 0,7,8
 886.379882812 475.026367188 886.379882812 475.026367188 881.875976562 434.163085938 c 128,-1,9
 877.37109375 393.299804688 877.37109375 393.299804688 868.368164062 352.299804688 c 128,-1,10
 859.365234375 311.299804688 859.365234375 311.299804688 845.864257812 270.15234375 c 0,11,12
 806.196289062 149.315429688 806.196289062 149.315429688 726.828125 24.1533203125 c 2,13,-1
 716.404296875 7.734375 l 1,14,-1
 565.68359375 7.734375 l 1,15,-1
 595.305664062 59.6103515625 l 2,16,17
 659.9375 172.802734375 659.9375 172.802734375 692.118164062 284.104492188 c 0,18,19
 725.291992188 398.8046875 725.291992188 398.8046875 725.291992188 515.729492188 c 128,-1,20
 725.291992188 632.630859375 725.291992188 632.630859375 692.1328125 746.521484375 c 0,21,22
 659.930664062 857.12890625 659.930664062 857.12890625 595.2578125 970.85546875 c 2,23,-1
 565.784179688 1022.67871094 l 1,0,-1
155.192382812 1022.67871094 m 1,24,-1
 305.845703125 1022.67871094 l 1,25,-1
 316.056640625 1006.53027344 l 2,26,27
 395.5078125 880.8671875 395.5078125 880.8671875 435.260742188 760.29296875 c 0,28,29
 475.7890625 637.364257812 475.7890625 637.364257812 475.7890625 515.729492188 c 0,30,31
 475.7890625 475.02734375 475.7890625 475.02734375 471.284179688 434.165039062 c 128,-1,32
 466.780273438 393.301757812 466.780273438 393.301757812 457.776367188 352.301757812 c 128,-1,33
 448.772460938 311.301757812 448.772460938 311.301757812 435.271484375 270.15234375 c 0,34,35
 395.512695312 149.037109375 395.512695312 149.037109375 316.030273438 23.828125 c 2,36,-1
 305.8125 7.734375 l 1,37,-1
 155.09375 7.734375 l 1,38,-1
 184.712890625 59.6103515625 l 2,39,40
 249.344726562 172.801757812 249.344726562 172.801757812 281.52734375 284.104492188 c 0,41,42
 314.69921875 398.801757812 314.69921875 398.801757812 314.69921875 515.729492188 c 128,-1,43
 314.69921875 632.630859375 314.69921875 632.630859375 281.540039062 746.521484375 c 0,44,45
 249.338867188 857.12890625 249.338867188 857.12890625 184.666015625 970.85546875 c 2,46,-1
 155.192382812 1022.67871094 l 1,24,-1
EndSplineSet
EndChar

StartChar: NameMe.337
Encoding: 65562 -1 294
Width: 670
VWidth: 2385
Flags: W
LayerCount: 2
Fore
SplineSet
299.848632812 105.890625 m 2,0,1
 206.891601562 2.080078125 206.891601562 2.080078125 88.125 2.080078125 c 2,2,-1
 -24.197265625 2.080078125 l 1,3,-1
 -24.197265625 190.446289062 l 1,4,-1
 23.8603515625 190.446289062 l 2,5,6
 52.6982421875 190.446289062 52.6982421875 190.446289062 78.283203125 194.029296875 c 128,-1,7
 103.869140625 197.611328125 103.869140625 197.611328125 126.157226562 204.76171875 c 128,-1,8
 148.4453125 211.912109375 148.4453125 211.912109375 167.479492188 222.581054688 c 128,-1,9
 186.514648438 233.25 186.514648438 233.25 202.369140625 247.461914062 c 0,10,11
 274.36328125 312.084960938 274.36328125 312.084960938 268.123046875 441.045898438 c 2,12,-1
 225.470703125 1322.12792969 l 1,13,-1
 400.686523438 1400.3125 l 1,14,-1
 400.686523438 441.137695312 l 2,15,16
 400.686523438 311.379882812 400.686523438 311.379882812 433.711914062 263.904296875 c 0,17,18
 484.815429688 190.446289062 484.815429688 190.446289062 649.314453125 190.446289062 c 2,19,-1
 696.279296875 190.446289062 l 1,20,-1
 696.279296875 2.080078125 l 1,21,-1
 585.049804688 2.080078125 l 2,22,23
 421.748046875 2.080078125 421.748046875 2.080078125 326.171875 106.111328125 c 2,24,-1
 312.94140625 120.510742188 l 1,25,-1
 299.848632812 105.890625 l 2,0,1
EndSplineSet
EndChar

StartChar: NameMe.338
Encoding: 65563 -1 295
Width: 580
VWidth: 2385
Flags: W
LayerCount: 2
Fore
SplineSet
431.260742188 480.865234375 m 2,0,1
 431.260742188 214.180664062 431.260742188 214.180664062 317.344726562 101.0078125 c 0,2,3
 214.01953125 2.080078125 214.01953125 2.080078125 59.7333984375 2.080078125 c 2,4,-1
 -24.197265625 2.080078125 l 1,5,-1
 -24.197265625 190.446289062 l 1,6,-1
 14.0322265625 190.446289062 l 2,7,8
 165.060546875 190.446289062 165.060546875 190.446289062 234.326171875 276.991210938 c 0,9,10
 302.321289062 361.96484375 302.321289062 361.96484375 296.513671875 494.802734375 c 2,11,-1
 254.961914062 1445.59863281 l 1,12,-1
 431.260742188 1523.77539062 l 1,13,-1
 431.260742188 480.865234375 l 2,0,1
EndSplineSet
EndChar

StartChar: exclam
Encoding: 33 33 298
Width: 859
VWidth: 4
Flags: W
LayerCount: 2
Fore
SplineSet
304.6875 121.872070312 m 128,-1,1
 304.6875 171.912109375 304.6875 171.912109375 339.08984375 207.357421875 c 0,2,3
 375.577148438 242.802734375 375.577148438 242.802734375 425.6171875 242.802734375 c 128,-1,4
 475.657226562 242.802734375 475.657226562 242.802734375 511.102539062 207.357421875 c 128,-1,5
 546.547851562 171.912109375 546.547851562 171.912109375 546.547851562 121.872070312 c 128,-1,6
 546.547851562 71.83203125 546.547851562 71.83203125 511.102539062 35.3447265625 c 0,7,8
 475.657226562 0.9423828125 475.657226562 0.9423828125 425.6171875 0.9423828125 c 128,-1,9
 375.577148438 0.9423828125 375.577148438 0.9423828125 339.08984375 35.3447265625 c 0,10,0
 304.6875 71.83203125 304.6875 71.83203125 304.6875 121.872070312 c 128,-1,1
513.7421875 227.508789062 m 1026,11,12
381 1480.08789062 m 6,13,-1
 459 1480.08789062 l 2,14,15
 503.326171875 1480.08789062 503.326171875 1480.08789062 501.804584334 1406 c 2,16,-1
 482.502929688 466.1796875 l 1,17,-1
 361.4921875 466.1796875 l 1,18,-1
 341.217227775 1404 l 2,19,20
 339.572265625 1480.08789062 339.572265625 1480.08789062 381 1480.08789062 c 6,13,-1
EndSplineSet
EndChar

StartChar: period
Encoding: 46 46 299
Width: 687
VWidth: 2246
Flags: W
LayerCount: 2
Fore
SplineSet
233.6875 121.872070312 m 132,-1,1
 233.6875 171.912109375 233.6875 171.912109375 268.08984375 207.357421875 c 4,2,3
 304.577148438 242.802734375 304.577148438 242.802734375 354.6171875 242.802734375 c 132,-1,4
 404.657226562 242.802734375 404.657226562 242.802734375 440.102539062 207.357421875 c 132,-1,5
 475.547851562 171.912109375 475.547851562 171.912109375 475.547851562 121.872070312 c 132,-1,6
 475.547851562 71.83203125 475.547851562 71.83203125 440.102539062 35.3447265625 c 4,7,8
 404.657226562 0.9423828125 404.657226562 0.9423828125 354.6171875 0.9423828125 c 132,-1,9
 304.577148438 0.9423828125 304.577148438 0.9423828125 268.08984375 35.3447265625 c 4,10,0
 233.6875 71.83203125 233.6875 71.83203125 233.6875 121.872070312 c 132,-1,1
EndSplineSet
EndChar

StartChar: colon
Encoding: 58 58 300
Width: 687
VWidth: 2246
Flags: W
LayerCount: 2
Fore
SplineSet
233.6875 698.872070312 m 128,-1,1
 233.6875 748.912109375 233.6875 748.912109375 268.08984375 784.357421875 c 0,2,3
 304.577148438 819.802734375 304.577148438 819.802734375 354.6171875 819.802734375 c 128,-1,4
 404.657226562 819.802734375 404.657226562 819.802734375 440.102539062 784.357421875 c 128,-1,5
 475.547851562 748.912109375 475.547851562 748.912109375 475.547851562 698.872070312 c 128,-1,6
 475.547851562 648.83203125 475.547851562 648.83203125 440.102539062 612.344726562 c 0,7,8
 404.657226562 577.942382812 404.657226562 577.942382812 354.6171875 577.942382812 c 128,-1,9
 304.577148438 577.942382812 304.577148438 577.942382812 268.08984375 612.344726562 c 0,10,0
 233.6875 648.83203125 233.6875 648.83203125 233.6875 698.872070312 c 128,-1,1
442.7421875 804.508789062 m 1026,11,12
233.6875 121.872070312 m 128,-1,14
 233.6875 171.912109375 233.6875 171.912109375 268.08984375 207.357421875 c 0,15,16
 304.577148438 242.802734375 304.577148438 242.802734375 354.6171875 242.802734375 c 128,-1,17
 404.657226562 242.802734375 404.657226562 242.802734375 440.102539062 207.357421875 c 128,-1,18
 475.547851562 171.912109375 475.547851562 171.912109375 475.547851562 121.872070312 c 128,-1,19
 475.547851562 71.83203125 475.547851562 71.83203125 440.102539062 35.3447265625 c 0,20,21
 404.657226562 0.9423828125 404.657226562 0.9423828125 354.6171875 0.9423828125 c 128,-1,22
 304.577148438 0.9423828125 304.577148438 0.9423828125 268.08984375 35.3447265625 c 0,23,13
 233.6875 71.83203125 233.6875 71.83203125 233.6875 121.872070312 c 128,-1,14
442.7421875 227.508789062 m 1026,24,25
EndSplineSet
EndChar
